<svg id="model" xmlns="http://www.w3.org/2000/svg" xmlns:xlink="http://www.w3.org/1999/xlink" viewBox="0 0 281.39 261.72"><defs><style>.cls-1,.cls-10,.cls-11,.cls-12,.cls-13,.cls-15,.cls-18,.cls-19,.cls-21,.cls-4{fill:none;}.cls-2{opacity:0.36;}.cls-3{fill:#e8e8e8;}.cls-10,.cls-12,.cls-15,.cls-16,.cls-17,.cls-19,.cls-21,.cls-3,.cls-4,.cls-5{stroke:#000;}.cls-5{fill:#727272;stroke-width:0.5px;}.cls-6{clip-path:url(#clip-path);}.cls-7{fill:#939598;}.cls-8,.cls-9{font-size:12px;}.cls-8{font-family:HelveticaNeue Bold;font-weight:700;}.cls-9{font-family:HelveticaNeue Light;white-space:pre;}.cls-10,.cls-15,.cls-16,.cls-17,.cls-19,.cls-21{stroke-linecap:round;}.cls-10,.cls-11,.cls-13,.cls-15,.cls-16,.cls-17,.cls-18,.cls-21{stroke-linejoin:round;}.cls-10,.cls-12{stroke-width:1.49px;}.cls-10{stroke-dasharray:5.96 2.98;}.cls-11,.cls-13,.cls-18{stroke:#6a6a6a;}.cls-11{stroke-width:4.4px;}.cls-13{stroke-width:4px;}.cls-14{fill:#fff;}.cls-15{stroke-width:1.28px;}.cls-16{fill:#c1c1c1;stroke-width:0.79px;}.cls-17{stroke-width:0.3px;}.cls-18{stroke-width:6.4px;}.cls-19{stroke-width:7.34px;}.cls-20{font-size:10px;font-family:Fira Sans;}.cls-21{stroke-width:2px;}</style><clipPath id="clip-path" transform="translate(-11.25 -13.5)"><rect class="cls-1" x="214.73" y="124.21" width="85.83" height="116.84"/></clipPath></defs><title>system_schema</title><g id="scan_proj" data-name="scan / proj" class="cls-2"><polygon class="cls-3" points="97.7 88.39 154.66 196.62 40.63 196.62 97.7 88.39"/><polygon class="cls-3" points="121.25 82.57 178.21 197.84 64.17 197.84 121.25 82.57"/><polygon class="cls-4" points="97.7 88.39 154.66 196.62 40.63 196.62 97.7 88.39"/></g><path class="cls-5" d="M78.66,210.12h82.92a13.34,13.34,0,0,0-3.13-7c-1.83-2.2-5.43-4.82-11.5-3.09s-13.33-3.24-16.87-3.81a10.64,10.64,0,0,0-6.94,1.27c-1.49.78-6.35,3.41-8.33,3.83-1.79.37-2.39-.66-4.49-0.66-4,0-7.81,2.69-12,2.81C94.55,203.54,79.61,203.75,78.66,210.12Z" transform="translate(-11.25 -13.5)"/><rect class="cls-1" x="218.57" y="161.26" width="22.52" height="32.75"/><g class="cls-6"><path class="cls-7" d="M256.06,206.27l1.58,1.6,0.54-.58-1-7.18,0.08-1.16,0.49-1.73,0.51-1.59,0.56-1.25,1.83,3.07,1.78,3.24,0.4,1.9,2.48-2.44,1.26-9.43L269.24,178l1.7-8.67,3.44-6.83L274.9,161l0.19-.83,0.07-1.35-0.21-1.08-0.49-1-0.9-.9,0,0.25,0.44,0.46,0.41,1,0,0.77-0.56,1.55-0.73,1.66-1.56,2.8,0.87-6.47,0.25-3.4-0.32-.06-1.74,11.62-0.33.59-2.87,5.4-3.67,7.26-3.08,6.3L259.05,190l-1-1.66,0.61-1.25,3.35-6.43,3.4-5.67,1.42-2.76,1.17-2.3,0.32-.78,0.07-.76-0.14-.58h-0.14l-0.1.51-0.59,1.35L266,172,262,178.27l-2.31,3.42-1.58,2.8,1-9.64,0.36-4.11,0.15-8.69h0l0.07-.29,0.22-.54,0.17-.49,0.21-.36v-0.71l-0.07-.9,0.32-.58-0.14-.85v-0.64l0.12-.36,0.25-.81,0.17-.43-0.33-.54,0.28-.54-0.45-.32-0.27-.81,0.39-.63L260,152l-0.24-.42v-0.36l-0.24-.41-0.25-.22,0-.34v-0.37l-0.12-1-0.08-.59-0.36-.27-0.18-.32-0.41-.2-0.25-.44,0-.5,0-.51-0.27-.44-0.47-.09-0.43-.15-0.22-.32-0.15-.34-0.34.22-0.14.43-0.07.47-0.22.74-0.15-.25,0.07,0.9,0,0.2v0.34l0.13,0.27,0.12,0.36,0.22,0.29,0.09,0.13,0.07,0.34-0.28.21,0.12,0.31-0.27.34,0,0.27,0.07,0.27,0.22,0.27,0.2,0.25,0.27,0.23,0,0.2-0.09.29-0.22.2-0.1.16,0,0.42,0.34,0.22,0.2,0.21,0.12,0.42-0.36.43-0.06.31,0.15,0.34,0.22,0.27v0.27l0.16,0.21,0.15,0.18,0.12,0.2L257,156l0.22,0.32,0.2,0,0.07,0.15-0.07.27,0.19,0.39,0.2,0.15,0.15,0.32-0.15.54,0.22,0.49,0.21,0.09,0.1,0.22,0,0.63-0.12.27-0.11.32,0.32,1.59,0.56,0.36,0,6.91-0.66,7.46L258,180.84l-0.63,5.25-0.25.63L255,183.14l-0.72-4.79-0.92-7.78-1.1-7.21,0.08,6.58,0.39,5.44,0.67,5.19-4.65-7.37-6.68-10-1.53-2.13h-0.13l0.44,1.28,0.83,2.07,1.22,2.76,2.13,4.57,1.29,2.3,1.59,2.76,3.29,5.21,3,4.73,0.46,4.24,1.42,9.69h0l-1.64-5.09L251,187l-2.76-5.74-3.67-6-1.86-2.45-1.49-1.49-2.42-2.25,1,1.24,1.63,1.66,1,1.08,0.63,1.1,0.76,1.22,1.24,2.13,1.08,2,1.1,2.45,1.35,3.27,2.64,6.82,2.76,7.19,1.66,5.08Zm-4.85-4.83-0.48-1.29-0.89-1.69-1.94-3.71-2.74-4.94-1.93-3.17-1.79-2.74-1-1.35-0.81-.81,1.39,2.65,1.28,3,1.92,4.37,0.84,1.93,0.84,2.51Zm-11.56-19.7,0,0-0.07,0Zm29.41-8.82-0.47,2-2.12,8.48-1,4.81L264.36,194l-1.19,3.8-0.42-1-2.72-5,0.91-2.12,3-6.23,1.59-3.35,2.13-4.5Zm2.64,6.31-0.39,2.25-1.1,3.74L269.1,188l-1.22,3.6-0.64,3.54-0.61,3.76,2.2-2.24,0.09-1.15,0.25-2,0.58-2.81,1.28-5,0.59-3.72Zm-15.76,10.25,0.89,1.49-0.19,3.47-0.14.11Zm1.5,2.49,0.51,0.86-0.4.94-0.29.21Z" transform="translate(-11.25 -13.5)"/><polygon points="218.46 169 217.33 170.13 225.78 178.57 224.66 179.69 233.09 188.12 231.97 189.24 246.39 203.66 260.82 189.24 259.69 188.12 268.12 179.69 267.01 178.57 275.45 170.13 274.33 169 246.39 196.94 218.46 169"/><path d="M257.64,138.15l-35,35,35,35,35-35Zm0,0.62L292,173.16l-34.38,34.38-34.38-34.38Z" transform="translate(-11.25 -13.5)"/><rect x="219.17" y="200.94" width="22.6" height="0.47"/><rect x="251.01" y="200.94" width="22.6" height="0.47"/><text class="cls-8" transform="translate(214.68 217.72)">GRASS</text><text class="cls-9" transform="translate(256.24 217.72)"> GIS</text></g><line class="cls-10" x1="92.5" y1="47.27" x2="92.5" y2="72.26"/><line class="cls-10" x1="96.03" y1="47.27" x2="96.03" y2="72.26"/><line class="cls-10" x1="99.56" y1="47.27" x2="99.56" y2="72.26"/><line class="cls-10" x1="103.09" y1="47.27" x2="103.09" y2="72.26"/><polyline class="cls-11" points="200.45 261.72 200.45 44.94 108.87 44.94"/><path d="M127.13,71.85h10.63A2.52,2.52,0,0,1,140,74.57V93a2.52,2.52,0,0,1-2.29,2.71H127.13A2.52,2.52,0,0,1,124.84,93V74.57a2.52,2.52,0,0,1,2.29-2.72" transform="translate(-11.25 -13.5)"/><path class="cls-12" d="M127.13,71.85h10.63A2.52,2.52,0,0,1,140,74.57V93a2.52,2.52,0,0,1-2.29,2.71H127.13A2.52,2.52,0,0,1,124.84,93V74.57A2.52,2.52,0,0,1,127.13,71.85Z" transform="translate(-11.25 -13.5)"/><line class="cls-13" x1="110.93" y1="45.43" x2="110.93" y2="75.71"/><rect x="91.3" y="82.45" width="12.72" height="2.73"/><path class="cls-14" d="M114.41,97.66c0,2.33-2.44,4.23-5.45,4.23s-5.45-1.89-5.45-4.23h10.9Z" transform="translate(-11.25 -13.5)"/><path class="cls-15" d="M98.36,93.67V59.11a2.22,2.22,0,0,1,2-2.4H118a2.22,2.22,0,0,1,2,2.4V93.67a2.22,2.22,0,0,1-2,2.4h-17.6A2.22,2.22,0,0,1,98.36,93.67Z" transform="translate(-11.25 -13.5)"/><path class="cls-16" d="M114.41,97.66c0,2.33-2.44,4.23-5.45,4.23s-5.45-1.89-5.45-4.23h10.9Z" transform="translate(-11.25 -13.5)"/><rect class="cls-17" x="91.3" y="82.45" width="12.72" height="2.8"/><line class="cls-18" x1="110.93" y1="200.08" x2="110.93" y2="261.72"/><line class="cls-19" x1="184.89" y1="200.08" x2="34.63" y2="200.08"/><text class="cls-20" transform="translate(138.5 8.42)">g<tspan x="4.93" y="0">eospatial </tspan><tspan x="48.93" y="0">c</tspan><tspan x="53.52" y="0">omputation</tspan></text><text class="cls-20" transform="translate(125.29 177.26)">3D scanning</text><text class="cls-20" transform="translate(46 101.76)">p<tspan x="5.81" y="0">r</tspan><tspan x="9.44" y="0">ojection</tspan></text><text class="cls-20" transform="translate(0 161.88)">in<tspan x="8.54" y="0">t</tspan><tspan x="11.85" y="0">e</tspan><tspan x="17.23" y="0">r</tspan><tspan x="20.76" y="0">action</tspan></text><text class="cls-20" transform="translate(142.5 63.26)">point c<tspan x="30.95" y="0">l</tspan><tspan x="33.69" y="0">oud</tspan><tspan x="0" y="12">p</tspan><tspan x="5.81" y="12">r</tspan><tspan x="9.44" y="12">o</tspan><tspan x="15.15" y="12">c</tspan><tspan x="19.74" y="12">essing</tspan></text><line class="cls-21" x1="121.25" y1="99.28" x2="121.25" y2="179.44"/><polygon points="121.25 90.81 116.37 102.75 121.25 99.92 126.13 102.75 121.25 90.81"/><line class="cls-21" x1="132.96" y1="72.26" x2="203.93" y2="150.33"/><polygon points="209.63 156.6 197.99 151.05 203.5 149.86 205.21 144.49 209.63 156.6"/><polyline class="cls-21" points="246.39 121.17 246.39 13.94 99.56 13.94 99.56 31.19"/><polygon points="99.56 39.66 94.68 27.72 99.56 30.55 104.44 27.72 99.56 39.66"/><line class="cls-21" x1="28.69" y1="129.38" x2="73.26" y2="178.41"/><polygon points="78.96 184.68 67.32 179.12 72.83 177.94 74.54 172.56 78.96 184.68"/><line class="cls-21" x1="97.64" y1="95.02" x2="97.64" y2="175.18"/><polygon points="97.64 183.65 92.77 171.71 97.64 174.54 102.52 171.71 97.64 183.65"/></svg>