<?xml version="1.0" encoding="UTF-8" standalone="no"?>
<!-- Created with Inkscape (http://www.inkscape.org/) -->

<svg
   xmlns:dc="http://purl.org/dc/elements/1.1/"
   xmlns:cc="http://creativecommons.org/ns#"
   xmlns:rdf="http://www.w3.org/1999/02/22-rdf-syntax-ns#"
   xmlns:svg="http://www.w3.org/2000/svg"
   xmlns="http://www.w3.org/2000/svg"
   xmlns:sodipodi="http://sodipodi.sourceforge.net/DTD/sodipodi-0.dtd"
   xmlns:inkscape="http://www.inkscape.org/namespaces/inkscape"
   width="20.486357mm"
   height="30.777145mm"
   id="svg4088"
   version="1.1"
   inkscape:version="0.91 r13725"
   sodipodi:docname="grass_powered_by.svg"
   inkscape:export-filename="/Users/Brendan/tangible-landscape-media/tl_stickers/grass_powered_by_fira_greyscale.png"
   inkscape:export-xdpi="900"
   inkscape:export-ydpi="900">
  <title
     id="title4230">GRASS GIS Logo</title>
  <defs
     id="defs4090" />
  <sodipodi:namedview
     id="base"
     pagecolor="#ffffff"
     bordercolor="#666666"
     borderopacity="1.0"
     inkscape:pageopacity="0.0"
     inkscape:pageshadow="2"
     inkscape:zoom="7.8490442"
     inkscape:cx="36.294727"
     inkscape:cy="53.7557"
     inkscape:document-units="px"
     inkscape:current-layer="g4017"
     showgrid="false"
     inkscape:window-width="1635"
     inkscape:window-height="1005"
     inkscape:window-x="45"
     inkscape:window-y="1"
     inkscape:window-maximized="1"
     showguides="true"
     inkscape:guide-bbox="true"
     fit-margin-top="0"
     fit-margin-left="0"
     fit-margin-right="0"
     fit-margin-bottom="0"
     borderlayer="true" />
  <metadata
     id="metadata4093">
    <rdf:RDF>
      <cc:Work
         rdf:about="">
        <dc:format>image/svg+xml</dc:format>
        <dc:type
           rdf:resource="http://purl.org/dc/dcmitype/StillImage" />
        <dc:title>GRASS GIS Logo</dc:title>
        <cc:license
           rdf:resource="http://creativecommons.org/licenses/by-sa/3.0/" />
      </cc:Work>
      <cc:License
         rdf:about="http://creativecommons.org/licenses/by-sa/3.0/">
        <cc:permits
           rdf:resource="http://creativecommons.org/ns#Reproduction" />
        <cc:permits
           rdf:resource="http://creativecommons.org/ns#Distribution" />
        <cc:requires
           rdf:resource="http://creativecommons.org/ns#Notice" />
        <cc:requires
           rdf:resource="http://creativecommons.org/ns#Attribution" />
        <cc:permits
           rdf:resource="http://creativecommons.org/ns#DerivativeWorks" />
        <cc:requires
           rdf:resource="http://creativecommons.org/ns#ShareAlike" />
      </cc:License>
    </rdf:RDF>
  </metadata>
  <g
     style="display:inline"
     inkscape:label="GRASS GIS"
     id="g4017"
     inkscape:groupmode="layer"
     transform="translate(-336.10367,-450.47923)">
    <flowRoot
       xml:space="preserve"
       id="flowRoot4303"
       style="font-style:normal;font-variant:normal;font-weight:bold;font-stretch:normal;font-size:12.5px;line-height:125%;font-family:'Fira Sans';-inkscape-font-specification:'Fira Sans, Bold';text-align:center;letter-spacing:0px;word-spacing:0px;writing-mode:lr;text-anchor:middle;fill:#000000;fill-opacity:1;stroke:none;stroke-width:1px;stroke-linecap:butt;stroke-linejoin:miter;stroke-opacity:1;"
       transform="translate(-1.9380776e-6,0)"><flowRegion
         id="flowRegion4305"><rect
           id="rect4307"
           width="74.406731"
           height="19.604168"
           x="335.3501"
           y="543.99048"
           style="font-style:normal;font-variant:normal;font-weight:bold;font-stretch:normal;font-size:12.5px;line-height:125%;font-family:'Fira Sans';-inkscape-font-specification:'Fira Sans, Bold';text-align:center;writing-mode:lr;text-anchor:middle;" /></flowRegion><flowPara
         id="flowPara4309"
         style="font-style:normal;font-variant:normal;font-weight:bold;font-stretch:normal;font-size:12.5px;line-height:125%;font-family:'Fira Sans';-inkscape-font-specification:'Fira Sans, Bold';text-align:center;writing-mode:lr;text-anchor:middle;"><flowSpan
           style="-inkscape-font-specification:'Fira Sans, Medium';font-family:'Fira Sans';font-weight:500;font-style:normal;font-stretch:normal;font-variant:normal;font-size:12.5px;text-anchor:middle;text-align:center;writing-mode:lr;line-height:125%"
           id="flowSpan4226">GRASS</flowSpan><flowSpan
           style="-inkscape-font-specification:'Fira Sans, Ultra-Light';font-family:'Fira Sans';font-weight:200;font-style:normal;font-stretch:normal;font-variant:normal;font-size:12.5px;text-anchor:middle;text-align:center;writing-mode:lr;line-height:125%"
           id="flowSpan4225"> GIS</flowSpan></flowPara></flowRoot>    <flowRoot
       xml:space="preserve"
       id="flowRoot4215"
       style="font-style:normal;font-variant:normal;font-weight:normal;font-stretch:normal;font-size:7.5px;line-height:125%;font-family:Lato;-inkscape-font-specification:'Lato, Normal';text-align:center;letter-spacing:0px;word-spacing:0px;writing-mode:lr-tb;text-anchor:middle;fill:#000000;fill-opacity:1;stroke:none;stroke-width:1px;stroke-linecap:butt;stroke-linejoin:miter;stroke-opacity:1"><flowRegion
         id="flowRegion4217"><rect
           id="rect4219"
           width="73.469566"
           height="12.973005"
           x="-0.92664319"
           y="-13.007735" /></flowRegion><flowPara
         id="flowPara4221" /></flowRoot>  </g>
  <g
     inkscape:groupmode="layer"
     id="layer2"
     inkscape:label="powered by"
     transform="translate(-1.875e-6,14.30525)"
     style="display:inline">
    <flowRoot
       xml:space="preserve"
       id="flowRoot4231"
       style="font-style:normal;font-variant:normal;font-weight:200;font-stretch:normal;font-size:8.75px;line-height:125%;font-family:'Fira Sans';-inkscape-font-specification:'Fira Sans, Ultra-Light';text-align:center;letter-spacing:0px;word-spacing:0px;writing-mode:lr;text-anchor:middle;display:inline;fill:#000000;fill-opacity:1;stroke:none;stroke-width:1px;stroke-linecap:butt;stroke-linejoin:miter;stroke-opacity:1;"
       transform="translate(-0.3695685,1.5634288)"><flowRegion
         id="flowRegion4233"><rect
           id="rect4235"
           width="72.675301"
           height="14.296778"
           x="0"
           y="-14.331508"
           style="font-style:normal;font-variant:normal;font-weight:200;font-stretch:normal;font-size:8.75px;line-height:125%;font-family:'Fira Sans';-inkscape-font-specification:'Fira Sans, Ultra-Light';text-align:center;writing-mode:lr;text-anchor:middle;" /></flowRegion><flowPara
         id="flowPara4237"
         style="font-style:normal;font-variant:normal;font-weight:200;font-stretch:normal;font-size:8.75px;line-height:125%;font-family:'Fira Sans';-inkscape-font-specification:'Fira Sans, Ultra-Light';text-align:center;writing-mode:lr;text-anchor:middle;">powered by</flowPara></flowRoot>  </g>
  <g
     inkscape:label="logo"
     inkscape:groupmode="layer"
     id="layer1"
     style="display:none"
     transform="translate(-336.10367,-450.47923)">
    <g
       style="display:inline"
       id="g5378"
       inkscape:label="color"
       transform="matrix(0.37476995,0,0,0.37476995,232.96627,307.09071)">
      <path
         sodipodi:nodetypes="cccccccccccccccccccccccccccccccccccccccccccccccccccccccccccccccccccccccccccccccccccccccccccccccccccccccccccccccccccccccccccccccccccccccccccccccccccccccccccccccccccccccccccccccccccccccccccccccccccccccccccccccccccccccccccccccccccccccccccccccccccccccccccc"
         inkscape:connector-curvature="0"
         style="display:inline;fill:#009000;stroke:none"
         d="m 367.81011,602.52854 4.21781,4.2809 1.43857,-1.54392 -2.57138,-19.15924 0.21875,-3.09375 1.3125,-4.625 1.375,-4.25 1.5,-3.34375 4.875,8.1875 4.75,8.65625 1.05469,5.08007 6.62885,-6.5039 3.34766,-25.16992 7.03125,-34.0625 4.53125,-23.12499 9.1875,-18.21875 1.375,-3.78125 0.5,-2.21875 0.1875,-3.59375 -0.5625,-2.875 -1.3125,-2.59375 -2.40625,-2.40625 0.125,0.65625 1.1875,1.21875 1.09375,2.5625 0.125,2.0625 -1.5,4.125 -1.9375,4.4375 -4.15625,7.46875 2.3125,-17.25 0.65625,-9.0625 -0.84375,-0.15625 -4.65625,31 -0.875,1.5625 -7.65625,14.40625 -9.78125,19.37499 -8.21875,16.8125 -4.5625,11.71875 -2.59375,-4.4375 1.625,-3.34375 8.9375,-17.15625 9.0625,-15.125 3.78125,-7.37499 3.125,-6.125 0.84375,-2.09375 0.1875,-2.03125 -0.375,-1.5625 -0.375,0 -0.28125,1.375 -1.5625,3.59375 -3.78125,6.375 -10.8125,16.62499 -6.15625,9.125 -4.21875,7.46875 2.59375,-25.71875 0.96875,-10.96874 0.40625,-23.1875 -0.0625,0 0.18755,-0.78125 0.59375,-1.4375 0.46875,-1.3125 0.5625,-0.96875 0,-1.90625 -0.1875,-2.40625 0.84375,-1.5625 -0.375,-2.28125 0,-1.71875 0.3125,-0.96875 0.65625,-2.15625 0.46875,-1.15625 -0.875,-1.4375 0.75,-1.4375 -1.1875,-0.84375 -0.71875,-2.15625 1.03125,-1.6875 -1.4375,-0.46875 -0.625,-1.125 0,-0.96875 -0.65625,-1.09375 -0.65625,-0.59375 0.0625,-0.90625 0,-1 -0.3125,-2.71875 -0.21875,-1.5625 -0.96875,-0.71875 -0.46875,-0.84375 -1.09375,-0.53125 -0.65625,-1.1875 0.125,-1.34375 -0.125,-1.375 -0.71875,-1.1875 -1.25,-0.25 -1.15625,-0.40625 -0.59375,-0.84375 -0.40625,-0.90625 -0.90625,0.59375 -0.375,1.15625 -0.1875,1.25 -0.59375,1.96875 -0.40625,-0.65625 0.1875,2.40625 -0.125,0.53125 0,0.90625 0.34375,0.71875 0.3125,0.96875 0.59375,0.78125 0.25,0.34375 0.1875,0.90625 -0.75,0.5625 0.3125,0.8125 -0.71875,0.90625 0.125,0.71875 0.1875,0.71875 0.59375,0.71875 0.53125,0.65625 0.71875,0.625 0.125,0.53125 -0.25,0.78125 -0.59375,0.53125 -0.28125,0.4375 0.0937,1.125 0.90625,0.59375 0.53125,0.5625 0.3125,1.125 -0.96875,1.15625 -0.15625,0.8125 0.40625,0.90625 0.59375,0.71875 0,0.71875 0.4375,0.5625 0.40625,0.46875 0.3125,0.53125 -0.1875,0.90625 0.59375,0.84375 0.53125,0.125 0.1875,0.40625 -0.1875,0.71875 0.5,1.03125 0.53125,0.40625 0.40625,0.84375 -0.40625,1.4375 0.59375,1.3125 0.5625,0.25 0.28125,0.59375 0.125,1.6875 -0.3125,0.71875 -0.28125,0.84375 0.84375,4.25 1.5,0.96875 -0.125,18.4375 -1.75,19.90624 -1.03125,11.53125 -1.6875,14 -0.65625,1.6875 -5.5625,-9.53125 -1.90625,-12.78125 -2.46875,-20.74999 -2.9375,-19.25 0.21875,17.5625 1.0313,14.53124 1.78125,13.84375 -12.40625,-19.65625 -17.8125,-26.71874 -4.09375,-5.6875 -0.34375,0 1.1875,3.40625 2.21875,5.53125 3.25,7.375 5.6875,12.1875 3.4375,6.12499 4.25,7.375 8.78125,13.90625 7.9375,12.625 1.21875,11.3125 3.78125,25.84375 -0.002,-0.0161 -4.37265,-13.57769 -9.25,-22.78125 -7.375,-15.3125 -9.78125,-15.90625 -4.96875,-6.53124 -3.96875,-3.96875 -6.46875,-6 2.6875,3.3125 4.34375,4.4375 2.5625,2.87499 1.6875,2.9375 2.03125,3.25 3.3125,5.6875 2.875,5.28125 2.9375,6.53125 3.59375,8.71875 7.03125,18.1875 7.375,19.1875 4.4375,13.5625 z m -12.9406,-12.88394 -1.2869,-3.44454 -2.375,-4.5 -5.1875,-9.90625 -7.3125,-13.1875 -5.15625,-8.46875 -4.78125,-7.3125 -2.59375,-3.59375 -2.15625,-2.15625 3.71875,7.0625 3.40625,7.90625 5.125,11.65625 2.25,5.15625 2.25393,6.7029 z m -30.8494,-52.56954 -0.0625,-0.125 -0.1875,-0.125 z m 78.46875,-23.53124 -1.25,5.21874 -5.65625,22.625 -2.75,12.84375 -2.875,15.53125 -3.1875,10.125 -1.125,-2.625 -7.25,-13.4375 2.4375,-5.65625 7.9375,-16.625 4.25,-8.9375 5.6875,-12 z m 7.03125,16.84374 -1.03125,6 -2.9375,9.96875 -2.9375,7.375 -3.25,9.59375 -1.71875,9.4375 -1.625,10.0332 5.875,-5.9707 0.25,-3.0625 0.65625,-5.3125 1.5625,-7.5 3.40625,-13.40625 1.5625,-9.9375 z m -42.0625,27.34375 2.375,3.96875 -0.5,9.25 -0.375,0.28125 z m 4,6.65625 1.375,2.28125 -1.0625,2.5 -0.78125,0.5625 z"
         id="path5380" />
      <path
         id="path5382"
         d="m 297.50037,539.11859 -3,3 22.53125,22.53125 -2.96875,2.96875 22.5,22.5 -3,3 38.46875,38.46875 38.5,-38.46875 -3,-3 22.5,-22.5 -2.96875,-2.96875 22.53125,-22.53125 -3,-3 -74.5625,74.53125 -74.53125,-74.53125 z"
         style="color:#000000;display:inline;overflow:visible;visibility:visible;fill:#000000;fill-opacity:1;stroke:none;stroke-width:0.82688445;marker:none;enable-background:accumulate"
         inkscape:connector-curvature="0" />
      <path
         id="path5384"
         d="m 372.03162,420.77484 -93.375,93.40625 93.375,93.40625 93.40625,-93.40625 -93.40625,-93.40625 z m 0,1.65625 91.75,91.75 -91.75,91.75 -91.75,-91.75 91.75,-91.75 z"
         style="color:#000000;display:inline;overflow:visible;visibility:visible;fill:#000000;fill-opacity:1;stroke:none;stroke-width:0.80000001;marker:none;enable-background:accumulate"
         inkscape:connector-curvature="0" />
      <g
         transform="translate(268.5353,413.93109)"
         id="g5386"
         style="display:inline">
        <path
           style="color:#000000;font-style:normal;font-variant:normal;font-weight:normal;font-stretch:normal;font-size:medium;line-height:normal;font-family:Sans;-inkscape-font-specification:Sans;text-indent:0;text-align:start;text-decoration:none;text-decoration-line:none;letter-spacing:normal;word-spacing:normal;text-transform:none;direction:ltr;block-progression:tb;writing-mode:lr-tb;baseline-shift:baseline;text-anchor:start;display:inline;overflow:visible;visibility:visible;fill:#000000;fill-opacity:1;stroke:none;stroke-width:1.25;marker:none;enable-background:accumulate"
           d="m 30.875,210.40625 0,1.25 60.3125,0 0,-1.25 -60.3125,0 z"
           id="path5388"
           inkscape:connector-curvature="0" />
        <path
           inkscape:connector-curvature="0"
           id="path5390"
           d="m 115.83638,210.40625 0,1.25 60.3125,0 0,-1.25 -60.3125,0 z"
           style="color:#000000;font-style:normal;font-variant:normal;font-weight:normal;font-stretch:normal;font-size:medium;line-height:normal;font-family:Sans;-inkscape-font-specification:Sans;text-indent:0;text-align:start;text-decoration:none;text-decoration-line:none;letter-spacing:normal;word-spacing:normal;text-transform:none;direction:ltr;block-progression:tb;writing-mode:lr-tb;baseline-shift:baseline;text-anchor:start;display:inline;overflow:visible;visibility:visible;fill:#000000;fill-opacity:1;stroke:none;stroke-width:1.25;marker:none;enable-background:accumulate" />
      </g>
    </g>
    <g
       style="display:none"
       inkscape:label="grayscale_opaque"
       id="g5392"
       transform="matrix(0.37476995,0,0,0.37476995,232.61522,307.09071)">
      <path
         id="path5394"
         d="m 367.81011,602.52854 4.21781,4.2809 1.43857,-1.54392 -2.57138,-19.15924 0.21875,-3.09375 1.3125,-4.625 1.375,-4.25 1.5,-3.34375 4.875,8.1875 4.75,8.65625 1.05469,5.08007 6.62885,-6.5039 3.34766,-25.16992 7.03125,-34.0625 4.53125,-23.12499 9.1875,-18.21875 1.375,-3.78125 0.5,-2.21875 0.1875,-3.59375 -0.5625,-2.875 -1.3125,-2.59375 -2.40625,-2.40625 0.125,0.65625 1.1875,1.21875 1.09375,2.5625 0.125,2.0625 -1.5,4.125 -1.9375,4.4375 -4.15625,7.46875 2.3125,-17.25 0.65625,-9.0625 -0.84375,-0.15625 -4.65625,31 -0.875,1.5625 -7.65625,14.40625 -9.78125,19.37499 -8.21875,16.8125 -4.5625,11.71875 -2.59375,-4.4375 1.625,-3.34375 8.9375,-17.15625 9.0625,-15.125 3.78125,-7.37499 3.125,-6.125 0.84375,-2.09375 0.1875,-2.03125 -0.375,-1.5625 -0.375,0 -0.28125,1.375 -1.5625,3.59375 -3.78125,6.375 -10.8125,16.62499 -6.15625,9.125 -4.21875,7.46875 2.59375,-25.71875 0.96875,-10.96874 0.40625,-23.1875 -0.0625,0 0.18755,-0.78125 0.59375,-1.4375 0.46875,-1.3125 0.5625,-0.96875 0,-1.90625 -0.1875,-2.40625 0.84375,-1.5625 -0.375,-2.28125 0,-1.71875 0.3125,-0.96875 0.65625,-2.15625 0.46875,-1.15625 -0.875,-1.4375 0.75,-1.4375 -1.1875,-0.84375 -0.71875,-2.15625 1.03125,-1.6875 -1.4375,-0.46875 -0.625,-1.125 0,-0.96875 -0.65625,-1.09375 -0.65625,-0.59375 0.0625,-0.90625 0,-1 -0.3125,-2.71875 -0.21875,-1.5625 -0.96875,-0.71875 -0.46875,-0.84375 -1.09375,-0.53125 -0.65625,-1.1875 0.125,-1.34375 -0.125,-1.375 -0.71875,-1.1875 -1.25,-0.25 -1.15625,-0.40625 -0.59375,-0.84375 -0.40625,-0.90625 -0.90625,0.59375 -0.375,1.15625 -0.1875,1.25 -0.59375,1.96875 -0.40625,-0.65625 0.1875,2.40625 -0.125,0.53125 0,0.90625 0.34375,0.71875 0.3125,0.96875 0.59375,0.78125 0.25,0.34375 0.1875,0.90625 -0.75,0.5625 0.3125,0.8125 -0.71875,0.90625 0.125,0.71875 0.1875,0.71875 0.59375,0.71875 0.53125,0.65625 0.71875,0.625 0.125,0.53125 -0.25,0.78125 -0.59375,0.53125 -0.28125,0.4375 0.0937,1.125 0.90625,0.59375 0.53125,0.5625 0.3125,1.125 -0.96875,1.15625 -0.15625,0.8125 0.40625,0.90625 0.59375,0.71875 0,0.71875 0.4375,0.5625 0.40625,0.46875 0.3125,0.53125 -0.1875,0.90625 0.59375,0.84375 0.53125,0.125 0.1875,0.40625 -0.1875,0.71875 0.5,1.03125 0.53125,0.40625 0.40625,0.84375 -0.40625,1.4375 0.59375,1.3125 0.5625,0.25 0.28125,0.59375 0.125,1.6875 -0.3125,0.71875 -0.28125,0.84375 0.84375,4.25 1.5,0.96875 -0.125,18.4375 -1.75,19.90624 -1.03125,11.53125 -1.6875,14 -0.65625,1.6875 -5.5625,-9.53125 -1.90625,-12.78125 -2.46875,-20.74999 -2.9375,-19.25 0.21875,17.5625 1.0313,14.53124 1.78125,13.84375 -12.40625,-19.65625 -17.8125,-26.71874 -4.09375,-5.6875 -0.34375,0 1.1875,3.40625 2.21875,5.53125 3.25,7.375 5.6875,12.1875 3.4375,6.12499 4.25,7.375 8.78125,13.90625 7.9375,12.625 1.21875,11.3125 3.78125,25.84375 -0.002,-0.0161 -4.37265,-13.57769 -9.25,-22.78125 -7.375,-15.3125 -9.78125,-15.90625 -4.96875,-6.53124 -3.96875,-3.96875 -6.46875,-6 2.6875,3.3125 4.34375,4.4375 2.5625,2.87499 1.6875,2.9375 2.03125,3.25 3.3125,5.6875 2.875,5.28125 2.9375,6.53125 3.59375,8.71875 7.03125,18.1875 7.375,19.1875 4.4375,13.5625 z m -12.9406,-12.88394 -1.2869,-3.44454 -2.375,-4.5 -5.1875,-9.90625 -7.3125,-13.1875 -5.15625,-8.46875 -4.78125,-7.3125 -2.59375,-3.59375 -2.15625,-2.15625 3.71875,7.0625 3.40625,7.90625 5.125,11.65625 2.25,5.15625 2.25393,6.7029 z m -30.8494,-52.56954 -0.0625,-0.125 -0.1875,-0.125 z m 78.46875,-23.53124 -1.25,5.21874 -5.65625,22.625 -2.75,12.84375 -2.875,15.53125 -3.1875,10.125 -1.125,-2.625 -7.25,-13.4375 2.4375,-5.65625 7.9375,-16.625 4.25,-8.9375 5.6875,-12 z m 7.03125,16.84374 -1.03125,6 -2.9375,9.96875 -2.9375,7.375 -3.25,9.59375 -1.71875,9.4375 -1.625,10.0332 5.875,-5.9707 0.25,-3.0625 0.65625,-5.3125 1.5625,-7.5 3.40625,-13.40625 1.5625,-9.9375 z m -42.0625,27.34375 2.375,3.96875 -0.5,9.25 -0.375,0.28125 z m 4,6.65625 1.375,2.28125 -1.0625,2.5 -0.78125,0.5625 z"
         style="display:inline;fill:#909090;fill-opacity:1;stroke:none"
         inkscape:connector-curvature="0"
         sodipodi:nodetypes="cccccccccccccccccccccccccccccccccccccccccccccccccccccccccccccccccccccccccccccccccccccccccccccccccccccccccccccccccccccccccccccccccccccccccccccccccccccccccccccccccccccccccccccccccccccccccccccccccccccccccccccccccccccccccccccccccccccccccccccccccccccccccccc" />
      <path
         inkscape:connector-curvature="0"
         style="color:#000000;display:inline;overflow:visible;visibility:visible;fill:#000000;fill-opacity:1;stroke:none;stroke-width:0.82688445;marker:none;enable-background:accumulate"
         d="m 297.50037,539.11859 -3,3 22.53125,22.53125 -2.96875,2.96875 22.5,22.5 -3,3 38.46875,38.46875 38.5,-38.46875 -3,-3 22.5,-22.5 -2.96875,-2.96875 22.53125,-22.53125 -3,-3 -74.5625,74.53125 -74.53125,-74.53125 z"
         id="path5396" />
      <path
         inkscape:connector-curvature="0"
         style="color:#000000;display:inline;overflow:visible;visibility:visible;fill:#000000;fill-opacity:1;stroke:none;stroke-width:0.80000001;marker:none;enable-background:accumulate"
         d="m 372.03162,420.77484 -93.375,93.40625 93.375,93.40625 93.40625,-93.40625 -93.40625,-93.40625 z m 0,1.65625 91.75,91.75 -91.75,91.75 -91.75,-91.75 91.75,-91.75 z"
         id="path5398" />
      <g
         style="display:inline"
         id="g5400"
         transform="translate(268.5353,413.93109)">
        <path
           inkscape:connector-curvature="0"
           id="path5402"
           d="m 30.875,210.40625 0,1.25 60.3125,0 0,-1.25 -60.3125,0 z"
           style="color:#000000;font-style:normal;font-variant:normal;font-weight:normal;font-stretch:normal;font-size:medium;line-height:normal;font-family:Sans;-inkscape-font-specification:Sans;text-indent:0;text-align:start;text-decoration:none;text-decoration-line:none;letter-spacing:normal;word-spacing:normal;text-transform:none;direction:ltr;block-progression:tb;writing-mode:lr-tb;baseline-shift:baseline;text-anchor:start;display:inline;overflow:visible;visibility:visible;fill:#000000;fill-opacity:1;stroke:none;stroke-width:1.25;marker:none;enable-background:accumulate" />
        <path
           style="color:#000000;font-style:normal;font-variant:normal;font-weight:normal;font-stretch:normal;font-size:medium;line-height:normal;font-family:Sans;-inkscape-font-specification:Sans;text-indent:0;text-align:start;text-decoration:none;text-decoration-line:none;letter-spacing:normal;word-spacing:normal;text-transform:none;direction:ltr;block-progression:tb;writing-mode:lr-tb;baseline-shift:baseline;text-anchor:start;display:inline;overflow:visible;visibility:visible;fill:#000000;fill-opacity:1;stroke:none;stroke-width:1.25;marker:none;enable-background:accumulate"
           d="m 115.83638,210.40625 0,1.25 60.3125,0 0,-1.25 -60.3125,0 z"
           id="path5404"
           inkscape:connector-curvature="0" />
      </g>
    </g>
    <g
       id="g5406"
       inkscape:label="grayscale_transparent"
       style="display:none"
       transform="matrix(0.37476995,0,0,0.37476995,232.61522,307.09071)">
      <path
         sodipodi:nodetypes="cccccccccccccccccccccccccccccccccccccccccccccccccccccccccccccccccccccccccccccccccccccccccccccccccccccccccccccccccccccccccccccccccccccccccccccccccccccccccccccccccccccccccccccccccccccccccccccccccccccccccccccccccccccccccccccccccccccccccccccccccccccccccccc"
         inkscape:connector-curvature="0"
         style="display:inline;fill:#000000;fill-opacity:0.44075832;stroke:none"
         d="m 367.81011,602.52854 4.21781,4.2809 1.43857,-1.54392 -2.57138,-19.15924 0.21875,-3.09375 1.3125,-4.625 1.375,-4.25 1.5,-3.34375 4.875,8.1875 4.75,8.65625 1.05469,5.08007 6.62885,-6.5039 3.34766,-25.16992 7.03125,-34.0625 4.53125,-23.12499 9.1875,-18.21875 1.375,-3.78125 0.5,-2.21875 0.1875,-3.59375 -0.5625,-2.875 -1.3125,-2.59375 -2.40625,-2.40625 0.125,0.65625 1.1875,1.21875 1.09375,2.5625 0.125,2.0625 -1.5,4.125 -1.9375,4.4375 -4.15625,7.46875 2.3125,-17.25 0.65625,-9.0625 -0.84375,-0.15625 -4.65625,31 -0.875,1.5625 -7.65625,14.40625 -9.78125,19.37499 -8.21875,16.8125 -4.5625,11.71875 -2.59375,-4.4375 1.625,-3.34375 8.9375,-17.15625 9.0625,-15.125 3.78125,-7.37499 3.125,-6.125 0.84375,-2.09375 0.1875,-2.03125 -0.375,-1.5625 -0.375,0 -0.28125,1.375 -1.5625,3.59375 -3.78125,6.375 -10.8125,16.62499 -6.15625,9.125 -4.21875,7.46875 2.59375,-25.71875 0.96875,-10.96874 0.40625,-23.1875 -0.0625,0 0.18755,-0.78125 0.59375,-1.4375 0.46875,-1.3125 0.5625,-0.96875 0,-1.90625 -0.1875,-2.40625 0.84375,-1.5625 -0.375,-2.28125 0,-1.71875 0.3125,-0.96875 0.65625,-2.15625 0.46875,-1.15625 -0.875,-1.4375 0.75,-1.4375 -1.1875,-0.84375 -0.71875,-2.15625 1.03125,-1.6875 -1.4375,-0.46875 -0.625,-1.125 0,-0.96875 -0.65625,-1.09375 -0.65625,-0.59375 0.0625,-0.90625 0,-1 -0.3125,-2.71875 -0.21875,-1.5625 -0.96875,-0.71875 -0.46875,-0.84375 -1.09375,-0.53125 -0.65625,-1.1875 0.125,-1.34375 -0.125,-1.375 -0.71875,-1.1875 -1.25,-0.25 -1.15625,-0.40625 -0.59375,-0.84375 -0.40625,-0.90625 -0.90625,0.59375 -0.375,1.15625 -0.1875,1.25 -0.59375,1.96875 -0.40625,-0.65625 0.1875,2.40625 -0.125,0.53125 0,0.90625 0.34375,0.71875 0.3125,0.96875 0.59375,0.78125 0.25,0.34375 0.1875,0.90625 -0.75,0.5625 0.3125,0.8125 -0.71875,0.90625 0.125,0.71875 0.1875,0.71875 0.59375,0.71875 0.53125,0.65625 0.71875,0.625 0.125,0.53125 -0.25,0.78125 -0.59375,0.53125 -0.28125,0.4375 0.0937,1.125 0.90625,0.59375 0.53125,0.5625 0.3125,1.125 -0.96875,1.15625 -0.15625,0.8125 0.40625,0.90625 0.59375,0.71875 0,0.71875 0.4375,0.5625 0.40625,0.46875 0.3125,0.53125 -0.1875,0.90625 0.59375,0.84375 0.53125,0.125 0.1875,0.40625 -0.1875,0.71875 0.5,1.03125 0.53125,0.40625 0.40625,0.84375 -0.40625,1.4375 0.59375,1.3125 0.5625,0.25 0.28125,0.59375 0.125,1.6875 -0.3125,0.71875 -0.28125,0.84375 0.84375,4.25 1.5,0.96875 -0.125,18.4375 -1.75,19.90624 -1.03125,11.53125 -1.6875,14 -0.65625,1.6875 -5.5625,-9.53125 -1.90625,-12.78125 -2.46875,-20.74999 -2.9375,-19.25 0.21875,17.5625 1.0313,14.53124 1.78125,13.84375 -12.40625,-19.65625 -17.8125,-26.71874 -4.09375,-5.6875 -0.34375,0 1.1875,3.40625 2.21875,5.53125 3.25,7.375 5.6875,12.1875 3.4375,6.12499 4.25,7.375 8.78125,13.90625 7.9375,12.625 1.21875,11.3125 3.78125,25.84375 -0.002,-0.0161 -4.37265,-13.57769 -9.25,-22.78125 -7.375,-15.3125 -9.78125,-15.90625 -4.96875,-6.53124 -3.96875,-3.96875 -6.46875,-6 2.6875,3.3125 4.34375,4.4375 2.5625,2.87499 1.6875,2.9375 2.03125,3.25 3.3125,5.6875 2.875,5.28125 2.9375,6.53125 3.59375,8.71875 7.03125,18.1875 7.375,19.1875 4.4375,13.5625 z m -12.9406,-12.88394 -1.2869,-3.44454 -2.375,-4.5 -5.1875,-9.90625 -7.3125,-13.1875 -5.15625,-8.46875 -4.78125,-7.3125 -2.59375,-3.59375 -2.15625,-2.15625 3.71875,7.0625 3.40625,7.90625 5.125,11.65625 2.25,5.15625 2.25393,6.7029 z m -30.8494,-52.56954 -0.0625,-0.125 -0.1875,-0.125 z m 78.46875,-23.53124 -1.25,5.21874 -5.65625,22.625 -2.75,12.84375 -2.875,15.53125 -3.1875,10.125 -1.125,-2.625 -7.25,-13.4375 2.4375,-5.65625 7.9375,-16.625 4.25,-8.9375 5.6875,-12 z m 7.03125,16.84374 -1.03125,6 -2.9375,9.96875 -2.9375,7.375 -3.25,9.59375 -1.71875,9.4375 -1.625,10.0332 5.875,-5.9707 0.25,-3.0625 0.65625,-5.3125 1.5625,-7.5 3.40625,-13.40625 1.5625,-9.9375 z m -42.0625,27.34375 2.375,3.96875 -0.5,9.25 -0.375,0.28125 z m 4,6.65625 1.375,2.28125 -1.0625,2.5 -0.78125,0.5625 z"
         id="path5408" />
      <path
         id="path5410"
         d="m 297.50037,539.11859 -3,3 22.53125,22.53125 -2.96875,2.96875 22.5,22.5 -3,3 38.46875,38.46875 38.5,-38.46875 -3,-3 22.5,-22.5 -2.96875,-2.96875 22.53125,-22.53125 -3,-3 -74.5625,74.53125 -74.53125,-74.53125 z"
         style="color:#000000;display:inline;overflow:visible;visibility:visible;fill:#000000;fill-opacity:1;stroke:none;stroke-width:0.82688445;marker:none;enable-background:accumulate"
         inkscape:connector-curvature="0" />
      <path
         id="path5412"
         d="m 372.03162,420.77484 -93.375,93.40625 93.375,93.40625 93.40625,-93.40625 -93.40625,-93.40625 z m 0,1.65625 91.75,91.75 -91.75,91.75 -91.75,-91.75 91.75,-91.75 z"
         style="color:#000000;display:inline;overflow:visible;visibility:visible;fill:#000000;fill-opacity:1;stroke:none;stroke-width:0.80000001;marker:none;enable-background:accumulate"
         inkscape:connector-curvature="0" />
      <g
         transform="translate(268.5353,413.93109)"
         id="g5414"
         style="display:inline">
        <path
           style="color:#000000;font-style:normal;font-variant:normal;font-weight:normal;font-stretch:normal;font-size:medium;line-height:normal;font-family:Sans;-inkscape-font-specification:Sans;text-indent:0;text-align:start;text-decoration:none;text-decoration-line:none;letter-spacing:normal;word-spacing:normal;text-transform:none;direction:ltr;block-progression:tb;writing-mode:lr-tb;baseline-shift:baseline;text-anchor:start;display:inline;overflow:visible;visibility:visible;fill:#000000;fill-opacity:1;stroke:none;stroke-width:1.25;marker:none;enable-background:accumulate"
           d="m 30.875,210.40625 0,1.25 60.3125,0 0,-1.25 -60.3125,0 z"
           id="path5416"
           inkscape:connector-curvature="0" />
        <path
           inkscape:connector-curvature="0"
           id="path5418"
           d="m 115.83638,210.40625 0,1.25 60.3125,0 0,-1.25 -60.3125,0 z"
           style="color:#000000;font-style:normal;font-variant:normal;font-weight:normal;font-stretch:normal;font-size:medium;line-height:normal;font-family:Sans;-inkscape-font-specification:Sans;text-indent:0;text-align:start;text-decoration:none;text-decoration-line:none;letter-spacing:normal;word-spacing:normal;text-transform:none;direction:ltr;block-progression:tb;writing-mode:lr-tb;baseline-shift:baseline;text-anchor:start;display:inline;overflow:visible;visibility:visible;fill:#000000;fill-opacity:1;stroke:none;stroke-width:1.25;marker:none;enable-background:accumulate" />
      </g>
    </g>
    <g
       id="g5420"
       inkscape:label="white_transparent"
       style="display:none"
       transform="matrix(0.37476995,0,0,0.37476995,232.61522,307.09071)">
      <rect
         style="color:#000000;display:inline;overflow:visible;visibility:visible;fill:#c6c6c6;fill-opacity:1;fill-rule:nonzero;stroke:none;stroke-width:0.125;marker:none;enable-background:accumulate"
         id="rect5422"
         width="679.30383"
         height="437.77356"
         x="32.395325"
         y="307.29431"
         rx="15.09564"
         ry="15.09564"
         sodipodi:insensitive="true" />
      <path
         sodipodi:nodetypes="cccccccccccccccccccccccccccccccccccccccccccccccccccccccccccccccccccccccccccccccccccccccccccccccccccccccccccccccccccccccccccccccccccccccccccccccccccccccccccccccccccccccccccccccccccccccccccccccccccccccccccccccccccccccccccccccccccccccccccccccccccccccccccc"
         inkscape:connector-curvature="0"
         style="display:inline;fill:#ffffff;fill-opacity:0.43668123;stroke:none"
         d="m 367.81011,602.52854 4.21781,4.2809 1.43857,-1.54392 -2.57138,-19.15924 0.21875,-3.09375 1.3125,-4.625 1.375,-4.25 1.5,-3.34375 4.875,8.1875 4.75,8.65625 1.05469,5.08007 6.62885,-6.5039 3.34766,-25.16992 7.03125,-34.0625 4.53125,-23.12499 9.1875,-18.21875 1.375,-3.78125 0.5,-2.21875 0.1875,-3.59375 -0.5625,-2.875 -1.3125,-2.59375 -2.40625,-2.40625 0.125,0.65625 1.1875,1.21875 1.09375,2.5625 0.125,2.0625 -1.5,4.125 -1.9375,4.4375 -4.15625,7.46875 2.3125,-17.25 0.65625,-9.0625 -0.84375,-0.15625 -4.65625,31 -0.875,1.5625 -7.65625,14.40625 -9.78125,19.37499 -8.21875,16.8125 -4.5625,11.71875 -2.59375,-4.4375 1.625,-3.34375 8.9375,-17.15625 9.0625,-15.125 3.78125,-7.37499 3.125,-6.125 0.84375,-2.09375 0.1875,-2.03125 -0.375,-1.5625 -0.375,0 -0.28125,1.375 -1.5625,3.59375 -3.78125,6.375 -10.8125,16.62499 -6.15625,9.125 -4.21875,7.46875 2.59375,-25.71875 0.96875,-10.96874 0.40625,-23.1875 -0.0625,0 0.18755,-0.78125 0.59375,-1.4375 0.46875,-1.3125 0.5625,-0.96875 0,-1.90625 -0.1875,-2.40625 0.84375,-1.5625 -0.375,-2.28125 0,-1.71875 0.3125,-0.96875 0.65625,-2.15625 0.46875,-1.15625 -0.875,-1.4375 0.75,-1.4375 -1.1875,-0.84375 -0.71875,-2.15625 1.03125,-1.6875 -1.4375,-0.46875 -0.625,-1.125 0,-0.96875 -0.65625,-1.09375 -0.65625,-0.59375 0.0625,-0.90625 0,-1 -0.3125,-2.71875 -0.21875,-1.5625 -0.96875,-0.71875 -0.46875,-0.84375 -1.09375,-0.53125 -0.65625,-1.1875 0.125,-1.34375 -0.125,-1.375 -0.71875,-1.1875 -1.25,-0.25 -1.15625,-0.40625 -0.59375,-0.84375 -0.40625,-0.90625 -0.90625,0.59375 -0.375,1.15625 -0.1875,1.25 -0.59375,1.96875 -0.40625,-0.65625 0.1875,2.40625 -0.125,0.53125 0,0.90625 0.34375,0.71875 0.3125,0.96875 0.59375,0.78125 0.25,0.34375 0.1875,0.90625 -0.75,0.5625 0.3125,0.8125 -0.71875,0.90625 0.125,0.71875 0.1875,0.71875 0.59375,0.71875 0.53125,0.65625 0.71875,0.625 0.125,0.53125 -0.25,0.78125 -0.59375,0.53125 -0.28125,0.4375 0.0937,1.125 0.90625,0.59375 0.53125,0.5625 0.3125,1.125 -0.96875,1.15625 -0.15625,0.8125 0.40625,0.90625 0.59375,0.71875 0,0.71875 0.4375,0.5625 0.40625,0.46875 0.3125,0.53125 -0.1875,0.90625 0.59375,0.84375 0.53125,0.125 0.1875,0.40625 -0.1875,0.71875 0.5,1.03125 0.53125,0.40625 0.40625,0.84375 -0.40625,1.4375 0.59375,1.3125 0.5625,0.25 0.28125,0.59375 0.125,1.6875 -0.3125,0.71875 -0.28125,0.84375 0.84375,4.25 1.5,0.96875 -0.125,18.4375 -1.75,19.90624 -1.03125,11.53125 -1.6875,14 -0.65625,1.6875 -5.5625,-9.53125 -1.90625,-12.78125 -2.46875,-20.74999 -2.9375,-19.25 0.21875,17.5625 1.0313,14.53124 1.78125,13.84375 -12.40625,-19.65625 -17.8125,-26.71874 -4.09375,-5.6875 -0.34375,0 1.1875,3.40625 2.21875,5.53125 3.25,7.375 5.6875,12.1875 3.4375,6.12499 4.25,7.375 8.78125,13.90625 7.9375,12.625 1.21875,11.3125 3.78125,25.84375 -0.002,-0.0161 -4.37265,-13.57769 -9.25,-22.78125 -7.375,-15.3125 -9.78125,-15.90625 -4.96875,-6.53124 -3.96875,-3.96875 -6.46875,-6 2.6875,3.3125 4.34375,4.4375 2.5625,2.87499 1.6875,2.9375 2.03125,3.25 3.3125,5.6875 2.875,5.28125 2.9375,6.53125 3.59375,8.71875 7.03125,18.1875 7.375,19.1875 4.4375,13.5625 z m -12.9406,-12.88394 -1.2869,-3.44454 -2.375,-4.5 -5.1875,-9.90625 -7.3125,-13.1875 -5.15625,-8.46875 -4.78125,-7.3125 -2.59375,-3.59375 -2.15625,-2.15625 3.71875,7.0625 3.40625,7.90625 5.125,11.65625 2.25,5.15625 2.25393,6.7029 z m -30.8494,-52.56954 -0.0625,-0.125 -0.1875,-0.125 z m 78.46875,-23.53124 -1.25,5.21874 -5.65625,22.625 -2.75,12.84375 -2.875,15.53125 -3.1875,10.125 -1.125,-2.625 -7.25,-13.4375 2.4375,-5.65625 7.9375,-16.625 4.25,-8.9375 5.6875,-12 z m 7.03125,16.84374 -1.03125,6 -2.9375,9.96875 -2.9375,7.375 -3.25,9.59375 -1.71875,9.4375 -1.625,10.0332 5.875,-5.9707 0.25,-3.0625 0.65625,-5.3125 1.5625,-7.5 3.40625,-13.40625 1.5625,-9.9375 z m -42.0625,27.34375 2.375,3.96875 -0.5,9.25 -0.375,0.28125 z m 4,6.65625 1.375,2.28125 -1.0625,2.5 -0.78125,0.5625 z"
         id="path5424" />
      <path
         id="path5426"
         d="m 297.50037,539.11859 -3,3 22.53125,22.53125 -2.96875,2.96875 22.5,22.5 -3,3 38.46875,38.46875 38.5,-38.46875 -3,-3 22.5,-22.5 -2.96875,-2.96875 22.53125,-22.53125 -3,-3 -74.5625,74.53125 -74.53125,-74.53125 z"
         style="color:#000000;display:inline;overflow:visible;visibility:visible;fill:#ffffff;fill-opacity:1;stroke:none;stroke-width:0.82688445;marker:none;enable-background:accumulate"
         inkscape:connector-curvature="0" />
      <path
         id="path5428"
         d="m 372.03162,420.77484 -93.375,93.40625 93.375,93.40625 93.40625,-93.40625 -93.40625,-93.40625 z m 0,1.65625 91.75,91.75 -91.75,91.75 -91.75,-91.75 91.75,-91.75 z"
         style="color:#000000;display:inline;overflow:visible;visibility:visible;fill:#ffffff;fill-opacity:1;stroke:none;stroke-width:0.80000001;marker:none;enable-background:accumulate"
         inkscape:connector-curvature="0" />
      <g
         transform="translate(268.5353,413.93109)"
         id="g5430"
         style="display:inline;fill:#ffffff;fill-opacity:1">
        <path
           style="color:#000000;font-style:normal;font-variant:normal;font-weight:normal;font-stretch:normal;font-size:medium;line-height:normal;font-family:Sans;-inkscape-font-specification:Sans;text-indent:0;text-align:start;text-decoration:none;text-decoration-line:none;letter-spacing:normal;word-spacing:normal;text-transform:none;direction:ltr;block-progression:tb;writing-mode:lr-tb;baseline-shift:baseline;text-anchor:start;display:inline;overflow:visible;visibility:visible;fill:#ffffff;fill-opacity:1;stroke:none;stroke-width:1.25;marker:none;enable-background:accumulate"
           d="m 30.875,210.40625 0,1.25 60.3125,0 0,-1.25 -60.3125,0 z"
           id="path5432"
           inkscape:connector-curvature="0" />
        <path
           inkscape:connector-curvature="0"
           id="path5434"
           d="m 115.83638,210.40625 0,1.25 60.3125,0 0,-1.25 -60.3125,0 z"
           style="color:#000000;font-style:normal;font-variant:normal;font-weight:normal;font-stretch:normal;font-size:medium;line-height:normal;font-family:Sans;-inkscape-font-specification:Sans;text-indent:0;text-align:start;text-decoration:none;text-decoration-line:none;letter-spacing:normal;word-spacing:normal;text-transform:none;direction:ltr;block-progression:tb;writing-mode:lr-tb;baseline-shift:baseline;text-anchor:start;display:inline;overflow:visible;visibility:visible;fill:#ffffff;fill-opacity:1;stroke:none;stroke-width:1.25;marker:none;enable-background:accumulate" />
      </g>
    </g>
    <g
       style="display:none"
       inkscape:label="white_opaque"
       id="g5436"
       transform="matrix(0.37476995,0,0,0.37476995,232.61522,307.09071)">
      <rect
         sodipodi:insensitive="true"
         ry="15.09564"
         rx="15.09564"
         y="307.29431"
         x="32.395325"
         height="437.77356"
         width="679.30383"
         id="rect5438"
         style="color:#000000;display:inline;overflow:visible;visibility:visible;fill:#c6c6c6;fill-opacity:1;fill-rule:nonzero;stroke:none;stroke-width:0.125;marker:none;enable-background:accumulate" />
      <path
         id="path5440"
         d="m 367.81011,602.52854 4.21781,4.2809 1.43857,-1.54392 -2.57138,-19.15924 0.21875,-3.09375 1.3125,-4.625 1.375,-4.25 1.5,-3.34375 4.875,8.1875 4.75,8.65625 1.05469,5.08007 6.62885,-6.5039 3.34766,-25.16992 7.03125,-34.0625 4.53125,-23.12499 9.1875,-18.21875 1.375,-3.78125 0.5,-2.21875 0.1875,-3.59375 -0.5625,-2.875 -1.3125,-2.59375 -2.40625,-2.40625 0.125,0.65625 1.1875,1.21875 1.09375,2.5625 0.125,2.0625 -1.5,4.125 -1.9375,4.4375 -4.15625,7.46875 2.3125,-17.25 0.65625,-9.0625 -0.84375,-0.15625 -4.65625,31 -0.875,1.5625 -7.65625,14.40625 -9.78125,19.37499 -8.21875,16.8125 -4.5625,11.71875 -2.59375,-4.4375 1.625,-3.34375 8.9375,-17.15625 9.0625,-15.125 3.78125,-7.37499 3.125,-6.125 0.84375,-2.09375 0.1875,-2.03125 -0.375,-1.5625 -0.375,0 -0.28125,1.375 -1.5625,3.59375 -3.78125,6.375 -10.8125,16.62499 -6.15625,9.125 -4.21875,7.46875 2.59375,-25.71875 0.96875,-10.96874 0.40625,-23.1875 -0.0625,0 0.18755,-0.78125 0.59375,-1.4375 0.46875,-1.3125 0.5625,-0.96875 0,-1.90625 -0.1875,-2.40625 0.84375,-1.5625 -0.375,-2.28125 0,-1.71875 0.3125,-0.96875 0.65625,-2.15625 0.46875,-1.15625 -0.875,-1.4375 0.75,-1.4375 -1.1875,-0.84375 -0.71875,-2.15625 1.03125,-1.6875 -1.4375,-0.46875 -0.625,-1.125 0,-0.96875 -0.65625,-1.09375 -0.65625,-0.59375 0.0625,-0.90625 0,-1 -0.3125,-2.71875 -0.21875,-1.5625 -0.96875,-0.71875 -0.46875,-0.84375 -1.09375,-0.53125 -0.65625,-1.1875 0.125,-1.34375 -0.125,-1.375 -0.71875,-1.1875 -1.25,-0.25 -1.15625,-0.40625 -0.59375,-0.84375 -0.40625,-0.90625 -0.90625,0.59375 -0.375,1.15625 -0.1875,1.25 -0.59375,1.96875 -0.40625,-0.65625 0.1875,2.40625 -0.125,0.53125 0,0.90625 0.34375,0.71875 0.3125,0.96875 0.59375,0.78125 0.25,0.34375 0.1875,0.90625 -0.75,0.5625 0.3125,0.8125 -0.71875,0.90625 0.125,0.71875 0.1875,0.71875 0.59375,0.71875 0.53125,0.65625 0.71875,0.625 0.125,0.53125 -0.25,0.78125 -0.59375,0.53125 -0.28125,0.4375 0.0937,1.125 0.90625,0.59375 0.53125,0.5625 0.3125,1.125 -0.96875,1.15625 -0.15625,0.8125 0.40625,0.90625 0.59375,0.71875 0,0.71875 0.4375,0.5625 0.40625,0.46875 0.3125,0.53125 -0.1875,0.90625 0.59375,0.84375 0.53125,0.125 0.1875,0.40625 -0.1875,0.71875 0.5,1.03125 0.53125,0.40625 0.40625,0.84375 -0.40625,1.4375 0.59375,1.3125 0.5625,0.25 0.28125,0.59375 0.125,1.6875 -0.3125,0.71875 -0.28125,0.84375 0.84375,4.25 1.5,0.96875 -0.125,18.4375 -1.75,19.90624 -1.03125,11.53125 -1.6875,14 -0.65625,1.6875 -5.5625,-9.53125 -1.90625,-12.78125 -2.46875,-20.74999 -2.9375,-19.25 0.21875,17.5625 1.0313,14.53124 1.78125,13.84375 -12.40625,-19.65625 -17.8125,-26.71874 -4.09375,-5.6875 -0.34375,0 1.1875,3.40625 2.21875,5.53125 3.25,7.375 5.6875,12.1875 3.4375,6.12499 4.25,7.375 8.78125,13.90625 7.9375,12.625 1.21875,11.3125 3.78125,25.84375 -0.002,-0.0161 -4.37265,-13.57769 -9.25,-22.78125 -7.375,-15.3125 -9.78125,-15.90625 -4.96875,-6.53124 -3.96875,-3.96875 -6.46875,-6 2.6875,3.3125 4.34375,4.4375 2.5625,2.87499 1.6875,2.9375 2.03125,3.25 3.3125,5.6875 2.875,5.28125 2.9375,6.53125 3.59375,8.71875 7.03125,18.1875 7.375,19.1875 4.4375,13.5625 z m -12.9406,-12.88394 -1.2869,-3.44454 -2.375,-4.5 -5.1875,-9.90625 -7.3125,-13.1875 -5.15625,-8.46875 -4.78125,-7.3125 -2.59375,-3.59375 -2.15625,-2.15625 3.71875,7.0625 3.40625,7.90625 5.125,11.65625 2.25,5.15625 2.25393,6.7029 z m -30.8494,-52.56954 -0.0625,-0.125 -0.1875,-0.125 z m 78.46875,-23.53124 -1.25,5.21874 -5.65625,22.625 -2.75,12.84375 -2.875,15.53125 -3.1875,10.125 -1.125,-2.625 -7.25,-13.4375 2.4375,-5.65625 7.9375,-16.625 4.25,-8.9375 5.6875,-12 z m 7.03125,16.84374 -1.03125,6 -2.9375,9.96875 -2.9375,7.375 -3.25,9.59375 -1.71875,9.4375 -1.625,10.0332 5.875,-5.9707 0.25,-3.0625 0.65625,-5.3125 1.5625,-7.5 3.40625,-13.40625 1.5625,-9.9375 z m -42.0625,27.34375 2.375,3.96875 -0.5,9.25 -0.375,0.28125 z m 4,6.65625 1.375,2.28125 -1.0625,2.5 -0.78125,0.5625 z"
         style="display:inline;fill:#ffffff;fill-opacity:1;stroke:none"
         inkscape:connector-curvature="0"
         sodipodi:nodetypes="cccccccccccccccccccccccccccccccccccccccccccccccccccccccccccccccccccccccccccccccccccccccccccccccccccccccccccccccccccccccccccccccccccccccccccccccccccccccccccccccccccccccccccccccccccccccccccccccccccccccccccccccccccccccccccccccccccccccccccccccccccccccccccc" />
      <path
         inkscape:connector-curvature="0"
         style="color:#000000;display:inline;overflow:visible;visibility:visible;fill:#ffffff;fill-opacity:1;stroke:none;stroke-width:0.82688445;marker:none;enable-background:accumulate"
         d="m 297.50037,539.11859 -3,3 22.53125,22.53125 -2.96875,2.96875 22.5,22.5 -3,3 38.46875,38.46875 38.5,-38.46875 -3,-3 22.5,-22.5 -2.96875,-2.96875 22.53125,-22.53125 -3,-3 -74.5625,74.53125 -74.53125,-74.53125 z"
         id="path5442" />
      <path
         inkscape:connector-curvature="0"
         style="color:#000000;display:inline;overflow:visible;visibility:visible;fill:#ffffff;fill-opacity:1;stroke:none;stroke-width:0.80000001;marker:none;enable-background:accumulate"
         d="m 372.03162,420.77484 -93.375,93.40625 93.375,93.40625 93.40625,-93.40625 -93.40625,-93.40625 z m 0,1.65625 91.75,91.75 -91.75,91.75 -91.75,-91.75 91.75,-91.75 z"
         id="path5444" />
      <g
         style="display:inline;fill:#ffffff;fill-opacity:1"
         id="g5446"
         transform="translate(268.5353,413.93109)">
        <path
           inkscape:connector-curvature="0"
           id="path5448"
           d="m 30.875,210.40625 0,1.25 60.3125,0 0,-1.25 -60.3125,0 z"
           style="color:#000000;font-style:normal;font-variant:normal;font-weight:normal;font-stretch:normal;font-size:medium;line-height:normal;font-family:Sans;-inkscape-font-specification:Sans;text-indent:0;text-align:start;text-decoration:none;text-decoration-line:none;letter-spacing:normal;word-spacing:normal;text-transform:none;direction:ltr;block-progression:tb;writing-mode:lr-tb;baseline-shift:baseline;text-anchor:start;display:inline;overflow:visible;visibility:visible;fill:#ffffff;fill-opacity:1;stroke:none;stroke-width:1.25;marker:none;enable-background:accumulate" />
        <path
           style="color:#000000;font-style:normal;font-variant:normal;font-weight:normal;font-stretch:normal;font-size:medium;line-height:normal;font-family:Sans;-inkscape-font-specification:Sans;text-indent:0;text-align:start;text-decoration:none;text-decoration-line:none;letter-spacing:normal;word-spacing:normal;text-transform:none;direction:ltr;block-progression:tb;writing-mode:lr-tb;baseline-shift:baseline;text-anchor:start;display:inline;overflow:visible;visibility:visible;fill:#ffffff;fill-opacity:1;stroke:none;stroke-width:1.25;marker:none;enable-background:accumulate"
           d="m 115.83638,210.40625 0,1.25 60.3125,0 0,-1.25 -60.3125,0 z"
           id="path5450"
           inkscape:connector-curvature="0" />
      </g>
    </g>
  </g>
  <g
     style="display:inline"
     id="g4560"
     inkscape:groupmode="layer"
     inkscape:label="logo (greyscale)"
     transform="translate(-336.10367,-450.47923)">
    <g
       id="g4562"
       transform="matrix(0.37476995,0,0,0.37476995,232.96627,307.09071)"
       inkscape:export-filename="/home/vincent/Documents/developpement/grass/grass_splash/logo_variant/graylogo_text_alphabg.png"
       inkscape:export-xdpi="600"
       inkscape:export-ydpi="600">
      <g
         style="display:inline"
         id="g4564"
         inkscape:label="color">
        <path
           sodipodi:nodetypes="cccccccccccccccccccccccccccccccccccccccccccccccccccccccccccccccccccccccccccccccccccccccccccccccccccccccccccccccccccccccccccccccccccccccccccccccccccccccccccccccccccccccccccccccccccccccccccccccccccccccccccccccccccccccccccccccccccccccccccccccccccccccccccc"
           inkscape:connector-curvature="0"
           style="display:inline;fill:#8f8f8f;fill-opacity:1;stroke:none"
           d="m 367.81011,602.52854 4.21781,4.2809 1.43857,-1.54392 -2.57138,-19.15924 0.21875,-3.09375 1.3125,-4.625 1.375,-4.25 1.5,-3.34375 4.875,8.1875 4.75,8.65625 1.05469,5.08007 6.62885,-6.5039 3.34766,-25.16992 7.03125,-34.0625 4.53125,-23.12499 9.1875,-18.21875 1.375,-3.78125 0.5,-2.21875 0.1875,-3.59375 -0.5625,-2.875 -1.3125,-2.59375 -2.40625,-2.40625 0.125,0.65625 1.1875,1.21875 1.09375,2.5625 0.125,2.0625 -1.5,4.125 -1.9375,4.4375 -4.15625,7.46875 2.3125,-17.25 0.65625,-9.0625 -0.84375,-0.15625 -4.65625,31 -0.875,1.5625 -7.65625,14.40625 -9.78125,19.37499 -8.21875,16.8125 -4.5625,11.71875 -2.59375,-4.4375 1.625,-3.34375 8.9375,-17.15625 9.0625,-15.125 3.78125,-7.37499 3.125,-6.125 0.84375,-2.09375 0.1875,-2.03125 -0.375,-1.5625 -0.375,0 -0.28125,1.375 -1.5625,3.59375 -3.78125,6.375 -10.8125,16.62499 -6.15625,9.125 -4.21875,7.46875 2.59375,-25.71875 0.96875,-10.96874 0.40625,-23.1875 -0.0625,0 0.18755,-0.78125 0.59375,-1.4375 0.46875,-1.3125 0.5625,-0.96875 0,-1.90625 -0.1875,-2.40625 0.84375,-1.5625 -0.375,-2.28125 0,-1.71875 0.3125,-0.96875 0.65625,-2.15625 0.46875,-1.15625 -0.875,-1.4375 0.75,-1.4375 -1.1875,-0.84375 -0.71875,-2.15625 1.03125,-1.6875 -1.4375,-0.46875 -0.625,-1.125 0,-0.96875 -0.65625,-1.09375 -0.65625,-0.59375 0.0625,-0.90625 0,-1 -0.3125,-2.71875 -0.21875,-1.5625 -0.96875,-0.71875 -0.46875,-0.84375 -1.09375,-0.53125 -0.65625,-1.1875 0.125,-1.34375 -0.125,-1.375 -0.71875,-1.1875 -1.25,-0.25 -1.15625,-0.40625 -0.59375,-0.84375 -0.40625,-0.90625 -0.90625,0.59375 -0.375,1.15625 -0.1875,1.25 -0.59375,1.96875 -0.40625,-0.65625 0.1875,2.40625 -0.125,0.53125 0,0.90625 0.34375,0.71875 0.3125,0.96875 0.59375,0.78125 0.25,0.34375 0.1875,0.90625 -0.75,0.5625 0.3125,0.8125 -0.71875,0.90625 0.125,0.71875 0.1875,0.71875 0.59375,0.71875 0.53125,0.65625 0.71875,0.625 0.125,0.53125 -0.25,0.78125 -0.59375,0.53125 -0.28125,0.4375 0.0937,1.125 0.90625,0.59375 0.53125,0.5625 0.3125,1.125 -0.96875,1.15625 -0.15625,0.8125 0.40625,0.90625 0.59375,0.71875 0,0.71875 0.4375,0.5625 0.40625,0.46875 0.3125,0.53125 -0.1875,0.90625 0.59375,0.84375 0.53125,0.125 0.1875,0.40625 -0.1875,0.71875 0.5,1.03125 0.53125,0.40625 0.40625,0.84375 -0.40625,1.4375 0.59375,1.3125 0.5625,0.25 0.28125,0.59375 0.125,1.6875 -0.3125,0.71875 -0.28125,0.84375 0.84375,4.25 1.5,0.96875 -0.125,18.4375 -1.75,19.90624 -1.03125,11.53125 -1.6875,14 -0.65625,1.6875 -5.5625,-9.53125 -1.90625,-12.78125 -2.46875,-20.74999 -2.9375,-19.25 0.21875,17.5625 1.0313,14.53124 1.78125,13.84375 -12.40625,-19.65625 -17.8125,-26.71874 -4.09375,-5.6875 -0.34375,0 1.1875,3.40625 2.21875,5.53125 3.25,7.375 5.6875,12.1875 3.4375,6.12499 4.25,7.375 8.78125,13.90625 7.9375,12.625 1.21875,11.3125 3.78125,25.84375 -0.002,-0.0161 -4.37265,-13.57769 -9.25,-22.78125 -7.375,-15.3125 -9.78125,-15.90625 -4.96875,-6.53124 -3.96875,-3.96875 -6.46875,-6 2.6875,3.3125 4.34375,4.4375 2.5625,2.87499 1.6875,2.9375 2.03125,3.25 3.3125,5.6875 2.875,5.28125 2.9375,6.53125 3.59375,8.71875 7.03125,18.1875 7.375,19.1875 4.4375,13.5625 z m -12.9406,-12.88394 -1.2869,-3.44454 -2.375,-4.5 -5.1875,-9.90625 -7.3125,-13.1875 -5.15625,-8.46875 -4.78125,-7.3125 -2.59375,-3.59375 -2.15625,-2.15625 3.71875,7.0625 3.40625,7.90625 5.125,11.65625 2.25,5.15625 2.25393,6.7029 z m -30.8494,-52.56954 -0.0625,-0.125 -0.1875,-0.125 z m 78.46875,-23.53124 -1.25,5.21874 -5.65625,22.625 -2.75,12.84375 -2.875,15.53125 -3.1875,10.125 -1.125,-2.625 -7.25,-13.4375 2.4375,-5.65625 7.9375,-16.625 4.25,-8.9375 5.6875,-12 z m 7.03125,16.84374 -1.03125,6 -2.9375,9.96875 -2.9375,7.375 -3.25,9.59375 -1.71875,9.4375 -1.625,10.0332 5.875,-5.9707 0.25,-3.0625 0.65625,-5.3125 1.5625,-7.5 3.40625,-13.40625 1.5625,-9.9375 z m -42.0625,27.34375 2.375,3.96875 -0.5,9.25 -0.375,0.28125 z m 4,6.65625 1.375,2.28125 -1.0625,2.5 -0.78125,0.5625 z"
           id="path4566" />
        <path
           id="path4568"
           d="m 297.50037,539.11859 -3,3 22.53125,22.53125 -2.96875,2.96875 22.5,22.5 -3,3 38.46875,38.46875 38.5,-38.46875 -3,-3 22.5,-22.5 -2.96875,-2.96875 22.53125,-22.53125 -3,-3 -74.5625,74.53125 -74.53125,-74.53125 z"
           style="color:#000000;display:inline;overflow:visible;visibility:visible;fill:#000000;fill-opacity:1;stroke:none;stroke-width:0.82688445;marker:none;enable-background:accumulate"
           inkscape:connector-curvature="0" />
        <path
           id="path4570"
           d="m 372.03162,420.77484 -93.375,93.40625 93.375,93.40625 93.40625,-93.40625 -93.40625,-93.40625 z m 0,1.65625 91.75,91.75 -91.75,91.75 -91.75,-91.75 91.75,-91.75 z"
           style="color:#000000;display:inline;overflow:visible;visibility:visible;fill:#000000;fill-opacity:1;stroke:none;stroke-width:0.80000001;marker:none;enable-background:accumulate"
           inkscape:connector-curvature="0" />
        <g
           transform="translate(268.5353,413.93109)"
           id="g4572"
           style="display:inline">
          <path
             style="color:#000000;font-style:normal;font-variant:normal;font-weight:normal;font-stretch:normal;font-size:medium;line-height:normal;font-family:Sans;-inkscape-font-specification:Sans;text-indent:0;text-align:start;text-decoration:none;text-decoration-line:none;letter-spacing:normal;word-spacing:normal;text-transform:none;direction:ltr;block-progression:tb;writing-mode:lr-tb;baseline-shift:baseline;text-anchor:start;display:inline;overflow:visible;visibility:visible;fill:#000000;fill-opacity:1;stroke:none;stroke-width:1.25;marker:none;enable-background:accumulate"
             d="m 30.875,210.40625 0,1.25 60.3125,0 0,-1.25 -60.3125,0 z"
             id="path4574"
             inkscape:connector-curvature="0" />
          <path
             inkscape:connector-curvature="0"
             id="path4576"
             d="m 115.83638,210.40625 0,1.25 60.3125,0 0,-1.25 -60.3125,0 z"
             style="color:#000000;font-style:normal;font-variant:normal;font-weight:normal;font-stretch:normal;font-size:medium;line-height:normal;font-family:Sans;-inkscape-font-specification:Sans;text-indent:0;text-align:start;text-decoration:none;text-decoration-line:none;letter-spacing:normal;word-spacing:normal;text-transform:none;direction:ltr;block-progression:tb;writing-mode:lr-tb;baseline-shift:baseline;text-anchor:start;display:inline;overflow:visible;visibility:visible;fill:#000000;fill-opacity:1;stroke:none;stroke-width:1.25;marker:none;enable-background:accumulate" />
        </g>
      </g>
      <g
         style="display:none"
         inkscape:label="grayscale_opaque"
         id="g4578">
        <path
           id="path4580"
           d="m 367.81011,602.52854 4.21781,4.2809 1.43857,-1.54392 -2.57138,-19.15924 0.21875,-3.09375 1.3125,-4.625 1.375,-4.25 1.5,-3.34375 4.875,8.1875 4.75,8.65625 1.05469,5.08007 6.62885,-6.5039 3.34766,-25.16992 7.03125,-34.0625 4.53125,-23.12499 9.1875,-18.21875 1.375,-3.78125 0.5,-2.21875 0.1875,-3.59375 -0.5625,-2.875 -1.3125,-2.59375 -2.40625,-2.40625 0.125,0.65625 1.1875,1.21875 1.09375,2.5625 0.125,2.0625 -1.5,4.125 -1.9375,4.4375 -4.15625,7.46875 2.3125,-17.25 0.65625,-9.0625 -0.84375,-0.15625 -4.65625,31 -0.875,1.5625 -7.65625,14.40625 -9.78125,19.37499 -8.21875,16.8125 -4.5625,11.71875 -2.59375,-4.4375 1.625,-3.34375 8.9375,-17.15625 9.0625,-15.125 3.78125,-7.37499 3.125,-6.125 0.84375,-2.09375 0.1875,-2.03125 -0.375,-1.5625 -0.375,0 -0.28125,1.375 -1.5625,3.59375 -3.78125,6.375 -10.8125,16.62499 -6.15625,9.125 -4.21875,7.46875 2.59375,-25.71875 0.96875,-10.96874 0.40625,-23.1875 -0.0625,0 0.18755,-0.78125 0.59375,-1.4375 0.46875,-1.3125 0.5625,-0.96875 0,-1.90625 -0.1875,-2.40625 0.84375,-1.5625 -0.375,-2.28125 0,-1.71875 0.3125,-0.96875 0.65625,-2.15625 0.46875,-1.15625 -0.875,-1.4375 0.75,-1.4375 -1.1875,-0.84375 -0.71875,-2.15625 1.03125,-1.6875 -1.4375,-0.46875 -0.625,-1.125 0,-0.96875 -0.65625,-1.09375 -0.65625,-0.59375 0.0625,-0.90625 0,-1 -0.3125,-2.71875 -0.21875,-1.5625 -0.96875,-0.71875 -0.46875,-0.84375 -1.09375,-0.53125 -0.65625,-1.1875 0.125,-1.34375 -0.125,-1.375 -0.71875,-1.1875 -1.25,-0.25 -1.15625,-0.40625 -0.59375,-0.84375 -0.40625,-0.90625 -0.90625,0.59375 -0.375,1.15625 -0.1875,1.25 -0.59375,1.96875 -0.40625,-0.65625 0.1875,2.40625 -0.125,0.53125 0,0.90625 0.34375,0.71875 0.3125,0.96875 0.59375,0.78125 0.25,0.34375 0.1875,0.90625 -0.75,0.5625 0.3125,0.8125 -0.71875,0.90625 0.125,0.71875 0.1875,0.71875 0.59375,0.71875 0.53125,0.65625 0.71875,0.625 0.125,0.53125 -0.25,0.78125 -0.59375,0.53125 -0.28125,0.4375 0.0937,1.125 0.90625,0.59375 0.53125,0.5625 0.3125,1.125 -0.96875,1.15625 -0.15625,0.8125 0.40625,0.90625 0.59375,0.71875 0,0.71875 0.4375,0.5625 0.40625,0.46875 0.3125,0.53125 -0.1875,0.90625 0.59375,0.84375 0.53125,0.125 0.1875,0.40625 -0.1875,0.71875 0.5,1.03125 0.53125,0.40625 0.40625,0.84375 -0.40625,1.4375 0.59375,1.3125 0.5625,0.25 0.28125,0.59375 0.125,1.6875 -0.3125,0.71875 -0.28125,0.84375 0.84375,4.25 1.5,0.96875 -0.125,18.4375 -1.75,19.90624 -1.03125,11.53125 -1.6875,14 -0.65625,1.6875 -5.5625,-9.53125 -1.90625,-12.78125 -2.46875,-20.74999 -2.9375,-19.25 0.21875,17.5625 1.0313,14.53124 1.78125,13.84375 -12.40625,-19.65625 -17.8125,-26.71874 -4.09375,-5.6875 -0.34375,0 1.1875,3.40625 2.21875,5.53125 3.25,7.375 5.6875,12.1875 3.4375,6.12499 4.25,7.375 8.78125,13.90625 7.9375,12.625 1.21875,11.3125 3.78125,25.84375 -0.002,-0.0161 -4.37265,-13.57769 -9.25,-22.78125 -7.375,-15.3125 -9.78125,-15.90625 -4.96875,-6.53124 -3.96875,-3.96875 -6.46875,-6 2.6875,3.3125 4.34375,4.4375 2.5625,2.87499 1.6875,2.9375 2.03125,3.25 3.3125,5.6875 2.875,5.28125 2.9375,6.53125 3.59375,8.71875 7.03125,18.1875 7.375,19.1875 4.4375,13.5625 z m -12.9406,-12.88394 -1.2869,-3.44454 -2.375,-4.5 -5.1875,-9.90625 -7.3125,-13.1875 -5.15625,-8.46875 -4.78125,-7.3125 -2.59375,-3.59375 -2.15625,-2.15625 3.71875,7.0625 3.40625,7.90625 5.125,11.65625 2.25,5.15625 2.25393,6.7029 z m -30.8494,-52.56954 -0.0625,-0.125 -0.1875,-0.125 z m 78.46875,-23.53124 -1.25,5.21874 -5.65625,22.625 -2.75,12.84375 -2.875,15.53125 -3.1875,10.125 -1.125,-2.625 -7.25,-13.4375 2.4375,-5.65625 7.9375,-16.625 4.25,-8.9375 5.6875,-12 z m 7.03125,16.84374 -1.03125,6 -2.9375,9.96875 -2.9375,7.375 -3.25,9.59375 -1.71875,9.4375 -1.625,10.0332 5.875,-5.9707 0.25,-3.0625 0.65625,-5.3125 1.5625,-7.5 3.40625,-13.40625 1.5625,-9.9375 z m -42.0625,27.34375 2.375,3.96875 -0.5,9.25 -0.375,0.28125 z m 4,6.65625 1.375,2.28125 -1.0625,2.5 -0.78125,0.5625 z"
           style="display:inline;fill:#909090;fill-opacity:1;stroke:none"
           inkscape:connector-curvature="0"
           sodipodi:nodetypes="cccccccccccccccccccccccccccccccccccccccccccccccccccccccccccccccccccccccccccccccccccccccccccccccccccccccccccccccccccccccccccccccccccccccccccccccccccccccccccccccccccccccccccccccccccccccccccccccccccccccccccccccccccccccccccccccccccccccccccccccccccccccccccc" />
        <path
           inkscape:connector-curvature="0"
           style="color:#000000;display:inline;overflow:visible;visibility:visible;fill:#000000;fill-opacity:1;stroke:none;stroke-width:0.82688445;marker:none;enable-background:accumulate"
           d="m 297.50037,539.11859 -3,3 22.53125,22.53125 -2.96875,2.96875 22.5,22.5 -3,3 38.46875,38.46875 38.5,-38.46875 -3,-3 22.5,-22.5 -2.96875,-2.96875 22.53125,-22.53125 -3,-3 -74.5625,74.53125 -74.53125,-74.53125 z"
           id="path4582" />
        <path
           inkscape:connector-curvature="0"
           style="color:#000000;display:inline;overflow:visible;visibility:visible;fill:#000000;fill-opacity:1;stroke:none;stroke-width:0.80000001;marker:none;enable-background:accumulate"
           d="m 372.03162,420.77484 -93.375,93.40625 93.375,93.40625 93.40625,-93.40625 -93.40625,-93.40625 z m 0,1.65625 91.75,91.75 -91.75,91.75 -91.75,-91.75 91.75,-91.75 z"
           id="path4584" />
        <g
           style="display:inline"
           id="g4586"
           transform="translate(268.5353,413.93109)">
          <path
             inkscape:connector-curvature="0"
             id="path4588"
             d="m 30.875,210.40625 0,1.25 60.3125,0 0,-1.25 -60.3125,0 z"
             style="color:#000000;font-style:normal;font-variant:normal;font-weight:normal;font-stretch:normal;font-size:medium;line-height:normal;font-family:Sans;-inkscape-font-specification:Sans;text-indent:0;text-align:start;text-decoration:none;text-decoration-line:none;letter-spacing:normal;word-spacing:normal;text-transform:none;direction:ltr;block-progression:tb;writing-mode:lr-tb;baseline-shift:baseline;text-anchor:start;display:inline;overflow:visible;visibility:visible;fill:#000000;fill-opacity:1;stroke:none;stroke-width:1.25;marker:none;enable-background:accumulate" />
          <path
             style="color:#000000;font-style:normal;font-variant:normal;font-weight:normal;font-stretch:normal;font-size:medium;line-height:normal;font-family:Sans;-inkscape-font-specification:Sans;text-indent:0;text-align:start;text-decoration:none;text-decoration-line:none;letter-spacing:normal;word-spacing:normal;text-transform:none;direction:ltr;block-progression:tb;writing-mode:lr-tb;baseline-shift:baseline;text-anchor:start;display:inline;overflow:visible;visibility:visible;fill:#000000;fill-opacity:1;stroke:none;stroke-width:1.25;marker:none;enable-background:accumulate"
             d="m 115.83638,210.40625 0,1.25 60.3125,0 0,-1.25 -60.3125,0 z"
             id="path4590"
             inkscape:connector-curvature="0" />
        </g>
      </g>
      <g
         id="g4592"
         inkscape:label="grayscale_transparent"
         style="display:none">
        <path
           sodipodi:nodetypes="cccccccccccccccccccccccccccccccccccccccccccccccccccccccccccccccccccccccccccccccccccccccccccccccccccccccccccccccccccccccccccccccccccccccccccccccccccccccccccccccccccccccccccccccccccccccccccccccccccccccccccccccccccccccccccccccccccccccccccccccccccccccccccc"
           inkscape:connector-curvature="0"
           style="display:inline;fill:#000000;fill-opacity:0.44075832;stroke:none"
           d="m 367.81011,602.52854 4.21781,4.2809 1.43857,-1.54392 -2.57138,-19.15924 0.21875,-3.09375 1.3125,-4.625 1.375,-4.25 1.5,-3.34375 4.875,8.1875 4.75,8.65625 1.05469,5.08007 6.62885,-6.5039 3.34766,-25.16992 7.03125,-34.0625 4.53125,-23.12499 9.1875,-18.21875 1.375,-3.78125 0.5,-2.21875 0.1875,-3.59375 -0.5625,-2.875 -1.3125,-2.59375 -2.40625,-2.40625 0.125,0.65625 1.1875,1.21875 1.09375,2.5625 0.125,2.0625 -1.5,4.125 -1.9375,4.4375 -4.15625,7.46875 2.3125,-17.25 0.65625,-9.0625 -0.84375,-0.15625 -4.65625,31 -0.875,1.5625 -7.65625,14.40625 -9.78125,19.37499 -8.21875,16.8125 -4.5625,11.71875 -2.59375,-4.4375 1.625,-3.34375 8.9375,-17.15625 9.0625,-15.125 3.78125,-7.37499 3.125,-6.125 0.84375,-2.09375 0.1875,-2.03125 -0.375,-1.5625 -0.375,0 -0.28125,1.375 -1.5625,3.59375 -3.78125,6.375 -10.8125,16.62499 -6.15625,9.125 -4.21875,7.46875 2.59375,-25.71875 0.96875,-10.96874 0.40625,-23.1875 -0.0625,0 0.18755,-0.78125 0.59375,-1.4375 0.46875,-1.3125 0.5625,-0.96875 0,-1.90625 -0.1875,-2.40625 0.84375,-1.5625 -0.375,-2.28125 0,-1.71875 0.3125,-0.96875 0.65625,-2.15625 0.46875,-1.15625 -0.875,-1.4375 0.75,-1.4375 -1.1875,-0.84375 -0.71875,-2.15625 1.03125,-1.6875 -1.4375,-0.46875 -0.625,-1.125 0,-0.96875 -0.65625,-1.09375 -0.65625,-0.59375 0.0625,-0.90625 0,-1 -0.3125,-2.71875 -0.21875,-1.5625 -0.96875,-0.71875 -0.46875,-0.84375 -1.09375,-0.53125 -0.65625,-1.1875 0.125,-1.34375 -0.125,-1.375 -0.71875,-1.1875 -1.25,-0.25 -1.15625,-0.40625 -0.59375,-0.84375 -0.40625,-0.90625 -0.90625,0.59375 -0.375,1.15625 -0.1875,1.25 -0.59375,1.96875 -0.40625,-0.65625 0.1875,2.40625 -0.125,0.53125 0,0.90625 0.34375,0.71875 0.3125,0.96875 0.59375,0.78125 0.25,0.34375 0.1875,0.90625 -0.75,0.5625 0.3125,0.8125 -0.71875,0.90625 0.125,0.71875 0.1875,0.71875 0.59375,0.71875 0.53125,0.65625 0.71875,0.625 0.125,0.53125 -0.25,0.78125 -0.59375,0.53125 -0.28125,0.4375 0.0937,1.125 0.90625,0.59375 0.53125,0.5625 0.3125,1.125 -0.96875,1.15625 -0.15625,0.8125 0.40625,0.90625 0.59375,0.71875 0,0.71875 0.4375,0.5625 0.40625,0.46875 0.3125,0.53125 -0.1875,0.90625 0.59375,0.84375 0.53125,0.125 0.1875,0.40625 -0.1875,0.71875 0.5,1.03125 0.53125,0.40625 0.40625,0.84375 -0.40625,1.4375 0.59375,1.3125 0.5625,0.25 0.28125,0.59375 0.125,1.6875 -0.3125,0.71875 -0.28125,0.84375 0.84375,4.25 1.5,0.96875 -0.125,18.4375 -1.75,19.90624 -1.03125,11.53125 -1.6875,14 -0.65625,1.6875 -5.5625,-9.53125 -1.90625,-12.78125 -2.46875,-20.74999 -2.9375,-19.25 0.21875,17.5625 1.0313,14.53124 1.78125,13.84375 -12.40625,-19.65625 -17.8125,-26.71874 -4.09375,-5.6875 -0.34375,0 1.1875,3.40625 2.21875,5.53125 3.25,7.375 5.6875,12.1875 3.4375,6.12499 4.25,7.375 8.78125,13.90625 7.9375,12.625 1.21875,11.3125 3.78125,25.84375 -0.002,-0.0161 -4.37265,-13.57769 -9.25,-22.78125 -7.375,-15.3125 -9.78125,-15.90625 -4.96875,-6.53124 -3.96875,-3.96875 -6.46875,-6 2.6875,3.3125 4.34375,4.4375 2.5625,2.87499 1.6875,2.9375 2.03125,3.25 3.3125,5.6875 2.875,5.28125 2.9375,6.53125 3.59375,8.71875 7.03125,18.1875 7.375,19.1875 4.4375,13.5625 z m -12.9406,-12.88394 -1.2869,-3.44454 -2.375,-4.5 -5.1875,-9.90625 -7.3125,-13.1875 -5.15625,-8.46875 -4.78125,-7.3125 -2.59375,-3.59375 -2.15625,-2.15625 3.71875,7.0625 3.40625,7.90625 5.125,11.65625 2.25,5.15625 2.25393,6.7029 z m -30.8494,-52.56954 -0.0625,-0.125 -0.1875,-0.125 z m 78.46875,-23.53124 -1.25,5.21874 -5.65625,22.625 -2.75,12.84375 -2.875,15.53125 -3.1875,10.125 -1.125,-2.625 -7.25,-13.4375 2.4375,-5.65625 7.9375,-16.625 4.25,-8.9375 5.6875,-12 z m 7.03125,16.84374 -1.03125,6 -2.9375,9.96875 -2.9375,7.375 -3.25,9.59375 -1.71875,9.4375 -1.625,10.0332 5.875,-5.9707 0.25,-3.0625 0.65625,-5.3125 1.5625,-7.5 3.40625,-13.40625 1.5625,-9.9375 z m -42.0625,27.34375 2.375,3.96875 -0.5,9.25 -0.375,0.28125 z m 4,6.65625 1.375,2.28125 -1.0625,2.5 -0.78125,0.5625 z"
           id="path4594" />
        <path
           id="path4596"
           d="m 297.50037,539.11859 -3,3 22.53125,22.53125 -2.96875,2.96875 22.5,22.5 -3,3 38.46875,38.46875 38.5,-38.46875 -3,-3 22.5,-22.5 -2.96875,-2.96875 22.53125,-22.53125 -3,-3 -74.5625,74.53125 -74.53125,-74.53125 z"
           style="color:#000000;display:inline;overflow:visible;visibility:visible;fill:#000000;fill-opacity:1;stroke:none;stroke-width:0.82688445;marker:none;enable-background:accumulate"
           inkscape:connector-curvature="0" />
        <path
           id="path4598"
           d="m 372.03162,420.77484 -93.375,93.40625 93.375,93.40625 93.40625,-93.40625 -93.40625,-93.40625 z m 0,1.65625 91.75,91.75 -91.75,91.75 -91.75,-91.75 91.75,-91.75 z"
           style="color:#000000;display:inline;overflow:visible;visibility:visible;fill:#000000;fill-opacity:1;stroke:none;stroke-width:0.80000001;marker:none;enable-background:accumulate"
           inkscape:connector-curvature="0" />
        <g
           transform="translate(268.5353,413.93109)"
           id="g4600"
           style="display:inline">
          <path
             style="color:#000000;font-style:normal;font-variant:normal;font-weight:normal;font-stretch:normal;font-size:medium;line-height:normal;font-family:Sans;-inkscape-font-specification:Sans;text-indent:0;text-align:start;text-decoration:none;text-decoration-line:none;letter-spacing:normal;word-spacing:normal;text-transform:none;direction:ltr;block-progression:tb;writing-mode:lr-tb;baseline-shift:baseline;text-anchor:start;display:inline;overflow:visible;visibility:visible;fill:#000000;fill-opacity:1;stroke:none;stroke-width:1.25;marker:none;enable-background:accumulate"
             d="m 30.875,210.40625 0,1.25 60.3125,0 0,-1.25 -60.3125,0 z"
             id="path4602"
             inkscape:connector-curvature="0" />
          <path
             inkscape:connector-curvature="0"
             id="path4604"
             d="m 115.83638,210.40625 0,1.25 60.3125,0 0,-1.25 -60.3125,0 z"
             style="color:#000000;font-style:normal;font-variant:normal;font-weight:normal;font-stretch:normal;font-size:medium;line-height:normal;font-family:Sans;-inkscape-font-specification:Sans;text-indent:0;text-align:start;text-decoration:none;text-decoration-line:none;letter-spacing:normal;word-spacing:normal;text-transform:none;direction:ltr;block-progression:tb;writing-mode:lr-tb;baseline-shift:baseline;text-anchor:start;display:inline;overflow:visible;visibility:visible;fill:#000000;fill-opacity:1;stroke:none;stroke-width:1.25;marker:none;enable-background:accumulate" />
        </g>
      </g>
      <g
         id="g4606"
         inkscape:label="white_transparent"
         style="display:none">
        <rect
           style="color:#000000;display:inline;overflow:visible;visibility:visible;fill:#c6c6c6;fill-opacity:1;fill-rule:nonzero;stroke:none;stroke-width:0.125;marker:none;enable-background:accumulate"
           id="rect4608"
           width="679.30383"
           height="437.77356"
           x="32.395325"
           y="307.29431"
           rx="15.09564"
           ry="15.09564"
           sodipodi:insensitive="true" />
        <path
           sodipodi:nodetypes="cccccccccccccccccccccccccccccccccccccccccccccccccccccccccccccccccccccccccccccccccccccccccccccccccccccccccccccccccccccccccccccccccccccccccccccccccccccccccccccccccccccccccccccccccccccccccccccccccccccccccccccccccccccccccccccccccccccccccccccccccccccccccccc"
           inkscape:connector-curvature="0"
           style="display:inline;fill:#ffffff;fill-opacity:0.43668123;stroke:none"
           d="m 367.81011,602.52854 4.21781,4.2809 1.43857,-1.54392 -2.57138,-19.15924 0.21875,-3.09375 1.3125,-4.625 1.375,-4.25 1.5,-3.34375 4.875,8.1875 4.75,8.65625 1.05469,5.08007 6.62885,-6.5039 3.34766,-25.16992 7.03125,-34.0625 4.53125,-23.12499 9.1875,-18.21875 1.375,-3.78125 0.5,-2.21875 0.1875,-3.59375 -0.5625,-2.875 -1.3125,-2.59375 -2.40625,-2.40625 0.125,0.65625 1.1875,1.21875 1.09375,2.5625 0.125,2.0625 -1.5,4.125 -1.9375,4.4375 -4.15625,7.46875 2.3125,-17.25 0.65625,-9.0625 -0.84375,-0.15625 -4.65625,31 -0.875,1.5625 -7.65625,14.40625 -9.78125,19.37499 -8.21875,16.8125 -4.5625,11.71875 -2.59375,-4.4375 1.625,-3.34375 8.9375,-17.15625 9.0625,-15.125 3.78125,-7.37499 3.125,-6.125 0.84375,-2.09375 0.1875,-2.03125 -0.375,-1.5625 -0.375,0 -0.28125,1.375 -1.5625,3.59375 -3.78125,6.375 -10.8125,16.62499 -6.15625,9.125 -4.21875,7.46875 2.59375,-25.71875 0.96875,-10.96874 0.40625,-23.1875 -0.0625,0 0.18755,-0.78125 0.59375,-1.4375 0.46875,-1.3125 0.5625,-0.96875 0,-1.90625 -0.1875,-2.40625 0.84375,-1.5625 -0.375,-2.28125 0,-1.71875 0.3125,-0.96875 0.65625,-2.15625 0.46875,-1.15625 -0.875,-1.4375 0.75,-1.4375 -1.1875,-0.84375 -0.71875,-2.15625 1.03125,-1.6875 -1.4375,-0.46875 -0.625,-1.125 0,-0.96875 -0.65625,-1.09375 -0.65625,-0.59375 0.0625,-0.90625 0,-1 -0.3125,-2.71875 -0.21875,-1.5625 -0.96875,-0.71875 -0.46875,-0.84375 -1.09375,-0.53125 -0.65625,-1.1875 0.125,-1.34375 -0.125,-1.375 -0.71875,-1.1875 -1.25,-0.25 -1.15625,-0.40625 -0.59375,-0.84375 -0.40625,-0.90625 -0.90625,0.59375 -0.375,1.15625 -0.1875,1.25 -0.59375,1.96875 -0.40625,-0.65625 0.1875,2.40625 -0.125,0.53125 0,0.90625 0.34375,0.71875 0.3125,0.96875 0.59375,0.78125 0.25,0.34375 0.1875,0.90625 -0.75,0.5625 0.3125,0.8125 -0.71875,0.90625 0.125,0.71875 0.1875,0.71875 0.59375,0.71875 0.53125,0.65625 0.71875,0.625 0.125,0.53125 -0.25,0.78125 -0.59375,0.53125 -0.28125,0.4375 0.0937,1.125 0.90625,0.59375 0.53125,0.5625 0.3125,1.125 -0.96875,1.15625 -0.15625,0.8125 0.40625,0.90625 0.59375,0.71875 0,0.71875 0.4375,0.5625 0.40625,0.46875 0.3125,0.53125 -0.1875,0.90625 0.59375,0.84375 0.53125,0.125 0.1875,0.40625 -0.1875,0.71875 0.5,1.03125 0.53125,0.40625 0.40625,0.84375 -0.40625,1.4375 0.59375,1.3125 0.5625,0.25 0.28125,0.59375 0.125,1.6875 -0.3125,0.71875 -0.28125,0.84375 0.84375,4.25 1.5,0.96875 -0.125,18.4375 -1.75,19.90624 -1.03125,11.53125 -1.6875,14 -0.65625,1.6875 -5.5625,-9.53125 -1.90625,-12.78125 -2.46875,-20.74999 -2.9375,-19.25 0.21875,17.5625 1.0313,14.53124 1.78125,13.84375 -12.40625,-19.65625 -17.8125,-26.71874 -4.09375,-5.6875 -0.34375,0 1.1875,3.40625 2.21875,5.53125 3.25,7.375 5.6875,12.1875 3.4375,6.12499 4.25,7.375 8.78125,13.90625 7.9375,12.625 1.21875,11.3125 3.78125,25.84375 -0.002,-0.0161 -4.37265,-13.57769 -9.25,-22.78125 -7.375,-15.3125 -9.78125,-15.90625 -4.96875,-6.53124 -3.96875,-3.96875 -6.46875,-6 2.6875,3.3125 4.34375,4.4375 2.5625,2.87499 1.6875,2.9375 2.03125,3.25 3.3125,5.6875 2.875,5.28125 2.9375,6.53125 3.59375,8.71875 7.03125,18.1875 7.375,19.1875 4.4375,13.5625 z m -12.9406,-12.88394 -1.2869,-3.44454 -2.375,-4.5 -5.1875,-9.90625 -7.3125,-13.1875 -5.15625,-8.46875 -4.78125,-7.3125 -2.59375,-3.59375 -2.15625,-2.15625 3.71875,7.0625 3.40625,7.90625 5.125,11.65625 2.25,5.15625 2.25393,6.7029 z m -30.8494,-52.56954 -0.0625,-0.125 -0.1875,-0.125 z m 78.46875,-23.53124 -1.25,5.21874 -5.65625,22.625 -2.75,12.84375 -2.875,15.53125 -3.1875,10.125 -1.125,-2.625 -7.25,-13.4375 2.4375,-5.65625 7.9375,-16.625 4.25,-8.9375 5.6875,-12 z m 7.03125,16.84374 -1.03125,6 -2.9375,9.96875 -2.9375,7.375 -3.25,9.59375 -1.71875,9.4375 -1.625,10.0332 5.875,-5.9707 0.25,-3.0625 0.65625,-5.3125 1.5625,-7.5 3.40625,-13.40625 1.5625,-9.9375 z m -42.0625,27.34375 2.375,3.96875 -0.5,9.25 -0.375,0.28125 z m 4,6.65625 1.375,2.28125 -1.0625,2.5 -0.78125,0.5625 z"
           id="path4610" />
        <path
           id="path4612"
           d="m 297.50037,539.11859 -3,3 22.53125,22.53125 -2.96875,2.96875 22.5,22.5 -3,3 38.46875,38.46875 38.5,-38.46875 -3,-3 22.5,-22.5 -2.96875,-2.96875 22.53125,-22.53125 -3,-3 -74.5625,74.53125 -74.53125,-74.53125 z"
           style="color:#000000;display:inline;overflow:visible;visibility:visible;fill:#ffffff;fill-opacity:1;stroke:none;stroke-width:0.82688445;marker:none;enable-background:accumulate"
           inkscape:connector-curvature="0" />
        <path
           id="path4614"
           d="m 372.03162,420.77484 -93.375,93.40625 93.375,93.40625 93.40625,-93.40625 -93.40625,-93.40625 z m 0,1.65625 91.75,91.75 -91.75,91.75 -91.75,-91.75 91.75,-91.75 z"
           style="color:#000000;display:inline;overflow:visible;visibility:visible;fill:#ffffff;fill-opacity:1;stroke:none;stroke-width:0.80000001;marker:none;enable-background:accumulate"
           inkscape:connector-curvature="0" />
        <g
           transform="translate(268.5353,413.93109)"
           id="g4616"
           style="display:inline;fill:#ffffff;fill-opacity:1">
          <path
             style="color:#000000;font-style:normal;font-variant:normal;font-weight:normal;font-stretch:normal;font-size:medium;line-height:normal;font-family:Sans;-inkscape-font-specification:Sans;text-indent:0;text-align:start;text-decoration:none;text-decoration-line:none;letter-spacing:normal;word-spacing:normal;text-transform:none;direction:ltr;block-progression:tb;writing-mode:lr-tb;baseline-shift:baseline;text-anchor:start;display:inline;overflow:visible;visibility:visible;fill:#ffffff;fill-opacity:1;stroke:none;stroke-width:1.25;marker:none;enable-background:accumulate"
             d="m 30.875,210.40625 0,1.25 60.3125,0 0,-1.25 -60.3125,0 z"
             id="path4618"
             inkscape:connector-curvature="0" />
          <path
             inkscape:connector-curvature="0"
             id="path4620"
             d="m 115.83638,210.40625 0,1.25 60.3125,0 0,-1.25 -60.3125,0 z"
             style="color:#000000;font-style:normal;font-variant:normal;font-weight:normal;font-stretch:normal;font-size:medium;line-height:normal;font-family:Sans;-inkscape-font-specification:Sans;text-indent:0;text-align:start;text-decoration:none;text-decoration-line:none;letter-spacing:normal;word-spacing:normal;text-transform:none;direction:ltr;block-progression:tb;writing-mode:lr-tb;baseline-shift:baseline;text-anchor:start;display:inline;overflow:visible;visibility:visible;fill:#ffffff;fill-opacity:1;stroke:none;stroke-width:1.25;marker:none;enable-background:accumulate" />
        </g>
      </g>
      <g
         style="display:none"
         inkscape:label="white_opaque"
         id="g4622">
        <rect
           sodipodi:insensitive="true"
           ry="15.09564"
           rx="15.09564"
           y="307.29431"
           x="32.395325"
           height="437.77356"
           width="679.30383"
           id="rect4624"
           style="color:#000000;display:inline;overflow:visible;visibility:visible;fill:#c6c6c6;fill-opacity:1;fill-rule:nonzero;stroke:none;stroke-width:0.125;marker:none;enable-background:accumulate" />
        <path
           id="path4626"
           d="m 367.81011,602.52854 4.21781,4.2809 1.43857,-1.54392 -2.57138,-19.15924 0.21875,-3.09375 1.3125,-4.625 1.375,-4.25 1.5,-3.34375 4.875,8.1875 4.75,8.65625 1.05469,5.08007 6.62885,-6.5039 3.34766,-25.16992 7.03125,-34.0625 4.53125,-23.12499 9.1875,-18.21875 1.375,-3.78125 0.5,-2.21875 0.1875,-3.59375 -0.5625,-2.875 -1.3125,-2.59375 -2.40625,-2.40625 0.125,0.65625 1.1875,1.21875 1.09375,2.5625 0.125,2.0625 -1.5,4.125 -1.9375,4.4375 -4.15625,7.46875 2.3125,-17.25 0.65625,-9.0625 -0.84375,-0.15625 -4.65625,31 -0.875,1.5625 -7.65625,14.40625 -9.78125,19.37499 -8.21875,16.8125 -4.5625,11.71875 -2.59375,-4.4375 1.625,-3.34375 8.9375,-17.15625 9.0625,-15.125 3.78125,-7.37499 3.125,-6.125 0.84375,-2.09375 0.1875,-2.03125 -0.375,-1.5625 -0.375,0 -0.28125,1.375 -1.5625,3.59375 -3.78125,6.375 -10.8125,16.62499 -6.15625,9.125 -4.21875,7.46875 2.59375,-25.71875 0.96875,-10.96874 0.40625,-23.1875 -0.0625,0 0.18755,-0.78125 0.59375,-1.4375 0.46875,-1.3125 0.5625,-0.96875 0,-1.90625 -0.1875,-2.40625 0.84375,-1.5625 -0.375,-2.28125 0,-1.71875 0.3125,-0.96875 0.65625,-2.15625 0.46875,-1.15625 -0.875,-1.4375 0.75,-1.4375 -1.1875,-0.84375 -0.71875,-2.15625 1.03125,-1.6875 -1.4375,-0.46875 -0.625,-1.125 0,-0.96875 -0.65625,-1.09375 -0.65625,-0.59375 0.0625,-0.90625 0,-1 -0.3125,-2.71875 -0.21875,-1.5625 -0.96875,-0.71875 -0.46875,-0.84375 -1.09375,-0.53125 -0.65625,-1.1875 0.125,-1.34375 -0.125,-1.375 -0.71875,-1.1875 -1.25,-0.25 -1.15625,-0.40625 -0.59375,-0.84375 -0.40625,-0.90625 -0.90625,0.59375 -0.375,1.15625 -0.1875,1.25 -0.59375,1.96875 -0.40625,-0.65625 0.1875,2.40625 -0.125,0.53125 0,0.90625 0.34375,0.71875 0.3125,0.96875 0.59375,0.78125 0.25,0.34375 0.1875,0.90625 -0.75,0.5625 0.3125,0.8125 -0.71875,0.90625 0.125,0.71875 0.1875,0.71875 0.59375,0.71875 0.53125,0.65625 0.71875,0.625 0.125,0.53125 -0.25,0.78125 -0.59375,0.53125 -0.28125,0.4375 0.0937,1.125 0.90625,0.59375 0.53125,0.5625 0.3125,1.125 -0.96875,1.15625 -0.15625,0.8125 0.40625,0.90625 0.59375,0.71875 0,0.71875 0.4375,0.5625 0.40625,0.46875 0.3125,0.53125 -0.1875,0.90625 0.59375,0.84375 0.53125,0.125 0.1875,0.40625 -0.1875,0.71875 0.5,1.03125 0.53125,0.40625 0.40625,0.84375 -0.40625,1.4375 0.59375,1.3125 0.5625,0.25 0.28125,0.59375 0.125,1.6875 -0.3125,0.71875 -0.28125,0.84375 0.84375,4.25 1.5,0.96875 -0.125,18.4375 -1.75,19.90624 -1.03125,11.53125 -1.6875,14 -0.65625,1.6875 -5.5625,-9.53125 -1.90625,-12.78125 -2.46875,-20.74999 -2.9375,-19.25 0.21875,17.5625 1.0313,14.53124 1.78125,13.84375 -12.40625,-19.65625 -17.8125,-26.71874 -4.09375,-5.6875 -0.34375,0 1.1875,3.40625 2.21875,5.53125 3.25,7.375 5.6875,12.1875 3.4375,6.12499 4.25,7.375 8.78125,13.90625 7.9375,12.625 1.21875,11.3125 3.78125,25.84375 -0.002,-0.0161 -4.37265,-13.57769 -9.25,-22.78125 -7.375,-15.3125 -9.78125,-15.90625 -4.96875,-6.53124 -3.96875,-3.96875 -6.46875,-6 2.6875,3.3125 4.34375,4.4375 2.5625,2.87499 1.6875,2.9375 2.03125,3.25 3.3125,5.6875 2.875,5.28125 2.9375,6.53125 3.59375,8.71875 7.03125,18.1875 7.375,19.1875 4.4375,13.5625 z m -12.9406,-12.88394 -1.2869,-3.44454 -2.375,-4.5 -5.1875,-9.90625 -7.3125,-13.1875 -5.15625,-8.46875 -4.78125,-7.3125 -2.59375,-3.59375 -2.15625,-2.15625 3.71875,7.0625 3.40625,7.90625 5.125,11.65625 2.25,5.15625 2.25393,6.7029 z m -30.8494,-52.56954 -0.0625,-0.125 -0.1875,-0.125 z m 78.46875,-23.53124 -1.25,5.21874 -5.65625,22.625 -2.75,12.84375 -2.875,15.53125 -3.1875,10.125 -1.125,-2.625 -7.25,-13.4375 2.4375,-5.65625 7.9375,-16.625 4.25,-8.9375 5.6875,-12 z m 7.03125,16.84374 -1.03125,6 -2.9375,9.96875 -2.9375,7.375 -3.25,9.59375 -1.71875,9.4375 -1.625,10.0332 5.875,-5.9707 0.25,-3.0625 0.65625,-5.3125 1.5625,-7.5 3.40625,-13.40625 1.5625,-9.9375 z m -42.0625,27.34375 2.375,3.96875 -0.5,9.25 -0.375,0.28125 z m 4,6.65625 1.375,2.28125 -1.0625,2.5 -0.78125,0.5625 z"
           style="display:inline;fill:#ffffff;fill-opacity:1;stroke:none"
           inkscape:connector-curvature="0"
           sodipodi:nodetypes="cccccccccccccccccccccccccccccccccccccccccccccccccccccccccccccccccccccccccccccccccccccccccccccccccccccccccccccccccccccccccccccccccccccccccccccccccccccccccccccccccccccccccccccccccccccccccccccccccccccccccccccccccccccccccccccccccccccccccccccccccccccccccccc" />
        <path
           inkscape:connector-curvature="0"
           style="color:#000000;display:inline;overflow:visible;visibility:visible;fill:#ffffff;fill-opacity:1;stroke:none;stroke-width:0.82688445;marker:none;enable-background:accumulate"
           d="m 297.50037,539.11859 -3,3 22.53125,22.53125 -2.96875,2.96875 22.5,22.5 -3,3 38.46875,38.46875 38.5,-38.46875 -3,-3 22.5,-22.5 -2.96875,-2.96875 22.53125,-22.53125 -3,-3 -74.5625,74.53125 -74.53125,-74.53125 z"
           id="path4628" />
        <path
           inkscape:connector-curvature="0"
           style="color:#000000;display:inline;overflow:visible;visibility:visible;fill:#ffffff;fill-opacity:1;stroke:none;stroke-width:0.80000001;marker:none;enable-background:accumulate"
           d="m 372.03162,420.77484 -93.375,93.40625 93.375,93.40625 93.40625,-93.40625 -93.40625,-93.40625 z m 0,1.65625 91.75,91.75 -91.75,91.75 -91.75,-91.75 91.75,-91.75 z"
           id="path4630" />
        <g
           style="display:inline;fill:#ffffff;fill-opacity:1"
           id="g4632"
           transform="translate(268.5353,413.93109)">
          <path
             inkscape:connector-curvature="0"
             id="path4634"
             d="m 30.875,210.40625 0,1.25 60.3125,0 0,-1.25 -60.3125,0 z"
             style="color:#000000;font-style:normal;font-variant:normal;font-weight:normal;font-stretch:normal;font-size:medium;line-height:normal;font-family:Sans;-inkscape-font-specification:Sans;text-indent:0;text-align:start;text-decoration:none;text-decoration-line:none;letter-spacing:normal;word-spacing:normal;text-transform:none;direction:ltr;block-progression:tb;writing-mode:lr-tb;baseline-shift:baseline;text-anchor:start;display:inline;overflow:visible;visibility:visible;fill:#ffffff;fill-opacity:1;stroke:none;stroke-width:1.25;marker:none;enable-background:accumulate" />
          <path
             style="color:#000000;font-style:normal;font-variant:normal;font-weight:normal;font-stretch:normal;font-size:medium;line-height:normal;font-family:Sans;-inkscape-font-specification:Sans;text-indent:0;text-align:start;text-decoration:none;text-decoration-line:none;letter-spacing:normal;word-spacing:normal;text-transform:none;direction:ltr;block-progression:tb;writing-mode:lr-tb;baseline-shift:baseline;text-anchor:start;display:inline;overflow:visible;visibility:visible;fill:#ffffff;fill-opacity:1;stroke:none;stroke-width:1.25;marker:none;enable-background:accumulate"
             d="m 115.83638,210.40625 0,1.25 60.3125,0 0,-1.25 -60.3125,0 z"
             id="path4636"
             inkscape:connector-curvature="0" />
        </g>
      </g>
    </g>
  </g>
</svg>
