<?xml version="1.0" encoding="UTF-8" standalone="no"?>
<!-- Created with Inkscape (http://www.inkscape.org/) -->

<svg
   xmlns:dc="http://purl.org/dc/elements/1.1/"
   xmlns:cc="http://creativecommons.org/ns#"
   xmlns:rdf="http://www.w3.org/1999/02/22-rdf-syntax-ns#"
   xmlns:svg="http://www.w3.org/2000/svg"
   xmlns="http://www.w3.org/2000/svg"
   xmlns:sodipodi="http://sodipodi.sourceforge.net/DTD/sodipodi-0.dtd"
   xmlns:inkscape="http://www.inkscape.org/namespaces/inkscape"
   width="3in"
   height="1in"
   viewBox="0 0 76.200004 25.4"
   version="1.1"
   id="svg898"
   inkscape:version="0.92.5 (2060ec1f9f, 2020-04-08)"
   sodipodi:docname="powered_by_grass_gis.svg"
   inkscape:export-filename="powered_by_grass_gis.png"
   inkscape:export-xdpi="800"
   inkscape:export-ydpi="800">
  <defs
     id="defs892" />
  <sodipodi:namedview
     id="base"
     pagecolor="#ffffff"
     bordercolor="#666666"
     borderopacity="1.0"
     inkscape:pageopacity="1"
     inkscape:pageshadow="2"
     inkscape:zoom="2.8"
     inkscape:cx="95.726051"
     inkscape:cy="-7.1411819"
     inkscape:document-units="mm"
     inkscape:current-layer="layer1"
     showgrid="false"
     fit-margin-top="2"
     fit-margin-left="2"
     fit-margin-right="2"
     fit-margin-bottom="2"
     inkscape:window-width="1920"
     inkscape:window-height="1016"
     inkscape:window-x="0"
     inkscape:window-y="27"
     inkscape:window-maximized="1"
     units="in" />
  <metadata
     id="metadata895">
    <rdf:RDF>
      <cc:Work
         rdf:about="">
        <dc:format>image/svg+xml</dc:format>
        <dc:type
           rdf:resource="http://purl.org/dc/dcmitype/StillImage" />
        <dc:title></dc:title>
      </cc:Work>
    </rdf:RDF>
  </metadata>
  <g
     inkscape:label="Layer 1"
     inkscape:groupmode="layer"
     id="layer1"
     transform="translate(-10.316624,-8.5950946)">
    <path
       style="display:inline;fill:#088b36;fill-opacity:1;stroke-width:0.79800618"
       inkscape:connector-curvature="0"
       class="cls-1"
       d="m 21.193836,28.869435 0.422943,0.430908 0.151711,-0.15955 -0.263304,-1.931173 v -0.311198 l 0.127581,-0.470842 0.143567,-0.430907 0.151706,-0.335177 0.494763,0.797996 0.478802,0.869837 0.103751,0.518706 0.670326,-0.662331 0.335146,-2.537676 0.710229,-3.447385 0.462847,-2.330169 0.925697,-1.843402 0.135727,-0.383044 0.0558,-0.223491 V 16.06144 l -0.0558,-0.295273 -0.135727,-0.263304 -0.239477,-0.239477 v 0.06394 l 0.11974,0.12758 0.10375,0.255464 v 0.207507 l -0.151711,0.414952 -0.199662,0.454855 -0.414983,0.750132 0.231334,-1.739649 0.06394,-0.917704 h -0.07993 l -0.470811,3.136155 -0.08777,0.151711 -0.797995,1.460358 -0.989552,1.95512 -0.797996,1.699745 -0.462846,1.181036 -0.263304,-0.446864 0.167693,-0.335175 0.90175,-1.73965 0.917705,-1.524176 0.38304,-0.742169 0.311234,-0.622432 0.08777,-0.207506 v -0.207508 -0.15955 0 0.135723 l -0.159549,0.367089 -0.375053,0.646378 -1.09327,1.675825 -0.622458,0.925671 -0.430908,0.750129 0.263304,-2.593531 0.09561,-1.109225 0.04795,-2.346125 v 0 -0.07993 l 0.06394,-0.143568 0.04795,-0.12758 0.0558,-0.10375 v -0.175533 -0.239482 l 0.08777,-0.15955 v -0.231333 -0.175538 -0.09591 l 0.07178,-0.215346 v -0.119741 l -0.08777,-0.143567 0.07993,-0.143564 -0.119736,-0.08777 -0.07178,-0.215347 0.10375,-0.175537 -0.143567,-0.04796 -0.06394,-0.111589 v -0.09591 l -0.07178,-0.1116 -0.06394,-0.0558 v -0.199368 -0.271447 -0.15955 l -0.09561,-0.07178 -0.04796,-0.08777 -0.111589,-0.04795 -0.06394,-0.119742 v -0.27929 l -0.07178,-0.119737 h -0.12758 -0.11974 l -0.0558,-0.08777 v -0.08777 l -0.09591,0.0558 v 0.11974 0.127581 l -0.06394,0.199663 -0.03982,-0.07178 v 0.24732 0.0558 0.08777 0.07178 0.09561 l 0.06394,0.07993 v 0.03982 0.08777 l -0.07178,0.0558 v 0.08777 l -0.07178,0.08777 v 0.07178 0.07178 l 0.0558,0.07178 0.0558,0.07178 0.07178,0.0558 v 0.0558 0.07993 l -0.06394,0.0558 v 0 0.11974 l 0.08777,0.0558 0.0558,0.0558 v 0.1116 l -0.09561,0.119736 v 0.07992 0.09591 l 0.0558,0.07178 v 0.08777 l 0.04796,0.0558 0.03982,0.04796 v 0.0558 0.08777 l 0.0558,0.08777 h 0.0558 v 0 0.07178 l 0.04796,0.10375 0.0558,0.03982 v 0.08777 0.143563 l 0.0558,0.135723 h 0.0558 v 0.0558 0.175533 0.07178 0.07993 l 0.08777,0.430907 0.151706,0.09561 v 1.86735 l -0.175533,2.010974 -0.10375,1.165084 L 21.5127,23.387 21.44092,23.554693 20.882307,22.59709 20.690787,21.304331 20.435323,19.205559 20.140049,17.266425 v 1.771539 l 0.103751,1.468322 0.18368,1.396508 -1.252881,-1.987028 -1.8035,-2.697257 -0.414955,-0.574565 v 0 l 0.11974,0.343142 0.223489,0.558607 0.327186,0.750133 0.574565,1.228935 0.351136,0.614467 0.430908,0.750097 0.885793,1.404504 0.797996,1.276798 0.12758,1.141169 0.375049,2.609485 v 0 l -0.438841,-1.372497 -0.933657,-2.306222 -0.742168,-1.540163 -0.989521,-1.595993 -0.502749,-0.65437 -0.399,-0.406991 -0.65437,-0.606476 0.271451,0.335149 0.43893,0.446895 0.255464,0.295273 0.175533,0.295274 0.199364,0.327185 0.33515,0.574564 0.295273,0.534662 0.295274,0.662334 0.359097,0.877802 0.710229,1.835407 0.750129,1.939165 0.446894,1.372591 z m -1.30874,-1.300749 -0.127581,-0.351133 -0.239477,-0.454854 -0.526669,-0.997512 -0.734177,-1.332657 -0.526696,-0.853887 -0.478807,-0.742136 -0.263304,-0.359097 -0.215347,-0.223491 0.37508,0.718191 0.343141,0.797995 0.518705,1.173076 0.223491,0.526701 0.231333,0.670327 z m -3.112209,-5.314735 z m 7.924195,-2.394019 -0.127581,0.526696 -0.566573,2.290266 -0.279291,1.292785 -0.295274,1.595992 -0.31922,1.021459 -0.1116,-0.263304 -0.734145,-1.356603 0.24732,-0.574565 0.797996,-1.67583 0.430908,-0.901749 0.574564,-1.212948 z m 0.710228,1.707736 -0.10375,0.606508 -0.295278,1.005471 -0.295273,0.742138 -0.335177,0.973564 -0.167698,0.949645 -0.167693,1.013462 0.590551,-0.606471 v -0.303269 l 0.06394,-0.542626 0.159551,-0.798023 0.343173,-1.348613 0.159549,-1.005503 z m -4.245416,2.761108 0.239477,0.398996 -0.0558,0.933661 v 0 z m 0.399031,0.670326 0.143563,0.231335 -0.111589,0.255459 -0.07993,0.0558 z"
       id="path455" />
    <polygon
       transform="matrix(0.79800624,0,0,0.79800624,-813.18551,-21.62839)"
       points="1041.24,62.09 1046.12,66.96 1050.99,62.09 1050.61,61.71 1053.46,58.86 1053.08,58.49 1055.93,55.63 1055.55,55.26 1046.12,64.69 1036.68,55.26 1036.3,55.63 1039.15,58.49 1038.78,58.86 1041.63,61.71 "
       id="polygon457"
       style="display:inline;fill:#000000;fill-opacity:1" />
    <path
       inkscape:connector-curvature="0"
       d="m 21.616779,10.507318 -9.432446,9.432421 9.432446,9.440411 9.440412,-9.440411 z m 0,0.167693 9.288795,9.264848 -9.272839,9.272834 -9.264842,-9.272834 z"
       id="path459"
       style="display:inline;fill:#000000;fill-opacity:1;stroke-width:0.79800618" />
    <rect
       x="14.283065"
       y="31.071957"
       width="6.0967674"
       height="0.127681"
       id="rect461"
       style="display:inline;fill:#000000;fill-opacity:1;stroke-width:0.79800618" />
    <rect
       x="22.869627"
       y="31.071957"
       width="61.80558"
       height="0.127681"
       id="rect463"
       style="display:inline;fill:#000000;fill-opacity:1;stroke-width:0.77343112" />
    <rect
       x="14.283065"
       y="11.17764"
       width="6.0967674"
       height="0.127681"
       id="rect487"
       style="display:inline;fill:#000000;fill-opacity:1;stroke-width:0.79800618" />
    <rect
       x="22.869627"
       y="11.17764"
       width="61.80558"
       height="0.127681"
       id="rect489"
       style="display:inline;fill:#000000;fill-opacity:1;stroke-width:0.77343112" />
    <text
       xml:space="preserve"
       style="font-style:normal;font-variant:normal;font-weight:normal;font-stretch:normal;font-size:31.92024803px;line-height:1.25;font-family:'Fira Sans';-inkscape-font-specification:'Fira Sans';letter-spacing:0px;word-spacing:0px;display:inline;fill:#000000;fill-opacity:1;stroke:none;stroke-width:0.79800618"
       x="30.505754"
       y="29.485807"
       id="text4672"><tspan
         sodipodi:role="line"
         id="tspan4670"
         x="30.505754"
         y="29.485807"
         style="font-size:11.70409107px;stroke-width:0.79800618"><tspan
   style="font-style:normal;font-variant:normal;font-weight:500;font-stretch:normal;font-size:11.70409107px;font-family:'Fira Sans';-inkscape-font-specification:'Fira Sans Medium';stroke-width:0.79800618"
   id="tspan4676">GRASS</tspan> <tspan
   style="font-style:normal;font-variant:normal;font-weight:300;font-stretch:normal;font-size:11.70409107px;font-family:'Fira Sans';-inkscape-font-specification:'Fira Sans Light';stroke-width:0.79800618"
   id="tspan4674">GIS</tspan></tspan></text>
    <text
       xml:space="preserve"
       style="font-style:normal;font-weight:normal;font-size:31.92024803px;line-height:1.25;font-family:sans-serif;letter-spacing:0px;word-spacing:0px;display:inline;fill:#000000;fill-opacity:1;stroke:none;stroke-width:0.79800618"
       x="51.649849"
       y="17.22624"
       id="text4680"><tspan
         sodipodi:role="line"
         id="tspan4678"
         x="51.649849"
         y="17.22624"
         style="font-style:normal;font-variant:normal;font-weight:300;font-stretch:normal;font-size:6.38404942px;font-family:'Fira Sans';-inkscape-font-specification:'Fira Sans Light';stroke-width:0.79800618">powered by</tspan></text>
  </g>
</svg>
