<?xml version="1.0" encoding="UTF-8" standalone="no"?>
<!-- Created with Inkscape (http://www.inkscape.org/) -->

<svg
   xmlns:dc="http://purl.org/dc/elements/1.1/"
   xmlns:cc="http://creativecommons.org/ns#"
   xmlns:rdf="http://www.w3.org/1999/02/22-rdf-syntax-ns#"
   xmlns:svg="http://www.w3.org/2000/svg"
   xmlns="http://www.w3.org/2000/svg"
   xmlns:sodipodi="http://sodipodi.sourceforge.net/DTD/sodipodi-0.dtd"
   xmlns:inkscape="http://www.inkscape.org/namespaces/inkscape"
   width="3.8in"
   height="3.8in"
   viewBox="0 0 96.520002 96.519999"
   version="1.1"
   id="svg709"
   inkscape:version="0.92.5 (2060ec1f9f, 2020-04-08)"
   sodipodi:docname="tl_logo_flat.svg"
   inkscape:export-filename="tl_flat_gray.png"
   inkscape:export-xdpi="800"
   inkscape:export-ydpi="800"
   style="enable-background:new">
  <defs
     id="defs703">
    <clipPath
       id="clip1">
      <path
         id="path4753"
         d="M 0,0.199219 H 6 V 9 H 0 Z m 0,0"
         inkscape:connector-curvature="0" />
    </clipPath>
    <clipPath
       id="clip2">
      <path
         id="path4756"
         d="m 7,0.199219 h 6 V 9 H 7 Z m 0,0"
         inkscape:connector-curvature="0" />
    </clipPath>
    <clipPath
       id="clip3">
      <path
         id="path4759"
         d="m 15,0.199219 h 6 V 9 h -6 z m 0,0"
         inkscape:connector-curvature="0" />
    </clipPath>
    <clipPath
       id="clip4">
      <path
         id="path4762"
         d="m 20,0.199219 h 7 V 9 h -7 z m 0,0"
         inkscape:connector-curvature="0" />
    </clipPath>
    <clipPath
       id="clip5">
      <path
         id="path4765"
         d="m 25,0.199219 h 7 V 9 h -7 z m 0,0"
         inkscape:connector-curvature="0" />
    </clipPath>
    <clipPath
       id="clip6">
      <path
         id="path4768"
         d="m 31,0.199219 h 6 V 9 h -6 z m 0,0"
         inkscape:connector-curvature="0" />
    </clipPath>
    <clipPath
       id="clip7">
      <path
         id="path4771"
         d="m 37,0.199219 h 5 V 9 h -5 z m 0,0"
         inkscape:connector-curvature="0" />
    </clipPath>
    <clipPath
       id="clip8">
      <path
         id="path4774"
         d="m 38,10 h 4.320312 v 7 H 38 Z m 0,0"
         inkscape:connector-curvature="0" />
    </clipPath>
  </defs>
  <sodipodi:namedview
     id="base"
     pagecolor="#ffffff"
     bordercolor="#666666"
     borderopacity="1.0"
     inkscape:pageopacity="1"
     inkscape:pageshadow="2"
     inkscape:zoom="1.28"
     inkscape:cx="222.21563"
     inkscape:cy="145.69958"
     inkscape:document-units="mm"
     inkscape:current-layer="layer2"
     showgrid="false"
     inkscape:window-width="1920"
     inkscape:window-height="1016"
     inkscape:window-x="0"
     inkscape:window-y="27"
     inkscape:window-maximized="1"
     units="in">
    <inkscape:grid
       type="xygrid"
       id="grid4682" />
  </sodipodi:namedview>
  <metadata
     id="metadata706">
    <rdf:RDF>
      <cc:Work
         rdf:about="">
        <dc:format>image/svg+xml</dc:format>
        <dc:type
           rdf:resource="http://purl.org/dc/dcmitype/StillImage" />
        <dc:title></dc:title>
      </cc:Work>
    </rdf:RDF>
  </metadata>
  <g
     inkscape:label="Main Logos"
     inkscape:groupmode="layer"
     id="layer1"
     style="display:inline"
     transform="translate(0,-200.47997)">
    <path
       inkscape:connector-curvature="0"
       class="cls-17"
       d="m 31.16497,279.70292 c -3.639301,-0.9098 -9.280221,-1.68316 -11.982403,-11.26361 -1.483013,-5.2224 0.746059,-10.59038 2.229075,-13.97493 1.483015,-3.38456 3.257173,-4.84937 6.505252,-7.00565 3.248076,-2.15628 7.460569,-4.90396 9.680543,-5.18602 a 15.821866,15.821866 0 0 1 5.413463,0.62777 27.776974,27.776974 0 0 0 5.922963,0.28206 c 1.483019,-0.22746 2.565709,0.0546 4.276183,-0.22746 1.710468,-0.28206 3.58471,-0.73697 4.667403,-1.71047 1.082691,-0.97352 1.710472,0.34573 1.937929,0.85522 a 6.6053335,6.6053335 0 0 1 -1.937929,5.92296 11.500195,11.500195 0 0 1 -5.522641,2.79317 c -0.973514,0.28206 -0.400323,0.68237 0.564091,0.90983 0.964415,0.22745 7.979171,2.5657 10.426602,2.5657 2.44743,0 3.930446,0.22745 5.750099,-0.29117 1.819649,-0.5186 2.39284,-1.01899 4.676502,-1.53759 2.283661,-0.51859 3.147995,0.30025 3.475532,0.69147 a 2.3928412,2.3928412 0 0 1 0.564093,1.81964 4.3944576,4.3944576 0 0 1 -2.975129,3.33905 l -1.191874,0.60962 c 0,0 0.136474,2.0471 0.09098,3.25718 -0.04549,1.21005 -0.909829,2.46562 -2.411036,3.51191 a 23.064078,23.064078 0 0 0 -2.46563,1.71957 3.9213483,3.9213483 0 0 1 -0.536796,1.64681 16.304074,16.304074 0 0 1 -2.893245,4.01231 c -1.182777,0.90983 -4.121512,0.90983 -4.121512,0.90983 a 3.4482389,3.4482389 0 0 1 -1.273755,2.00162 c -0.909828,0.58228 -0.755157,0.78243 -1.537603,0.90983 a 6.9328706,6.9328706 0 0 0 -1.819655,0.22745 c 0,0 -8.133842,1.62858 -12.018797,2.32007 -4.694699,0.77335 -9.116449,1.41023 -13.492712,0.26394 z"
       id="path128"
       style="display:inline;fill:#2f2f2f;fill-opacity:1;stroke-width:0.90982544" />
    <path
       inkscape:connector-curvature="0"
       class="cls-18"
       d="m 42.437711,272.27875 a 13.920331,13.920331 0 0 1 -8.743423,-3.80306 c -1.646787,-1.70137 -1.774164,-3.06611 -1.819655,-5.11323 -0.04549,-2.0471 -0.11828,-9.8261 8.079252,-12.58289 8.197526,-2.75676 12.919526,-1.61039 16.376859,0 3.457337,1.6104 8.415889,6.51436 8.415889,10.80873 -0.655077,1.00992 -0.127399,1.95613 -0.05458,2.64761 0.136474,1.20096 -0.11828,1.68318 -0.25473,1.68318 -0.136474,0 -0.354833,-0.30936 -0.800645,-0.90982 -0.445816,-0.60051 -0.536802,-1.33744 -1.019008,-1.58312 -0.482205,-0.24557 -1.564898,-0.55498 -2.984226,0.90983 a 4.3307699,4.3307699 0 0 0 -1.164576,3.91226 3.5210251,3.5210251 0 0 0 0.76425,1.16458 c 0,0 -0.136475,1.33743 -0.536797,0.17286 -0.400331,-1.16459 -0.909832,-1.1555 -1.428434,-1.96524 a 39.05881,39.05881 0 0 1 -2.092595,-3.86677 c -0.909828,-1.87423 -2.065308,-1.38294 -3.029722,-0.58228 -1.337447,1.11906 -1.337447,2.67488 -1.019002,4.54911 0.318421,1.87426 1.819647,3.89407 1.464818,4.2307 -0.573195,0.47311 -7.606142,0.5277 -10.153654,0.32755 z"
       id="path130"
       style="display:inline;fill:#a8a8a8;fill-opacity:1;stroke-width:0.90982544" />
  </g>
  <g
     inkscape:groupmode="layer"
     id="layer2"
     inkscape:label="Bottom title"
     style="display:inline"
     transform="translate(0,-200.47997)">
    <text
       y="282.55957"
       x="49.917183"
       class="cls-13"
       id="text144-1"
       style="font-size:8.45638752px;display:inline;stroke-width:0.70469898">
      <tspan
         x="45.984959"
         y="290.31119"
         id="tspan140-3"
         style="font-style:normal;font-variant:normal;font-weight:300;font-stretch:normal;font-family:Lato;-inkscape-font-specification:'Lato Light';stroke-width:0.70469898">LANDSCAPE</tspan>
    </text>
    <text
       y="290.37671"
       x="2.625452"
       class="cls-13"
       id="text144-2-8"
       style="font-size:8.45638752px;display:inline;stroke-width:0.70469898">
      <tspan
         class="cls-14"
         id="tspan138-7-0"
         style="font-style:normal;font-variant:normal;font-weight:bold;font-stretch:normal;font-family:Lato;-inkscape-font-specification:'Lato Bold';stroke-width:0.70469898">T<tspan
   x="7.1002932"
   y="290.37671"
   id="tspan136-9-9"
   style="font-style:normal;font-variant:normal;font-weight:bold;font-stretch:normal;font-family:Lato;-inkscape-font-specification:'Lato Bold';stroke-width:0.70469898">ANGIBLE</tspan>
</tspan>
    </text>
  </g>
  <g
     inkscape:groupmode="layer"
     id="layer3"
     inkscape:label="Top title"
     style="display:inline"
     transform="translate(0,-200.47997)" />
  <g
     inkscape:groupmode="layer"
     id="layer8"
     inkscape:label="GRASS green"
     style="display:none"
     transform="translate(0,-200.47997)">
    <path
       inkscape:connector-curvature="0"
       id="path5380-3"
       data-name="path5380"
       class="cls-1"
       d="m 34.614829,257.76098 1.265204,-0.086 0.491307,-0.52771 -0.909828,-6.53253 0.07279,-1.05539 0.45491,-1.58311 0.464013,-1.44662 0.5095,-1.13728 1.664981,2.79316 1.619488,2.94783 0.732321,4.1715 1.261927,-0.0527 1.763335,-13.18954 2.401939,-11.60939 1.5467,-7.88819 3.129802,-6.2141 0.47311,-1.28285 0.163774,-0.75515 0.06369,-1.22827 -0.191048,-0.98262 -0.445813,-0.90983 -0.818844,-0.81885 v 0.21841 l 0.400324,0.41852 0.373029,0.90984 0.04549,0.70056 -0.509504,1.41023 -0.61868,1.50122 -1.419328,2.54751 0.791547,-5.87749 0.218375,-3.09339 -0.282035,-0.0546 -1.564899,10.53576 -0.291135,0.53682 -2.611198,4.92214 -3.339063,6.61444 -2.802262,5.73189 -1.5558,4.03054 -0.909828,-1.51032 0.554996,-1.14637 3.047916,-5.8502 3.111603,-5.14049 1.291952,-2.51114 1.064497,-2.09258 0.291134,-0.70967 0.06369,-0.69148 -0.127399,-0.53678 h -0.0819 l -0.100096,0.47309 -0.5277,1.22828 -1.337444,2.11079 -3.684791,5.67732 -2.101698,3.10249 -1.437522,2.54752 0.909825,-8.76161 0.327534,-3.74849 0.145584,-7.90639 v 0 l 0.06369,-0.26396 0.209266,-0.49129 0.154693,-0.4458 0.191074,-0.32755 v -0.65507 l -0.06369,-0.81885 0.291134,-0.5277 -0.127386,-0.78243 v -0.58231 l 0.100096,-0.33663 0.227431,-0.72786 0.163773,-0.40032 -0.300235,-0.49129 0.254731,-0.48221 -0.409422,-0.29115 -0.245649,-0.73697 0.354833,-0.57317 -0.491304,-0.1638 -0.20924,-0.38214 v -0.32753 l -0.227482,-0.37303 -0.218349,-0.2003 v -0.30938 -0.32752 l -0.109175,-0.90984 -0.07279,-0.5277 -0.327535,-0.24557 -0.163774,-0.29114 -0.373029,-0.18191 -0.218348,-0.40031 v -0.46402 -0.46401 l -0.245648,-0.40942 -0.427619,-0.0817 -0.400324,-0.13637 -0.200184,-0.29115 -0.136474,-0.30932 -0.309343,0.20028 -0.127399,0.40032 -0.06369,0.42762 -0.200183,0.66418 -0.145584,-0.21841 0.06369,0.81885 v 0.18191 0.30934 l 0.11828,0.24556 0.100095,0.32755 0.209265,0.26394 0.0819,0.1182 0.06369,0.30934 -0.25473,0.19097 0.109174,0.28203 -0.245647,0.30935 v 0.24558 l 0.06369,0.24555 0.209266,0.23653 0.181965,0.22745 0.245648,0.2184 v 0.17286 l -0.0819,0.27292 -0.172882,0.17286 -0.100096,0.14569 v 0.38212 l 0.309339,0.20002 0.172884,0.19097 0.109174,0.39123 -0.327538,0.39123 -0.05459,0.27292 0.136474,0.30937 0.200183,0.24555 v 0.20003 l 0.154692,0.19097 0.136474,0.1638 0.109175,0.18191 -0.06369,0.30934 0.200183,0.28202 h 0.181992 l 0.06369,0.13637 -0.06369,0.24557 0.172883,0.35484 0.181965,0.13637 0.136474,0.29112 -0.136474,0.49132 0.200156,0.44581 0.191048,0.0821 0.09098,0.20029 v 0.58228 l -0.109175,0.24557 -0.09098,0.28205 0.291137,1.4557 0.5095,0.32755 v 6.28689 l -0.600486,6.7873 -0.345735,3.93045 -0.573188,4.77659 -0.227431,0.57318 -1.892438,-3.2481 -0.655074,-4.35806 -0.837037,-7.07843 -1.009909,-6.55983 0.0819,5.98664 0.345735,4.94944 0.609581,4.722 -4.230687,-6.69631 -6.068536,-9.09825 -1.401135,-1.93795 h -0.118146 l 0.40942,1.16459 0.755156,1.88334 1.109989,2.51114 1.937928,4.15791 1.173675,2.09258 1.446623,2.51113 3.002422,4.80386 2.729478,4.3035 0.391225,3.88492 1.291952,8.81622 v 0 l -1.492113,-4.63102 -3.157094,-7.82448 -2.511121,-5.22239 -3.339059,-5.45897 -1.692274,-2.22908 -1.382938,-1.29195 -2.201777,-2.04711 0.909825,1.12819 1.473921,1.51941 0.909824,0.98262 0.582287,1.00081 0.691467,1.10088 1.128185,1.94702 0.982609,1.81965 0.982613,2.20178 1.228265,2.97513 2.411038,6.20502 2.511117,6.54165 1.51941,4.6219 z m -3.408207,0.5038 0.665719,-0.38772 -3.12534,-8.76365 -1.765063,-3.38451 -2.438329,-4.49457 -1.819655,-2.88414 -1.637684,-2.49293 -0.909827,-1.22826 -0.736958,-0.73694 1.273758,2.41103 1.155476,2.72946 1.755964,3.97594 0.764252,1.75598 4.854469,13.69213 z M 19.475879,233.89206 v 0 h -0.06369 z m 26.757968,-8.02468 -0.427619,1.81966 -1.928831,7.71531 -0.909824,4.37628 -0.97351,5.28609 -1.091793,3.45731 -0.382126,-0.9098 -2.474727,-4.54914 0.837038,-1.92883 2.729479,-5.66823 1.446621,-3.04789 1.937928,-4.09422 z m 2.401939,5.7501 -0.354829,2.038 -0.991713,3.40276 -0.98261,2.54751 -1.109987,3.27537 -0.582287,3.22079 -1.367381,8.295 1.514224,-0.0491 1.381663,-7.9094 0.227456,-1.81965 0.527699,-2.55663 1.164577,-4.54911 0.536798,-3.39366 z m -14.320654,9.31663 0.809744,1.35562 -0.163775,3.1571 -0.127386,0.0911 z m 1.364738,2.27453 0.473111,0.77336 -0.363928,0.85525 -0.26384,0.19098 z"
       style="display:inline;fill:#088b36;fill-opacity:1;stroke-width:0.90982556"
       sodipodi:nodetypes="cccccccccccccccccccccccccccccccccccccccccccccccccccccccccccccccccccccccccccccccccccccccccccccccccccccccccccccccccccccccccccccccccccccccccccccccccccccccccccccccccccccccccccccccccccccccccccccccccccccccccccccccccccccccccccccccccccccccccccccccccccccccccccc" />
  </g>
  <g
     style="display:none"
     inkscape:label="OSGeo green"
     id="g962"
     inkscape:groupmode="layer"
     transform="translate(0,-200.47997)">
    <path
       sodipodi:nodetypes="cccccccccccccccccccccccccccccccccccccccccccccccccccccccccccccccccccccccccccccccccccccccccccccccccccccccccccccccccccccccccccccccccccccccccccccccccccccccccccccccccccccccccccccccccccccccccccccccccccccccccccccccccccccccccccccccccccccccccccccccccccccccccccc"
       style="display:inline;fill:#4cb05b;fill-opacity:1;stroke-width:0.90982556"
       d="m 34.614829,257.76098 1.265204,-0.086 0.491307,-0.52771 -0.909828,-6.53253 0.07279,-1.05539 0.45491,-1.58311 0.464013,-1.44662 0.5095,-1.13728 1.664981,2.79316 1.619488,2.94783 0.732321,4.1715 1.261927,-0.0527 1.763335,-13.18954 2.401939,-11.60939 1.5467,-7.88819 3.129802,-6.2141 0.47311,-1.28285 0.163774,-0.75515 0.06369,-1.22827 -0.191048,-0.98262 -0.445813,-0.90983 -0.818844,-0.81885 v 0.21841 l 0.400324,0.41852 0.373029,0.90984 0.04549,0.70056 -0.509504,1.41023 -0.61868,1.50122 -1.419328,2.54751 0.791547,-5.87749 0.218375,-3.09339 -0.282035,-0.0546 -1.564899,10.53576 -0.291135,0.53682 -2.611198,4.92214 -3.339063,6.61444 -2.802262,5.73189 -1.5558,4.03054 -0.909828,-1.51032 0.554996,-1.14637 3.047916,-5.8502 3.111603,-5.14049 1.291952,-2.51114 1.064497,-2.09258 0.291134,-0.70967 0.06369,-0.69148 -0.127399,-0.53678 h -0.0819 l -0.100096,0.47309 -0.5277,1.22828 -1.337444,2.11079 -3.684791,5.67732 -2.101698,3.10249 -1.437522,2.54752 0.909825,-8.76161 0.327534,-3.74849 0.145584,-7.90639 v 0 l 0.06369,-0.26396 0.209266,-0.49129 0.154693,-0.4458 0.191074,-0.32755 v -0.65507 l -0.06369,-0.81885 0.291134,-0.5277 -0.127386,-0.78243 v -0.58231 l 0.100096,-0.33663 0.227431,-0.72786 0.163773,-0.40032 -0.300235,-0.49129 0.254731,-0.48221 -0.409422,-0.29115 -0.245649,-0.73697 0.354833,-0.57317 -0.491304,-0.1638 -0.20924,-0.38214 v -0.32753 l -0.227482,-0.37303 -0.218349,-0.2003 v -0.30938 -0.32752 l -0.109175,-0.90984 -0.07279,-0.5277 -0.327535,-0.24557 -0.163774,-0.29114 -0.373029,-0.18191 -0.218348,-0.40031 v -0.46402 -0.46401 l -0.245648,-0.40942 -0.427619,-0.0817 -0.400324,-0.13637 -0.200184,-0.29115 -0.136474,-0.30932 -0.309343,0.20028 -0.127399,0.40032 -0.06369,0.42762 -0.200183,0.66418 -0.145584,-0.21841 0.06369,0.81885 v 0.18191 0.30934 l 0.11828,0.24556 0.100095,0.32755 0.209265,0.26394 0.0819,0.1182 0.06369,0.30934 -0.25473,0.19097 0.109174,0.28203 -0.245647,0.30935 v 0.24558 l 0.06369,0.24555 0.209266,0.23653 0.181965,0.22745 0.245648,0.2184 v 0.17286 l -0.0819,0.27292 -0.172882,0.17286 -0.100096,0.14569 v 0.38212 l 0.309339,0.20002 0.172884,0.19097 0.109174,0.39123 -0.327538,0.39123 -0.05459,0.27292 0.136474,0.30937 0.200183,0.24555 v 0.20003 l 0.154692,0.19097 0.136474,0.1638 0.109175,0.18191 -0.06369,0.30934 0.200183,0.28202 h 0.181992 l 0.06369,0.13637 -0.06369,0.24557 0.172883,0.35484 0.181965,0.13637 0.136474,0.29112 -0.136474,0.49132 0.200156,0.44581 0.191048,0.0821 0.09098,0.20029 v 0.58228 l -0.109175,0.24557 -0.09098,0.28205 0.291137,1.4557 0.5095,0.32755 v 6.28689 l -0.600486,6.7873 -0.345735,3.93045 -0.573188,4.77659 -0.227431,0.57318 -1.892438,-3.2481 -0.655074,-4.35806 -0.837037,-7.07843 -1.009909,-6.55983 0.0819,5.98664 0.345735,4.94944 0.609581,4.722 -4.230687,-6.69631 -6.068536,-9.09825 -1.401135,-1.93795 h -0.118146 l 0.40942,1.16459 0.755156,1.88334 1.109989,2.51114 1.937928,4.15791 1.173675,2.09258 1.446623,2.51113 3.002422,4.80386 2.729478,4.3035 0.391225,3.88492 1.291952,8.81622 v 0 l -1.492113,-4.63102 -3.157094,-7.82448 -2.511121,-5.22239 -3.339059,-5.45897 -1.692274,-2.22908 -1.382938,-1.29195 -2.201777,-2.04711 0.909825,1.12819 1.473921,1.51941 0.909824,0.98262 0.582287,1.00081 0.691467,1.10088 1.128185,1.94702 0.982609,1.81965 0.982613,2.20178 1.228265,2.97513 2.411038,6.20502 2.511117,6.54165 1.51941,4.6219 z m -3.408207,0.5038 0.665719,-0.38772 -3.12534,-8.76365 -1.765063,-3.38451 -2.438329,-4.49457 -1.819655,-2.88414 -1.637684,-2.49293 -0.909827,-1.22826 -0.736958,-0.73694 1.273758,2.41103 1.155476,2.72946 1.755964,3.97594 0.764252,1.75598 4.854469,13.69213 z M 19.475879,233.89206 v 0 h -0.06369 z m 26.757968,-8.02468 -0.427619,1.81966 -1.928831,7.71531 -0.909824,4.37628 -0.97351,5.28609 -1.091793,3.45731 -0.382126,-0.9098 -2.474727,-4.54914 0.837038,-1.92883 2.729479,-5.66823 1.446621,-3.04789 1.937928,-4.09422 z m 2.401939,5.7501 -0.354829,2.038 -0.991713,3.40276 -0.98261,2.54751 -1.109987,3.27537 -0.582287,3.22079 -1.367381,8.295 1.514224,-0.0491 1.381663,-7.9094 0.227456,-1.81965 0.527699,-2.55663 1.164577,-4.54911 0.536798,-3.39366 z m -14.320654,9.31663 0.809744,1.35562 -0.163775,3.1571 -0.127386,0.0911 z m 1.364738,2.27453 0.473111,0.77336 -0.363928,0.85525 -0.26384,0.19098 z"
       class="cls-1"
       data-name="path5380"
       id="path960"
       inkscape:connector-curvature="0" />
  </g>
  <g
     style="display:inline"
     inkscape:label="Gray"
     id="g958"
     inkscape:groupmode="layer"
     transform="translate(0,-200.47997)">
    <path
       sodipodi:nodetypes="cccccccccccccccccccccccccccccccccccccccccccccccccccccccccccccccccccccccccccccccccccccccccccccccccccccccccccccccccccccccccccccccccccccccccccccccccccccccccccccccccccccccccccccccccccccccccccccccccccccccccccccccccccccccccccccccccccccccccccccccccccccccccccc"
       style="display:inline;fill:#4a4a4a;fill-opacity:1;stroke-width:0.90982556"
       d="m 47.26837,264.56758 1.265204,-0.086 0.491307,-0.52771 -0.909828,-6.53253 0.07279,-1.05539 0.45491,-1.58311 0.464013,-1.44662 0.5095,-1.13728 1.664981,2.79316 1.619488,2.94783 0.732321,4.1715 1.261927,-0.0527 1.763335,-13.18954 2.401939,-11.60939 1.5467,-7.88819 3.129802,-6.2141 0.47311,-1.28285 0.163774,-0.75515 0.06369,-1.22827 -0.191048,-0.98262 -0.445813,-0.90983 -0.818844,-0.81885 v 0.21841 l 0.400324,0.41852 0.373029,0.90984 0.04549,0.70056 -0.509504,1.41023 -0.61868,1.50122 -1.419328,2.54751 0.791547,-5.87749 0.218375,-3.09339 -0.282035,-0.0546 -1.564899,10.53576 -0.291135,0.53682 -2.611198,4.92214 -3.339063,6.61444 -2.802262,5.73189 -1.5558,4.03054 -0.909828,-1.51032 0.554996,-1.14637 3.047916,-5.8502 3.111603,-5.14049 1.291952,-2.51114 1.064497,-2.09258 0.291134,-0.70967 0.06369,-0.69148 -0.127399,-0.53678 h -0.0819 l -0.100096,0.47309 -0.5277,1.22828 -1.337444,2.11079 -3.684791,5.67732 -2.101698,3.10249 -1.437522,2.54752 0.909825,-8.76161 0.327534,-3.74849 0.145584,-7.90639 v 0 l 0.06369,-0.26396 0.209266,-0.49129 0.154693,-0.4458 0.191074,-0.32755 v -0.65507 l -0.06369,-0.81885 0.291134,-0.5277 -0.127386,-0.78243 v -0.58231 l 0.100096,-0.33663 0.227431,-0.72786 0.163773,-0.40032 -0.300235,-0.49129 0.254731,-0.48221 -0.409422,-0.29115 -0.245649,-0.73697 0.354833,-0.57317 -0.491304,-0.1638 -0.20924,-0.38214 v -0.32753 l -0.227482,-0.37303 -0.218349,-0.2003 v -0.30938 -0.32752 l -0.109175,-0.90984 -0.07279,-0.5277 -0.327535,-0.24557 -0.163774,-0.29114 -0.373029,-0.18191 -0.218348,-0.40031 v -0.46402 -0.46401 l -0.245648,-0.40942 -0.427619,-0.0817 -0.400324,-0.13637 -0.200184,-0.29115 -0.136474,-0.30932 -0.309343,0.20028 -0.127399,0.40032 -0.06369,0.42762 -0.200183,0.66418 -0.145584,-0.21841 0.06369,0.81885 v 0.18191 0.30934 l 0.11828,0.24556 0.100095,0.32755 0.209265,0.26394 0.0819,0.1182 0.06369,0.30934 -0.25473,0.19097 0.109174,0.28203 -0.245647,0.30935 v 0.24558 l 0.06369,0.24555 0.209266,0.23653 0.181965,0.22745 0.245648,0.2184 v 0.17286 l -0.0819,0.27292 -0.172882,0.17286 -0.100096,0.14569 v 0.38212 l 0.309339,0.20002 0.172884,0.19097 0.109174,0.39123 -0.327538,0.39123 -0.05459,0.27292 0.136474,0.30937 0.200183,0.24555 v 0.20003 l 0.154692,0.19097 0.136474,0.1638 0.109175,0.18191 -0.06369,0.30934 0.200183,0.28202 h 0.181992 l 0.06369,0.13637 -0.06369,0.24557 0.172883,0.35484 0.181965,0.13637 0.136474,0.29112 -0.136474,0.49132 0.200156,0.44581 0.191048,0.0821 0.09098,0.20029 v 0.58228 l -0.109175,0.24557 -0.09098,0.28205 0.291137,1.4557 0.5095,0.32755 v 6.28689 l -0.600486,6.7873 -0.345735,3.93045 -0.573188,4.77659 -0.227431,0.57318 -1.892438,-3.2481 -0.655074,-4.35806 -0.837037,-7.07843 -1.009909,-6.55983 0.0819,5.98664 0.345735,4.94944 0.609581,4.722 -4.230687,-6.69631 -6.068536,-9.09825 -1.401135,-1.93795 h -0.118146 l 0.40942,1.16459 0.755156,1.88334 1.109989,2.51114 1.937928,4.15791 1.173675,2.09258 1.446623,2.51113 3.002422,4.80386 2.729478,4.3035 0.391225,3.88492 1.291952,8.81622 v 0 l -1.492113,-4.63102 -3.157094,-7.82448 -2.511121,-5.22239 -3.339059,-5.45897 -1.692274,-2.22908 -1.382938,-1.29195 -2.201777,-2.04711 0.909825,1.12819 1.473921,1.51941 0.909824,0.98262 0.582287,1.00081 0.691467,1.10088 1.128185,1.94702 0.982609,1.81965 0.982613,2.20178 1.228265,2.97513 2.411038,6.20502 2.511117,6.54165 1.51941,4.6219 z m -3.408207,0.5038 0.665719,-0.38772 -3.12534,-8.76365 -1.765063,-3.38451 -2.438329,-4.49457 -1.819655,-2.88414 -1.637684,-2.49293 -0.909827,-1.22826 -0.736958,-0.73694 1.273758,2.41103 1.155476,2.72946 1.755964,3.97594 0.764252,1.75598 4.854469,13.69213 z M 32.12942,240.69866 v 0 h -0.06369 z m 26.757968,-8.02468 -0.427619,1.81966 -1.928831,7.71531 -0.909824,4.37628 -0.97351,5.28609 -1.091793,3.45731 -0.382126,-0.9098 -2.474727,-4.54914 0.837038,-1.92883 2.729479,-5.66823 1.446621,-3.04789 1.937928,-4.09422 z m 2.401939,5.7501 -0.354829,2.038 -0.991713,3.40276 -0.98261,2.54751 -1.109987,3.27537 -0.582287,3.22079 -1.367381,8.295 1.514224,-0.0491 1.381663,-7.9094 0.227456,-1.81965 0.527699,-2.55663 1.164577,-4.54911 0.536798,-3.39366 z m -14.320654,9.31663 0.809744,1.35562 -0.163775,3.1571 -0.127386,0.0911 z m 1.364738,2.27453 0.473111,0.77336 -0.363928,0.85525 -0.26384,0.19098 z"
       class="cls-1"
       data-name="path5380"
       id="path956"
       inkscape:connector-curvature="0" />
  </g>
  <g
     inkscape:groupmode="layer"
     id="layer7"
     inkscape:label="Official NC State Red"
     style="display:none"
     transform="translate(0,-200.47997)">
    <path
       inkscape:connector-curvature="0"
       id="path5380-3-7"
       data-name="path5380"
       class="cls-1"
       d="m 34.614829,257.76098 1.265204,-0.086 0.491307,-0.52771 -0.909828,-6.53253 0.07279,-1.05542 0.45491,-1.58308 0.464013,-1.44662 0.5095,-1.13728 1.664981,2.79316 1.619488,2.94783 0.732321,4.17147 1.261927,-0.0527 1.763335,-13.18955 2.401939,-11.60939 1.5467,-7.88816 3.129802,-6.21413 0.47311,-1.28285 0.163774,-0.75515 0.06369,-1.22826 -0.191048,-0.98263 -0.445813,-0.9098 -0.818844,-0.81885 v 0.21841 l 0.400324,0.4185 0.373029,0.90983 0.04549,0.70056 -0.509504,1.41023 -0.61868,1.50122 -1.419328,2.54752 0.791547,-5.87747 0.218375,-3.09341 -0.282035,-0.0546 -1.564899,10.53579 -0.291135,0.53679 -2.611201,4.92217 -3.339061,6.61441 -2.802264,5.73192 -1.5558,4.03051 -0.909828,-1.51029 0.554996,-1.1464 3.047916,-5.85017 3.111603,-5.14049 1.291952,-2.51114 1.064497,-2.09261 0.291135,-0.70966 0.06369,-0.69146 -0.127399,-0.53678 h -0.0819 l -0.100096,0.47309 -0.527699,1.22828 -1.337445,2.11079 -3.68479,5.67732 -2.101701,3.10249 -1.43752,2.54752 0.909826,-8.76161 0.327534,-3.74849 0.145584,-7.90639 v 0 l 0.06369,-0.26396 0.209266,-0.49129 0.154692,-0.44583 0.191075,-0.32752 v -0.6551 l -0.06369,-0.81884 0.291135,-0.52768 -0.127386,-0.78246 v -0.58228 l 0.100095,-0.33663 0.227431,-0.72786 0.163774,-0.40035 -0.300237,-0.49129 0.25473,-0.48221 -0.40942,-0.29114 -0.245649,-0.73695 0.354836,-0.5732 -0.491304,-0.16379 -0.20924,-0.38212 v -0.32755 l -0.227482,-0.37301 -0.218349,-0.2003 v -0.30938 -0.32755 l -0.109175,-0.90983 -0.07279,-0.52768 -0.327535,-0.24557 -0.163774,-0.29114 -0.373029,-0.18191 -0.218348,-0.40033 v -0.464 -0.46403 l -0.245648,-0.40942 -0.427619,-0.0817 -0.400324,-0.13637 -0.200184,-0.29113 -0.136474,-0.30934 -0.309343,0.2003 -0.127399,0.4003 -0.06369,0.42765 -0.200183,0.66415 -0.145584,-0.2184 0.06369,0.81884 v 0.18191 0.30937 l 0.11828,0.24556 0.100095,0.32752 0.209265,0.26395 0.0819,0.1182 0.06369,0.30933 -0.25473,0.19097 0.109174,0.28206 -0.245647,0.30933 v 0.24557 l 0.06369,0.24556 0.209266,0.23652 0.181965,0.22745 0.245648,0.21841 v 0.17286 l -0.0819,0.27294 -0.172882,0.17286 -0.100096,0.14569 v 0.38212 l 0.309339,0.20002 0.172884,0.19097 0.109174,0.3912 -0.327538,0.39124 -0.05459,0.27294 0.136474,0.30934 0.200183,0.24556 v 0.2003 l 0.154692,0.19096 0.136474,0.1638 0.109175,0.18191 -0.06369,0.30934 0.200183,0.28205 h 0.181992 l 0.06369,0.13637 -0.06369,0.24557 0.172883,0.35481 0.181965,0.13637 0.136474,0.29115 -0.136474,0.49129 0.200156,0.4458 0.191048,0.0821 0.09098,0.20028 v 0.58231 l -0.109175,0.24556 -0.09098,0.28204 0.291137,1.45573 0.5095,0.32751 v 6.2869 l -0.600483,6.78732 -0.345735,3.93042 -0.573188,4.7766 -0.227431,0.57319 -1.892438,-3.24808 -0.655074,-4.35806 -0.837037,-7.07844 -1.009909,-6.55986 0.0819,5.98667 0.345735,4.94945 0.609582,4.72199 -4.23069,-6.6963 -6.068536,-9.09826 -1.401135,-1.93794 h -0.118146 l 0.40942,1.16459 0.755156,1.88334 1.109989,2.5111 1.937928,4.15791 1.173675,2.0926 1.446623,2.51112 3.002422,4.80389 2.729478,4.30345 0.391225,3.88497 1.291952,8.81622 v 0 l -1.492113,-4.63102 -3.157094,-7.82452 -2.511121,-5.22239 -3.339059,-5.45894 -1.692274,-2.22908 -1.382938,-1.29195 -2.201777,-2.04711 0.909825,1.12817 1.473921,1.51941 0.909824,0.98262 0.582287,1.00081 0.691467,1.10088 1.128185,1.94705 0.982609,1.81965 0.982613,2.20178 1.228265,2.97509 2.411038,6.20503 2.511117,6.54165 1.51941,4.62189 z m -3.408207,0.5038 0.665719,-0.38775 -3.12534,-8.76362 -1.765063,-3.38454 -2.438329,-4.49454 -1.819655,-2.88414 -1.637684,-2.49293 -0.909827,-1.22826 -0.736958,-0.73697 1.273758,2.41104 1.155476,2.72948 1.755964,3.97594 0.764252,1.75595 4.854469,13.69213 z M 19.475879,233.89203 v 0 h -0.06369 z m 26.757968,-8.02465 -0.427619,1.81966 -1.928831,7.71531 -0.909824,4.37625 -0.97351,5.28609 -1.091793,3.45734 -0.382126,-0.90982 -2.474727,-4.54915 0.837038,-1.92882 2.729479,-5.66821 1.446621,-3.04792 1.937928,-4.09422 z m 2.401939,5.75008 -0.354829,2.03802 -0.991713,3.40276 -0.98261,2.54751 -1.109987,3.27534 -0.582287,3.22079 -1.367381,8.29503 1.514224,-0.0491 1.381663,-7.90942 0.227456,-1.81965 0.527699,-2.55661 1.164577,-4.54913 0.536798,-3.39364 z m -14.320654,9.31662 0.809744,1.35563 -0.163775,3.1571 -0.127386,0.0911 z m 1.364738,2.27456 0.473111,0.77336 -0.363928,0.85522 -0.26384,0.19098 z"
       style="display:inline;fill:#cc0000;fill-opacity:1;stroke-width:0.90982556"
       sodipodi:nodetypes="cccccccccccccccccccccccccccccccccccccccccccccccccccccccccccccccccccccccccccccccccccccccccccccccccccccccccccccccccccccccccccccccccccccccccccccccccccccccccccccccccccccccccccccccccccccccccccccccccccccccccccccccccccccccccccccccccccccccccccccccccccccccccccc" />
  </g>
  <g
     style="display:none"
     inkscape:label="Different NC State Red"
     id="g954"
     inkscape:groupmode="layer"
     transform="translate(0,-200.47997)">
    <path
       sodipodi:nodetypes="cccccccccccccccccccccccccccccccccccccccccccccccccccccccccccccccccccccccccccccccccccccccccccccccccccccccccccccccccccccccccccccccccccccccccccccccccccccccccccccccccccccccccccccccccccccccccccccccccccccccccccccccccccccccccccccccccccccccccccccccccccccccccccc"
       style="display:inline;fill:#cd1e25;fill-opacity:1;stroke-width:0.90982556"
       d="m 34.614829,257.76098 1.265204,-0.086 0.491307,-0.52771 -0.909828,-6.53253 0.07279,-1.05542 0.45491,-1.58308 0.464013,-1.44662 0.5095,-1.13728 1.664981,2.79316 1.619488,2.94783 0.732321,4.17147 1.261927,-0.0527 1.763335,-13.18955 2.401939,-11.60939 1.5467,-7.88816 3.129802,-6.21413 0.47311,-1.28285 0.163774,-0.75515 0.06369,-1.22826 -0.191048,-0.98263 -0.445813,-0.9098 -0.818844,-0.81885 v 0.21841 l 0.400324,0.4185 0.373029,0.90983 0.04549,0.70056 -0.509504,1.41023 -0.61868,1.50122 -1.419328,2.54752 0.791547,-5.87747 0.218375,-3.09341 -0.282035,-0.0546 -1.564899,10.53579 -0.291135,0.53679 -2.611201,4.92217 -3.339061,6.61441 -2.802264,5.73192 -1.5558,4.03051 -0.909828,-1.51029 0.554996,-1.1464 3.047916,-5.85017 3.111603,-5.14049 1.291952,-2.51114 1.064497,-2.09261 0.291135,-0.70966 0.06369,-0.69146 -0.127399,-0.53678 h -0.0819 l -0.100096,0.47309 -0.527699,1.22828 -1.337445,2.11079 -3.68479,5.67732 -2.101701,3.10249 -1.43752,2.54752 0.909826,-8.76161 0.327534,-3.74849 0.145584,-7.90639 v 0 l 0.06369,-0.26396 0.209266,-0.49129 0.154692,-0.44583 0.191075,-0.32752 v -0.6551 l -0.06369,-0.81884 0.291135,-0.52768 -0.127386,-0.78246 v -0.58228 l 0.100095,-0.33663 0.227431,-0.72786 0.163774,-0.40035 -0.300237,-0.49129 0.25473,-0.48221 -0.40942,-0.29114 -0.245649,-0.73695 0.354836,-0.5732 -0.491304,-0.16379 -0.20924,-0.38212 v -0.32755 l -0.227482,-0.37301 -0.218349,-0.2003 v -0.30938 -0.32755 l -0.109175,-0.90983 -0.07279,-0.52768 -0.327535,-0.24557 -0.163774,-0.29114 -0.373029,-0.18191 -0.218348,-0.40033 v -0.464 -0.46403 l -0.245648,-0.40942 -0.427619,-0.0817 -0.400324,-0.13637 -0.200184,-0.29113 -0.136474,-0.30934 -0.309343,0.2003 -0.127399,0.4003 -0.06369,0.42765 -0.200183,0.66415 -0.145584,-0.2184 0.06369,0.81884 v 0.18191 0.30937 l 0.11828,0.24556 0.100095,0.32752 0.209265,0.26395 0.0819,0.1182 0.06369,0.30933 -0.25473,0.19097 0.109174,0.28206 -0.245647,0.30933 v 0.24557 l 0.06369,0.24556 0.209266,0.23652 0.181965,0.22745 0.245648,0.21841 v 0.17286 l -0.0819,0.27294 -0.172882,0.17286 -0.100096,0.14569 v 0.38212 l 0.309339,0.20002 0.172884,0.19097 0.109174,0.3912 -0.327538,0.39124 -0.05459,0.27294 0.136474,0.30934 0.200183,0.24556 v 0.2003 l 0.154692,0.19096 0.136474,0.1638 0.109175,0.18191 -0.06369,0.30934 0.200183,0.28205 h 0.181992 l 0.06369,0.13637 -0.06369,0.24557 0.172883,0.35481 0.181965,0.13637 0.136474,0.29115 -0.136474,0.49129 0.200156,0.4458 0.191048,0.0821 0.09098,0.20028 v 0.58231 l -0.109175,0.24556 -0.09098,0.28204 0.291137,1.45573 0.5095,0.32751 v 6.2869 l -0.600483,6.78732 -0.345735,3.93042 -0.573188,4.7766 -0.227431,0.57319 -1.892438,-3.24808 -0.655074,-4.35806 -0.837037,-7.07844 -1.009909,-6.55986 0.0819,5.98667 0.345735,4.94945 0.609582,4.72199 -4.23069,-6.6963 -6.068536,-9.09826 -1.401135,-1.93794 h -0.118146 l 0.40942,1.16459 0.755156,1.88334 1.109989,2.5111 1.937928,4.15791 1.173675,2.0926 1.446623,2.51112 3.002422,4.80389 2.729478,4.30345 0.391225,3.88497 1.291952,8.81622 v 0 l -1.492113,-4.63102 -3.157094,-7.82452 -2.511121,-5.22239 -3.339059,-5.45894 -1.692274,-2.22908 -1.382938,-1.29195 -2.201777,-2.04711 0.909825,1.12817 1.473921,1.51941 0.909824,0.98262 0.582287,1.00081 0.691467,1.10088 1.128185,1.94705 0.982609,1.81965 0.982613,2.20178 1.228265,2.97509 2.411038,6.20503 2.511117,6.54165 1.51941,4.62189 z m -3.408207,0.5038 0.665719,-0.38775 -3.12534,-8.76362 -1.765063,-3.38454 -2.438329,-4.49454 -1.819655,-2.88414 -1.637684,-2.49293 -0.909827,-1.22826 -0.736958,-0.73697 1.273758,2.41104 1.155476,2.72948 1.755964,3.97594 0.764252,1.75595 4.854469,13.69213 z M 19.475879,233.89203 v 0 h -0.06369 z m 26.757968,-8.02465 -0.427619,1.81966 -1.928831,7.71531 -0.909824,4.37625 -0.97351,5.28609 -1.091793,3.45734 -0.382126,-0.90982 -2.474727,-4.54915 0.837038,-1.92882 2.729479,-5.66821 1.446621,-3.04792 1.937928,-4.09422 z m 2.401939,5.75008 -0.354829,2.03802 -0.991713,3.40276 -0.98261,2.54751 -1.109987,3.27534 -0.582287,3.22079 -1.367381,8.29503 1.514224,-0.0491 1.381663,-7.90942 0.227456,-1.81965 0.527699,-2.55661 1.164577,-4.54913 0.536798,-3.39364 z m -14.320654,9.31662 0.809744,1.35563 -0.163775,3.1571 -0.127386,0.0911 z m 1.364738,2.27456 0.473111,0.77336 -0.363928,0.85522 -0.26384,0.19098 z"
       class="cls-1"
       data-name="path5380"
       id="path952"
       inkscape:connector-curvature="0" />
  </g>
</svg>
