<?xml version="1.0" encoding="UTF-8" standalone="no"?>
<!-- Created with Inkscape (http://www.inkscape.org/) -->

<svg
   xmlns:dc="http://purl.org/dc/elements/1.1/"
   xmlns:cc="http://creativecommons.org/ns#"
   xmlns:rdf="http://www.w3.org/1999/02/22-rdf-syntax-ns#"
   xmlns:svg="http://www.w3.org/2000/svg"
   xmlns="http://www.w3.org/2000/svg"
   xmlns:sodipodi="http://sodipodi.sourceforge.net/DTD/sodipodi-0.dtd"
   xmlns:inkscape="http://www.inkscape.org/namespaces/inkscape"
   width="2.8in"
   height="4in"
   viewBox="0 0 71.119999 101.6"
   version="1.1"
   id="svg709"
   inkscape:version="0.92.5 (2060ec1f9f, 2020-04-08)"
   sodipodi:docname="tl_logo_vertical.svg">
  <defs
     id="defs703">
    <clipPath
       id="clip1">
      <path
         id="path4753"
         d="M 0,0.199219 H 6 V 9 H 0 Z m 0,0"
         inkscape:connector-curvature="0" />
    </clipPath>
    <clipPath
       id="clip2">
      <path
         id="path4756"
         d="m 7,0.199219 h 6 V 9 H 7 Z m 0,0"
         inkscape:connector-curvature="0" />
    </clipPath>
    <clipPath
       id="clip3">
      <path
         id="path4759"
         d="m 15,0.199219 h 6 V 9 h -6 z m 0,0"
         inkscape:connector-curvature="0" />
    </clipPath>
    <clipPath
       id="clip4">
      <path
         id="path4762"
         d="m 20,0.199219 h 7 V 9 h -7 z m 0,0"
         inkscape:connector-curvature="0" />
    </clipPath>
    <clipPath
       id="clip5">
      <path
         id="path4765"
         d="m 25,0.199219 h 7 V 9 h -7 z m 0,0"
         inkscape:connector-curvature="0" />
    </clipPath>
    <clipPath
       id="clip6">
      <path
         id="path4768"
         d="m 31,0.199219 h 6 V 9 h -6 z m 0,0"
         inkscape:connector-curvature="0" />
    </clipPath>
    <clipPath
       id="clip7">
      <path
         id="path4771"
         d="m 37,0.199219 h 5 V 9 h -5 z m 0,0"
         inkscape:connector-curvature="0" />
    </clipPath>
    <clipPath
       id="clip8">
      <path
         id="path4774"
         d="m 38,10 h 4.320312 v 7 H 38 Z m 0,0"
         inkscape:connector-curvature="0" />
    </clipPath>
  </defs>
  <sodipodi:namedview
     id="base"
     pagecolor="#ffffff"
     bordercolor="#666666"
     borderopacity="1.0"
     inkscape:pageopacity="0.0"
     inkscape:pageshadow="2"
     inkscape:zoom="0.90509668"
     inkscape:cx="-364.87161"
     inkscape:cy="177.21467"
     inkscape:document-units="mm"
     inkscape:current-layer="layer1"
     showgrid="false"
     inkscape:window-width="1920"
     inkscape:window-height="1016"
     inkscape:window-x="0"
     inkscape:window-y="27"
     inkscape:window-maximized="1"
     units="in">
    <inkscape:grid
       type="xygrid"
       id="grid4682" />
  </sodipodi:namedview>
  <metadata
     id="metadata706">
    <rdf:RDF>
      <cc:Work
         rdf:about="">
        <dc:format>image/svg+xml</dc:format>
        <dc:type
           rdf:resource="http://purl.org/dc/dcmitype/StillImage" />
        <dc:title></dc:title>
      </cc:Work>
    </rdf:RDF>
  </metadata>
  <g
     inkscape:label="Black and Gray Logo Parts"
     inkscape:groupmode="layer"
     id="layer1"
     style="display:inline"
     transform="translate(0,-195.4)">
    <path
       inkscape:connector-curvature="0"
       class="cls-17"
       d="m 18.705844,292.43007 c -3.588023,-0.89701 -9.1494614,-1.65946 -11.8135687,-11.10493 -1.4621166,-5.14882 0.735547,-10.44116 2.1976673,-13.77803 1.4621194,-3.33686 3.2112794,-4.78102 6.4135914,-6.90693 3.20231,-2.1259 7.355448,-4.83485 9.544142,-5.11294 a 15.598932,15.598932 0 0 1 5.337186,0.61895 27.385589,27.385589 0 0 0 5.839507,0.27805 c 1.462123,-0.22425 2.529557,0.0538 4.215931,-0.22425 1.686367,-0.27805 3.5342,-0.72658 4.601636,-1.68638 1.067437,-0.95979 1.686373,0.34087 1.910625,0.84318 a 6.5122627,6.5122627 0 0 1 -1.910625,5.83953 11.338154,11.338154 0 0 1 -5.444824,2.75378 c -0.959798,0.27809 -0.394682,0.67277 0.556143,0.89704 0.950825,0.22425 7.866742,2.52955 10.279688,2.52955 2.412946,0 3.875066,0.22425 5.669078,-0.28706 1.794011,-0.51129 2.359126,-1.00464 4.61061,-1.51595 2.251484,-0.51129 3.103639,0.29601 3.426562,0.68173 a 2.3591255,2.3591255 0 0 1 0.556144,1.79401 4.3325385,4.3325385 0 0 1 -2.933209,3.29202 l -1.175081,0.60102 c 0,0 0.134552,2.01824 0.0897,3.21126 -0.04485,1.19303 -0.897011,2.43088 -2.377066,3.46244 a 22.739099,22.739099 0 0 0 -2.430888,1.69535 3.8660955,3.8660955 0 0 1 -0.529232,1.62357 16.074345,16.074345 0 0 1 -2.85248,3.95579 c -1.166109,0.89702 -4.063437,0.89702 -4.063437,0.89702 a 3.3996523,3.3996523 0 0 1 -1.255808,1.97341 c -0.897008,0.57407 -0.744516,0.77143 -1.515938,0.89701 a 6.8351847,6.8351847 0 0 0 -1.794015,0.22425 c 0,0 -8.019234,1.60563 -11.849449,2.28737 -4.62855,0.76245 -8.987997,1.39036 -13.302597,0.26023 z"
       id="path128"
       style="display:inline;fill:#2f2f2f;fill-opacity:1;stroke-width:0.8970058" />
    <path
       inkscape:connector-curvature="0"
       class="cls-18"
       d="M 29.81975,285.11051 A 13.72419,13.72419 0 0 1 21.199524,281.361 c -1.623585,-1.67739 -1.749165,-3.0229 -1.794017,-5.04117 -0.04485,-2.01824 -0.116616,-9.68766 7.965414,-12.40556 8.082021,-2.71795 12.737486,-1.5877 16.146105,0 3.408622,1.58769 8.297307,6.42255 8.297307,10.65643 -0.645847,0.99566 -0.125598,1.92853 -0.05381,2.61026 0.134551,1.18405 -0.116617,1.65947 -0.251142,1.65947 -0.134551,0 -0.349833,-0.305 -0.789364,-0.897 -0.439534,-0.59204 -0.529238,-1.3186 -1.004648,-1.56078 -0.475412,-0.24212 -1.542849,-0.54719 -2.942178,0.897 a 4.2697483,4.2697483 0 0 0 -1.148167,3.8571 3.4714129,3.4714129 0 0 0 0.753481,1.14818 c 0,0 -0.134551,1.3186 -0.529232,0.17042 -0.394691,-1.14817 -0.897013,-1.13922 -1.408307,-1.93754 a 38.508462,38.508462 0 0 1 -2.063111,-3.81229 c -0.897008,-1.84782 -2.036207,-1.36345 -2.987033,-0.57407 -1.318601,1.10332 -1.318601,2.63719 -1.004643,4.48504 0.313934,1.84782 1.794007,3.83917 1.444176,4.17106 -0.565116,0.46643 -7.498968,0.52027 -10.010584,0.32293 z"
       id="path130"
       style="display:inline;fill:#a8a8a8;fill-opacity:1;stroke-width:0.8970058" />
    <text
       y="207.44922"
       x="15.44645"
       class="cls-13"
       id="text144"
       style="font-size:8.33723545px;display:inline;stroke-width:0.69476956">
      <tspan
         x="11.569644"
         y="215.09169"
         id="tspan140"
         style="font-style:normal;font-variant:normal;font-weight:300;font-stretch:normal;font-family:Lato;-inkscape-font-specification:'Lato Light';stroke-width:0.69476956">LANDSCAPE</tspan>
    </text>
    <text
       y="205.84834"
       x="15.775063"
       class="cls-13"
       id="text144-2"
       style="font-size:8.33723545px;display:inline;stroke-width:0.69476956">
      <tspan
         class="cls-14"
         id="tspan138-7"
         style="font-style:normal;font-variant:normal;font-weight:bold;font-stretch:normal;font-family:Lato;-inkscape-font-specification:'Lato Bold';stroke-width:0.69476956">T<tspan
   x="20.186859"
   y="205.84834"
   id="tspan136-9"
   style="font-style:normal;font-variant:normal;font-weight:bold;font-stretch:normal;font-family:Lato;-inkscape-font-specification:'Lato Bold';stroke-width:0.69476956">ANGIBLE</tspan>
</tspan>
    </text>
  </g>
  <g
     inkscape:groupmode="layer"
     id="layer8"
     inkscape:label="GRASS green"
     style="display:none"
     transform="translate(0,-195.4)"
     sodipodi:insensitive="true">
    <path
       inkscape:connector-curvature="0"
       id="path5380-3"
       data-name="path5380"
       class="cls-1"
       d="m 34.582343,277.50797 1.247377,-0.0848 0.484384,-0.52025 -0.897008,-6.44052 0.07177,-1.04052 0.448502,-1.56077 0.457473,-1.42626 0.502322,-1.12126 1.641522,2.75381 1.596669,2.90632 0.722001,4.11268 1.244147,-0.052 1.738488,-13.0037 2.368095,-11.4458 1.524908,-7.77702 3.085702,-6.12658 0.466444,-1.26476 0.161466,-0.74452 0.06279,-1.21096 -0.188356,-0.96878 -0.439531,-0.897 -0.807307,-0.80728 v 0.21532 l 0.394683,0.41261 0.367774,0.89701 0.04485,0.69069 -0.502325,1.39036 -0.609962,1.48006 -1.39933,2.51162 0.780394,-5.79465 0.215298,-3.04983 -0.278062,-0.0538 -1.542848,10.38734 -0.287032,0.52921 -2.574407,4.8528 -3.292013,6.52125 -2.762779,5.65114 -1.533878,3.97373 -0.897008,-1.48904 0.547175,-1.13022 3.004971,-5.76774 3.067758,-5.06809 1.273748,-2.47573 1.0495,-2.06312 0.287031,-0.69967 0.06279,-0.68171 -0.125597,-0.52925 h -0.08075 l -0.09868,0.46644 -0.520265,1.21096 -1.318598,2.08105 -3.632872,5.59732 -2.072084,3.05881 -1.417268,2.51159 0.897006,-8.63816 0.322919,-3.69567 0.143533,-7.79496 v 0 l 0.06279,-0.26022 0.206316,-0.48441 0.152513,-0.43952 0.188382,-0.32293 v -0.64584 l -0.06279,-0.80731 0.287032,-0.52027 -0.125597,-0.77141 v -0.57407 l 0.09868,-0.33192 0.224225,-0.7176 0.161468,-0.39467 -0.296005,-0.48439 0.25114,-0.47541 -0.403652,-0.28704 -0.242188,-0.72656 0.349833,-0.56512 -0.484381,-0.16149 -0.206291,-0.37674 v -0.32294 l -0.224278,-0.36775 -0.215271,-0.19746 v -0.30503 -0.32293 l -0.107636,-0.89701 -0.07177,-0.52027 -0.32292,-0.24211 -0.161467,-0.28701 -0.367773,-0.17935 -0.215272,-0.39469 v -0.45747 -0.45748 l -0.242186,-0.40365 -0.421594,-0.0809 -0.394683,-0.13445 -0.197363,-0.28704 -0.134551,-0.30497 -0.304986,0.19747 -0.125596,0.39467 -0.06279,0.42159 -0.197364,0.65482 -0.143531,-0.21533 0.06279,0.80731 v 0.17935 0.30497 l 0.116616,0.24211 0.09868,0.32293 0.206318,0.26023 0.08075,0.11659 0.06279,0.30497 -0.25114,0.18829 0.107635,0.27804 -0.242186,0.305 v 0.24212 l 0.06279,0.2421 0.206317,0.23318 0.179402,0.22425 0.242186,0.21533 v 0.17042 l -0.08075,0.26908 -0.170448,0.17042 -0.09868,0.14363 v 0.37674 l 0.30498,0.19747 0.170447,0.18828 0.107636,0.38571 -0.322924,0.38573 -0.05383,0.2691 0.134552,0.30496 0.197362,0.24212 v 0.19746 l 0.152513,0.18828 0.134551,0.16149 0.107635,0.17935 -0.06279,0.30498 0.197363,0.27805 h 0.179427 l 0.06279,0.13444 -0.06279,0.24212 0.170448,0.34985 0.179401,0.13444 0.134551,0.28704 -0.134551,0.48437 0.197336,0.43952 0.188357,0.0807 0.0897,0.19746 v 0.57411 l -0.107635,0.2421 -0.0897,0.27806 0.287034,1.43522 0.502322,0.3229 v 6.1983 l -0.592026,6.69167 -0.340863,3.87507 -0.565112,4.70929 -0.224225,0.56512 -1.865774,-3.20232 -0.645843,-4.29666 -0.825244,-6.97872 -0.995679,-6.46741 0.08075,5.90231 0.340863,4.87972 0.600993,4.65546 -4.171076,-6.60196 -5.983028,-8.97008 -1.381392,-1.9106 h -0.116492 l 0.403651,1.14814 0.744516,1.8568 1.094349,2.47576 1.910622,4.09932 1.157137,2.06311 1.42624,2.47573 2.960118,4.73618 2.691018,4.24285 0.385713,3.83021 1.273748,8.69198 v 0 l -1.471089,-4.56576 -3.11261,-7.71424 -2.475738,-5.14882 -3.292011,-5.38204 -1.668429,-2.19765 -1.363452,-1.27374 -2.170754,-2.01827 0.897006,1.11228 1.453152,1.498 0.897006,0.96877 0.574081,0.98671 0.681724,1.08536 1.11229,1.9196 0.968762,1.79401 0.968769,2.17075 1.210958,2.93321 2.377065,6.11759 2.475736,6.44947 1.498001,4.55678 z m -3.360184,0.49669 0.656338,-0.38225 -3.081302,-8.64013 -1.740193,-3.33687 -2.403973,-4.43121 -1.794016,-2.84351 -1.614608,-2.45782 -0.897007,-1.21093 -0.726574,-0.72658 1.255811,2.37707 1.139194,2.69102 1.731222,3.91989 0.753484,1.73123 4.786067,13.49921 z m -11.565455,-24.0293 v 0 h -0.06279 z m 26.380943,-7.91161 -0.421594,1.79401 -1.901653,7.60664 -0.897006,4.31459 -0.959793,5.2116 -1.076409,3.40863 -0.376741,-0.89701 -2.439858,-4.48504 0.825245,-1.90164 2.69102,-5.58835 1.426237,-3.00497 1.910622,-4.03654 z m 2.368095,5.66909 -0.34983,2.00929 -0.977739,3.35482 -0.968766,2.51159 -1.094346,3.22923 -0.574083,3.1754 -1.348113,8.17813 1.492887,-0.0483 1.362194,-7.79795 0.224252,-1.79403 0.520265,-2.52057 1.148167,-4.48504 0.529235,-3.34584 z m -14.118873,9.18534 0.798334,1.33654 -0.161466,3.11261 -0.125598,0.0898 z m 1.345509,2.24253 0.466444,0.76245 -0.358801,0.84318 -0.260121,0.18828 z"
       style="display:inline;fill:#088b36;fill-opacity:1;stroke-width:0.89700586"
       sodipodi:nodetypes="cccccccccccccccccccccccccccccccccccccccccccccccccccccccccccccccccccccccccccccccccccccccccccccccccccccccccccccccccccccccccccccccccccccccccccccccccccccccccccccccccccccccccccccccccccccccccccccccccccccccccccccccccccccccccccccccccccccccccccccccccccccccccccc" />
  </g>
  <g
     style="display:none"
     inkscape:label="OSGeo green"
     id="g962"
     inkscape:groupmode="layer"
     transform="translate(0,-195.4)"
     sodipodi:insensitive="true">
    <path
       sodipodi:nodetypes="cccccccccccccccccccccccccccccccccccccccccccccccccccccccccccccccccccccccccccccccccccccccccccccccccccccccccccccccccccccccccccccccccccccccccccccccccccccccccccccccccccccccccccccccccccccccccccccccccccccccccccccccccccccccccccccccccccccccccccccccccccccccccccc"
       style="display:inline;fill:#4cb05b;fill-opacity:1;stroke-width:0.89700586"
       d="m 34.582343,277.50797 1.247377,-0.0848 0.484384,-0.52025 -0.897008,-6.44052 0.07177,-1.04052 0.448502,-1.56077 0.457473,-1.42626 0.502322,-1.12126 1.641522,2.75381 1.596669,2.90632 0.722001,4.11268 1.244147,-0.052 1.738488,-13.0037 2.368095,-11.4458 1.524908,-7.77702 3.085702,-6.12658 0.466444,-1.26476 0.161466,-0.74452 0.06279,-1.21096 -0.188356,-0.96878 -0.439531,-0.897 -0.807307,-0.80728 v 0.21532 l 0.394683,0.41261 0.367774,0.89701 0.04485,0.69069 -0.502325,1.39036 -0.609962,1.48006 -1.39933,2.51162 0.780394,-5.79465 0.215298,-3.04983 -0.278062,-0.0538 -1.542848,10.38734 -0.287032,0.52921 -2.574407,4.8528 -3.292013,6.52125 -2.762779,5.65114 -1.533878,3.97373 -0.897008,-1.48904 0.547175,-1.13022 3.004971,-5.76774 3.067758,-5.06809 1.273748,-2.47573 1.0495,-2.06312 0.287031,-0.69967 0.06279,-0.68171 -0.125597,-0.52925 h -0.08075 l -0.09868,0.46644 -0.520265,1.21096 -1.318598,2.08105 -3.632872,5.59732 -2.072084,3.05881 -1.417268,2.51159 0.897006,-8.63816 0.322919,-3.69567 0.143533,-7.79496 v 0 l 0.06279,-0.26022 0.206316,-0.48441 0.152513,-0.43952 0.188382,-0.32293 v -0.64584 l -0.06279,-0.80731 0.287032,-0.52027 -0.125597,-0.77141 v -0.57407 l 0.09868,-0.33192 0.224225,-0.7176 0.161468,-0.39467 -0.296005,-0.48439 0.25114,-0.47541 -0.403652,-0.28704 -0.242188,-0.72656 0.349833,-0.56512 -0.484381,-0.16149 -0.206291,-0.37674 v -0.32294 l -0.224278,-0.36775 -0.215271,-0.19746 v -0.30503 -0.32293 l -0.107636,-0.89701 -0.07177,-0.52027 -0.32292,-0.24211 -0.161467,-0.28701 -0.367773,-0.17935 -0.215272,-0.39469 v -0.45747 -0.45748 l -0.242186,-0.40365 -0.421594,-0.0809 -0.394683,-0.13445 -0.197363,-0.28704 -0.134551,-0.30497 -0.304986,0.19747 -0.125596,0.39467 -0.06279,0.42159 -0.197364,0.65482 -0.143531,-0.21533 0.06279,0.80731 v 0.17935 0.30497 l 0.116616,0.24211 0.09868,0.32293 0.206318,0.26023 0.08075,0.11659 0.06279,0.30497 -0.25114,0.18829 0.107635,0.27804 -0.242186,0.305 v 0.24212 l 0.06279,0.2421 0.206317,0.23318 0.179402,0.22425 0.242186,0.21533 v 0.17042 l -0.08075,0.26908 -0.170448,0.17042 -0.09868,0.14363 v 0.37674 l 0.30498,0.19747 0.170447,0.18828 0.107636,0.38571 -0.322924,0.38573 -0.05383,0.2691 0.134552,0.30496 0.197362,0.24212 v 0.19746 l 0.152513,0.18828 0.134551,0.16149 0.107635,0.17935 -0.06279,0.30498 0.197363,0.27805 h 0.179427 l 0.06279,0.13444 -0.06279,0.24212 0.170448,0.34985 0.179401,0.13444 0.134551,0.28704 -0.134551,0.48437 0.197336,0.43952 0.188357,0.0807 0.0897,0.19746 v 0.57411 l -0.107635,0.2421 -0.0897,0.27806 0.287034,1.43522 0.502322,0.3229 v 6.1983 l -0.592026,6.69167 -0.340863,3.87507 -0.565112,4.70929 -0.224225,0.56512 -1.865774,-3.20232 -0.645843,-4.29666 -0.825244,-6.97872 -0.995679,-6.46741 0.08075,5.90231 0.340863,4.87972 0.600993,4.65546 -4.171076,-6.60196 -5.983028,-8.97008 -1.381392,-1.9106 h -0.116492 l 0.403651,1.14814 0.744516,1.8568 1.094349,2.47576 1.910622,4.09932 1.157137,2.06311 1.42624,2.47573 2.960118,4.73618 2.691018,4.24285 0.385713,3.83021 1.273748,8.69198 v 0 l -1.471089,-4.56576 -3.11261,-7.71424 -2.475738,-5.14882 -3.292011,-5.38204 -1.668429,-2.19765 -1.363452,-1.27374 -2.170754,-2.01827 0.897006,1.11228 1.453152,1.498 0.897006,0.96877 0.574081,0.98671 0.681724,1.08536 1.11229,1.9196 0.968762,1.79401 0.968769,2.17075 1.210958,2.93321 2.377065,6.11759 2.475736,6.44947 1.498001,4.55678 z m -3.360184,0.49669 0.656338,-0.38225 -3.081302,-8.64013 -1.740193,-3.33687 -2.403973,-4.43121 -1.794016,-2.84351 -1.614608,-2.45782 -0.897007,-1.21093 -0.726574,-0.72658 1.255811,2.37707 1.139194,2.69102 1.731222,3.91989 0.753484,1.73123 4.786067,13.49921 z m -11.565455,-24.0293 v 0 h -0.06279 z m 26.380943,-7.91161 -0.421594,1.79401 -1.901653,7.60664 -0.897006,4.31459 -0.959793,5.2116 -1.076409,3.40863 -0.376741,-0.89701 -2.439858,-4.48504 0.825245,-1.90164 2.69102,-5.58835 1.426237,-3.00497 1.910622,-4.03654 z m 2.368095,5.66909 -0.34983,2.00929 -0.977739,3.35482 -0.968766,2.51159 -1.094346,3.22923 -0.574083,3.1754 -1.348113,8.17813 1.492887,-0.0483 1.362194,-7.79795 0.224252,-1.79403 0.520265,-2.52057 1.148167,-4.48504 0.529235,-3.34584 z m -14.118873,9.18534 0.798334,1.33654 -0.161466,3.11261 -0.125598,0.0898 z m 1.345509,2.24253 0.466444,0.76245 -0.358801,0.84318 -0.260121,0.18828 z"
       class="cls-1"
       data-name="path5380"
       id="path960"
       inkscape:connector-curvature="0" />
  </g>
  <g
     style="display:inline"
     inkscape:label="Gray"
     id="g958"
     inkscape:groupmode="layer"
     transform="translate(0,-195.4)"
     sodipodi:insensitive="true">
    <path
       sodipodi:nodetypes="cccccccccccccccccccccccccccccccccccccccccccccccccccccccccccccccccccccccccccccccccccccccccccccccccccccccccccccccccccccccccccccccccccccccccccccccccccccccccccccccccccccccccccccccccccccccccccccccccccccccccccccccccccccccccccccccccccccccccccccccccccccccccccc"
       style="display:inline;fill:#4a4a4a;fill-opacity:1;stroke-width:0.89700586"
       d="m 34.582343,277.50797 1.247377,-0.0848 0.484384,-0.52025 -0.897008,-6.44052 0.07177,-1.04052 0.448502,-1.56077 0.457473,-1.42626 0.502322,-1.12126 1.641522,2.75381 1.596669,2.90632 0.722001,4.11268 1.244147,-0.052 1.738488,-13.0037 2.368095,-11.4458 1.524908,-7.77702 3.085702,-6.12658 0.466444,-1.26476 0.161466,-0.74452 0.06279,-1.21096 -0.188356,-0.96878 -0.439531,-0.897 -0.807307,-0.80728 v 0.21532 l 0.394683,0.41261 0.367774,0.89701 0.04485,0.69069 -0.502325,1.39036 -0.609962,1.48006 -1.39933,2.51162 0.780394,-5.79465 0.215298,-3.04983 -0.278062,-0.0538 -1.542848,10.38734 -0.287032,0.52921 -2.574407,4.8528 -3.292013,6.52125 -2.762779,5.65114 -1.533878,3.97373 -0.897008,-1.48904 0.547175,-1.13022 3.004971,-5.76774 3.067758,-5.06809 1.273748,-2.47573 1.0495,-2.06312 0.287031,-0.69967 0.06279,-0.68171 -0.125597,-0.52925 h -0.08075 l -0.09868,0.46644 -0.520265,1.21096 -1.318598,2.08105 -3.632872,5.59732 -2.072084,3.05881 -1.417268,2.51159 0.897006,-8.63816 0.322919,-3.69567 0.143533,-7.79496 v 0 l 0.06279,-0.26022 0.206316,-0.48441 0.152513,-0.43952 0.188382,-0.32293 v -0.64584 l -0.06279,-0.80731 0.287032,-0.52027 -0.125597,-0.77141 v -0.57407 l 0.09868,-0.33192 0.224225,-0.7176 0.161468,-0.39467 -0.296005,-0.48439 0.25114,-0.47541 -0.403652,-0.28704 -0.242188,-0.72656 0.349833,-0.56512 -0.484381,-0.16149 -0.206291,-0.37674 v -0.32294 l -0.224278,-0.36775 -0.215271,-0.19746 v -0.30503 -0.32293 l -0.107636,-0.89701 -0.07177,-0.52027 -0.32292,-0.24211 -0.161467,-0.28701 -0.367773,-0.17935 -0.215272,-0.39469 v -0.45747 -0.45748 l -0.242186,-0.40365 -0.421594,-0.0809 -0.394683,-0.13445 -0.197363,-0.28704 -0.134551,-0.30497 -0.304986,0.19747 -0.125596,0.39467 -0.06279,0.42159 -0.197364,0.65482 -0.143531,-0.21533 0.06279,0.80731 v 0.17935 0.30497 l 0.116616,0.24211 0.09868,0.32293 0.206318,0.26023 0.08075,0.11659 0.06279,0.30497 -0.25114,0.18829 0.107635,0.27804 -0.242186,0.305 v 0.24212 l 0.06279,0.2421 0.206317,0.23318 0.179402,0.22425 0.242186,0.21533 v 0.17042 l -0.08075,0.26908 -0.170448,0.17042 -0.09868,0.14363 v 0.37674 l 0.30498,0.19747 0.170447,0.18828 0.107636,0.38571 -0.322924,0.38573 -0.05383,0.2691 0.134552,0.30496 0.197362,0.24212 v 0.19746 l 0.152513,0.18828 0.134551,0.16149 0.107635,0.17935 -0.06279,0.30498 0.197363,0.27805 h 0.179427 l 0.06279,0.13444 -0.06279,0.24212 0.170448,0.34985 0.179401,0.13444 0.134551,0.28704 -0.134551,0.48437 0.197336,0.43952 0.188357,0.0807 0.0897,0.19746 v 0.57411 l -0.107635,0.2421 -0.0897,0.27806 0.287034,1.43522 0.502322,0.3229 v 6.1983 l -0.592026,6.69167 -0.340863,3.87507 -0.565112,4.70929 -0.224225,0.56512 -1.865774,-3.20232 -0.645843,-4.29666 -0.825244,-6.97872 -0.995679,-6.46741 0.08075,5.90231 0.340863,4.87972 0.600993,4.65546 -4.171076,-6.60196 -5.983028,-8.97008 -1.381392,-1.9106 h -0.116492 l 0.403651,1.14814 0.744516,1.8568 1.094349,2.47576 1.910622,4.09932 1.157137,2.06311 1.42624,2.47573 2.960118,4.73618 2.691018,4.24285 0.385713,3.83021 1.273748,8.69198 v 0 l -1.471089,-4.56576 -3.11261,-7.71424 -2.475738,-5.14882 -3.292011,-5.38204 -1.668429,-2.19765 -1.363452,-1.27374 -2.170754,-2.01827 0.897006,1.11228 1.453152,1.498 0.897006,0.96877 0.574081,0.98671 0.681724,1.08536 1.11229,1.9196 0.968762,1.79401 0.968769,2.17075 1.210958,2.93321 2.377065,6.11759 2.475736,6.44947 1.498001,4.55678 z m -3.360184,0.49669 0.656338,-0.38225 -3.081302,-8.64013 -1.740193,-3.33687 -2.403973,-4.43121 -1.794016,-2.84351 -1.614608,-2.45782 -0.897007,-1.21093 -0.726574,-0.72658 1.255811,2.37707 1.139194,2.69102 1.731222,3.91989 0.753484,1.73123 4.786067,13.49921 z m -11.565455,-24.0293 v 0 h -0.06279 z m 26.380943,-7.91161 -0.421594,1.79401 -1.901653,7.60664 -0.897006,4.31459 -0.959793,5.2116 -1.076409,3.40863 -0.376741,-0.89701 -2.439858,-4.48504 0.825245,-1.90164 2.69102,-5.58835 1.426237,-3.00497 1.910622,-4.03654 z m 2.368095,5.66909 -0.34983,2.00929 -0.977739,3.35482 -0.968766,2.51159 -1.094346,3.22923 -0.574083,3.1754 -1.348113,8.17813 1.492887,-0.0483 1.362194,-7.79795 0.224252,-1.79403 0.520265,-2.52057 1.148167,-4.48504 0.529235,-3.34584 z m -14.118873,9.18534 0.798334,1.33654 -0.161466,3.11261 -0.125598,0.0898 z m 1.345509,2.24253 0.466444,0.76245 -0.358801,0.84318 -0.260121,0.18828 z"
       class="cls-1"
       data-name="path5380"
       id="path956"
       inkscape:connector-curvature="0" />
  </g>
  <g
     inkscape:groupmode="layer"
     id="layer7"
     inkscape:label="Official NC State Red"
     style="display:none"
     transform="translate(0,-195.4)"
     sodipodi:insensitive="true">
    <path
       inkscape:connector-curvature="0"
       id="path5380-3-7"
       data-name="path5380"
       class="cls-1"
       d="m 34.582343,277.50797 1.247377,-0.0848 0.484384,-0.52027 -0.897008,-6.4405 0.07177,-1.04054 0.448502,-1.56078 0.457473,-1.42623 0.502322,-1.12126 1.641522,2.75381 1.596669,2.90629 0.722001,4.11269 1.244147,-0.052 1.738488,-13.0037 2.368095,-11.44578 1.524908,-7.77705 3.085702,-6.12655 0.466444,-1.26479 0.161466,-0.74452 0.06279,-1.21093 -0.188356,-0.96878 -0.439531,-0.897 -0.807307,-0.80731 v 0.21532 l 0.394683,0.41262 0.367774,0.897 0.04485,0.69069 -0.502325,1.39036 -0.609962,1.48007 -1.39933,2.51162 0.780394,-5.79466 0.215298,-3.04982 -0.278062,-0.0538 -1.542848,10.38733 -0.287032,0.52926 -2.57441,4.85279 -3.292013,6.52125 -2.762778,5.65112 -1.533878,3.97375 -0.897008,-1.48904 0.547174,-1.13022 3.004971,-5.76777 3.067759,-5.06806 1.273748,-2.47575 1.049499,-2.06312 0.287032,-0.69965 0.06279,-0.68174 -0.125597,-0.52922 h -0.08076 l -0.09868,0.46645 -0.520264,1.21095 -1.3186,2.08105 -3.63287,5.59732 -2.072088,3.05879 -1.417264,2.51161 0.897005,-8.63816 0.32292,-3.69567 0.143531,-7.79499 v 0 l 0.06279,-0.26021 0.206317,-0.48439 0.152512,-0.43954 0.188383,-0.32291 v -0.64584 l -0.06279,-0.80731 0.287032,-0.52027 -0.125598,-0.77143 v -0.57408 l 0.09868,-0.33189 0.224226,-0.7176 0.161467,-0.39471 -0.296008,-0.48437 0.251142,-0.47542 -0.403651,-0.287 -0.242187,-0.72659 0.349835,-0.56513 -0.484381,-0.16148 -0.206291,-0.37675 v -0.32291 l -0.224278,-0.36777 -0.215271,-0.19747 v -0.30503 -0.32293 l -0.107635,-0.89701 -0.07177,-0.52024 -0.32292,-0.24211 -0.161467,-0.28704 -0.367773,-0.17935 -0.215272,-0.39466 v -0.4575 -0.45748 l -0.242186,-0.40366 -0.421594,-0.0809 -0.394683,-0.13444 -0.197363,-0.28702 -0.134551,-0.305 -0.304986,0.19747 -0.125596,0.3947 -0.06279,0.42159 -0.197364,0.6548 -0.143531,-0.21533 0.06279,0.80731 v 0.17935 0.30499 l 0.116616,0.24211 0.09868,0.32291 0.206318,0.26023 0.08075,0.11658 0.06279,0.305 -0.25114,0.18829 0.107635,0.27804 -0.242186,0.30498 v 0.24211 l 0.06279,0.24211 0.206317,0.23318 0.179402,0.22425 0.242186,0.21532 v 0.17043 l -0.08075,0.2691 -0.170448,0.17042 -0.09868,0.14363 v 0.37674 l 0.304981,0.19747 0.170446,0.18828 0.107636,0.38571 -0.322924,0.3857 -0.05383,0.26909 0.134552,0.30498 0.197362,0.24211 v 0.19747 l 0.152513,0.18827 0.134551,0.1615 0.107636,0.17935 -0.06279,0.305 0.197363,0.27805 h 0.179428 l 0.06279,0.13444 -0.06279,0.24212 0.170447,0.34981 0.179401,0.13445 0.134551,0.28704 -0.134551,0.48438 0.197336,0.43954 0.188357,0.0807 0.0897,0.19746 v 0.57408 l -0.107635,0.24211 -0.0897,0.27805 0.287034,1.43521 0.502322,0.32294 v 6.1983 l -0.592023,6.69167 -0.340863,3.87507 -0.565112,4.70926 -0.224226,0.56512 -1.865774,-3.20231 -0.645843,-4.29666 -0.825244,-6.9787 -0.995679,-6.46741 0.08075,5.90229 0.340863,4.87971 0.600992,4.65547 -4.171078,-6.60197 -5.983028,-8.97005 -1.381392,-1.91063 H 20.40142 l 0.403651,1.14817 0.744516,1.8568 1.094349,2.47573 1.910622,4.09932 1.157137,2.06312 1.42624,2.47572 2.960118,4.73621 2.691018,4.24283 0.385713,3.83021 1.273748,8.692 v 0 l -1.471089,-4.56576 -3.11261,-7.71427 -2.475738,-5.14881 -3.292011,-5.38202 -1.668429,-2.19767 -1.363452,-1.27375 -2.170754,-2.01826 0.897006,1.11227 1.453152,1.498 0.897006,0.96878 0.574081,0.9867 0.681724,1.08539 1.11229,1.9196 0.968762,1.79401 0.968769,2.17075 1.210958,2.93321 2.377065,6.11757 2.475736,6.44947 1.498001,4.5568 z m -3.360184,0.49669 0.656338,-0.38225 -3.081302,-8.64016 -1.740193,-3.33686 -2.403973,-4.43121 -1.794016,-2.84351 -1.614608,-2.4578 -0.897007,-1.21095 -0.726574,-0.72659 1.255811,2.37707 1.139194,2.69102 1.731222,3.91992 0.753484,1.73123 4.786067,13.49918 z M 19.656704,253.97533 v 0 h -0.06279 z m 26.380943,-7.91158 -0.421594,1.79401 -1.901653,7.60661 -0.897006,4.3146 -0.959793,5.2116 -1.076409,3.40863 -0.376741,-0.89701 -2.439858,-4.48502 0.825245,-1.90168 2.69102,-5.58833 1.426237,-3.00498 1.910622,-4.03651 z m 2.368095,5.66909 -0.34983,2.00929 -0.977739,3.35479 -0.968766,2.51162 -1.094346,3.22921 -0.574083,3.17542 -1.348113,8.17813 1.492887,-0.0483 1.362194,-7.79799 0.224252,-1.79401 0.520265,-2.52057 1.148167,-4.48504 0.529235,-3.34582 z m -14.118873,9.18532 0.798334,1.33656 -0.161466,3.11261 -0.125598,0.0898 z m 1.345509,2.24252 0.466444,0.76246 -0.358801,0.84317 -0.260121,0.18828 z"
       style="display:inline;fill:#cc0000;fill-opacity:1;stroke-width:0.89700586"
       sodipodi:nodetypes="cccccccccccccccccccccccccccccccccccccccccccccccccccccccccccccccccccccccccccccccccccccccccccccccccccccccccccccccccccccccccccccccccccccccccccccccccccccccccccccccccccccccccccccccccccccccccccccccccccccccccccccccccccccccccccccccccccccccccccccccccccccccccccc" />
  </g>
  <g
     style="display:none"
     inkscape:label="Different NC State Red"
     id="g954"
     inkscape:groupmode="layer"
     transform="translate(0,-195.4)"
     sodipodi:insensitive="true">
    <path
       sodipodi:nodetypes="cccccccccccccccccccccccccccccccccccccccccccccccccccccccccccccccccccccccccccccccccccccccccccccccccccccccccccccccccccccccccccccccccccccccccccccccccccccccccccccccccccccccccccccccccccccccccccccccccccccccccccccccccccccccccccccccccccccccccccccccccccccccccccc"
       style="display:inline;fill:#cd1e25;fill-opacity:1;stroke-width:0.89700586"
       d="m 34.582343,277.50797 1.247377,-0.0848 0.484384,-0.52027 -0.897008,-6.4405 0.07177,-1.04054 0.448502,-1.56078 0.457473,-1.42623 0.502322,-1.12126 1.641522,2.75381 1.596669,2.90629 0.722001,4.11269 1.244147,-0.052 1.738488,-13.0037 2.368095,-11.44578 1.524908,-7.77705 3.085702,-6.12655 0.466444,-1.26479 0.161466,-0.74452 0.06279,-1.21093 -0.188356,-0.96878 -0.439531,-0.897 -0.807307,-0.80731 v 0.21532 l 0.394683,0.41262 0.367774,0.897 0.04485,0.69069 -0.502325,1.39036 -0.609962,1.48007 -1.39933,2.51162 0.780394,-5.79466 0.215298,-3.04982 -0.278062,-0.0538 -1.542848,10.38733 -0.287032,0.52926 -2.57441,4.85279 -3.292013,6.52125 -2.762778,5.65112 -1.533878,3.97375 -0.897008,-1.48904 0.547174,-1.13022 3.004971,-5.76777 3.067759,-5.06806 1.273748,-2.47575 1.049499,-2.06312 0.287032,-0.69965 0.06279,-0.68174 -0.125597,-0.52922 h -0.08076 l -0.09868,0.46645 -0.520264,1.21095 -1.3186,2.08105 -3.63287,5.59732 -2.072088,3.05879 -1.417264,2.51161 0.897005,-8.63816 0.32292,-3.69567 0.143531,-7.79499 v 0 l 0.06279,-0.26021 0.206317,-0.48439 0.152512,-0.43954 0.188383,-0.32291 v -0.64584 l -0.06279,-0.80731 0.287032,-0.52027 -0.125598,-0.77143 v -0.57408 l 0.09868,-0.33189 0.224226,-0.7176 0.161467,-0.39471 -0.296008,-0.48437 0.251142,-0.47542 -0.403651,-0.287 -0.242187,-0.72659 0.349835,-0.56513 -0.484381,-0.16148 -0.206291,-0.37675 v -0.32291 l -0.224278,-0.36777 -0.215271,-0.19747 v -0.30503 -0.32293 l -0.107635,-0.89701 -0.07177,-0.52024 -0.32292,-0.24211 -0.161467,-0.28704 -0.367773,-0.17935 -0.215272,-0.39466 v -0.4575 -0.45748 l -0.242186,-0.40366 -0.421594,-0.0809 -0.394683,-0.13444 -0.197363,-0.28702 -0.134551,-0.305 -0.304986,0.19747 -0.125596,0.3947 -0.06279,0.42159 -0.197364,0.6548 -0.143531,-0.21533 0.06279,0.80731 v 0.17935 0.30499 l 0.116616,0.24211 0.09868,0.32291 0.206318,0.26023 0.08075,0.11658 0.06279,0.305 -0.25114,0.18829 0.107635,0.27804 -0.242186,0.30498 v 0.24211 l 0.06279,0.24211 0.206317,0.23318 0.179402,0.22425 0.242186,0.21532 v 0.17043 l -0.08075,0.2691 -0.170448,0.17042 -0.09868,0.14363 v 0.37674 l 0.304981,0.19747 0.170446,0.18828 0.107636,0.38571 -0.322924,0.3857 -0.05383,0.26909 0.134552,0.30498 0.197362,0.24211 v 0.19747 l 0.152513,0.18827 0.134551,0.1615 0.107636,0.17935 -0.06279,0.305 0.197363,0.27805 h 0.179428 l 0.06279,0.13444 -0.06279,0.24212 0.170447,0.34981 0.179401,0.13445 0.134551,0.28704 -0.134551,0.48438 0.197336,0.43954 0.188357,0.0807 0.0897,0.19746 v 0.57408 l -0.107635,0.24211 -0.0897,0.27805 0.287034,1.43521 0.502322,0.32294 v 6.1983 l -0.592023,6.69167 -0.340863,3.87507 -0.565112,4.70926 -0.224226,0.56512 -1.865774,-3.20231 -0.645843,-4.29666 -0.825244,-6.9787 -0.995679,-6.46741 0.08075,5.90229 0.340863,4.87971 0.600992,4.65547 -4.171078,-6.60197 -5.983028,-8.97005 -1.381392,-1.91063 H 20.40142 l 0.403651,1.14817 0.744516,1.8568 1.094349,2.47573 1.910622,4.09932 1.157137,2.06312 1.42624,2.47572 2.960118,4.73621 2.691018,4.24283 0.385713,3.83021 1.273748,8.692 v 0 l -1.471089,-4.56576 -3.11261,-7.71427 -2.475738,-5.14881 -3.292011,-5.38202 -1.668429,-2.19767 -1.363452,-1.27375 -2.170754,-2.01826 0.897006,1.11227 1.453152,1.498 0.897006,0.96878 0.574081,0.9867 0.681724,1.08539 1.11229,1.9196 0.968762,1.79401 0.968769,2.17075 1.210958,2.93321 2.377065,6.11757 2.475736,6.44947 1.498001,4.5568 z m -3.360184,0.49669 0.656338,-0.38225 -3.081302,-8.64016 -1.740193,-3.33686 -2.403973,-4.43121 -1.794016,-2.84351 -1.614608,-2.4578 -0.897007,-1.21095 -0.726574,-0.72659 1.255811,2.37707 1.139194,2.69102 1.731222,3.91992 0.753484,1.73123 4.786067,13.49918 z M 19.656704,253.97533 v 0 h -0.06279 z m 26.380943,-7.91158 -0.421594,1.79401 -1.901653,7.60661 -0.897006,4.3146 -0.959793,5.2116 -1.076409,3.40863 -0.376741,-0.89701 -2.439858,-4.48502 0.825245,-1.90168 2.69102,-5.58833 1.426237,-3.00498 1.910622,-4.03651 z m 2.368095,5.66909 -0.34983,2.00929 -0.977739,3.35479 -0.968766,2.51162 -1.094346,3.22921 -0.574083,3.17542 -1.348113,8.17813 1.492887,-0.0483 1.362194,-7.79799 0.224252,-1.79401 0.520265,-2.52057 1.148167,-4.48504 0.529235,-3.34582 z m -14.118873,9.18532 0.798334,1.33656 -0.161466,3.11261 -0.125598,0.0898 z m 1.345509,2.24252 0.466444,0.76246 -0.358801,0.84317 -0.260121,0.18828 z"
       class="cls-1"
       data-name="path5380"
       id="path952"
       inkscape:connector-curvature="0" />
  </g>
</svg>
